<svg xmlns="http://www.w3.org/2000/svg" width="12" height="10" viewBox="0 0 12 10" fill="none">
<path fill-rule="evenodd" clip-rule="evenodd" d="M4.1957 1.03148e-07H7.8043C8.44403 -4.43752e-06 8.95487 -8.05416e-06 9.36722 0.0349414C9.7902 0.0707916 10.1537 0.146015 10.4868 0.32258C10.9995 0.594414 11.4176 1.0211 11.6839 1.5444C11.8569 1.8843 11.9306 2.25532 11.9658 2.68701C12 3.10786 12 3.62922 12 4.28213V5.71787C12 6.37078 12 6.89214 11.9658 7.31299C11.9306 7.74468 11.8569 8.1157 11.6839 8.4556C11.4176 8.9789 10.9995 9.40559 10.4868 9.67742C10.1537 9.85399 9.7902 9.92921 9.36722 9.96506C8.95487 10 8.44403 10 7.8043 10H4.1957C3.55597 10 3.04513 10 2.63278 9.96506C2.2098 9.92921 1.84627 9.85399 1.51323 9.67742C1.00049 9.40559 0.582417 8.9789 0.316069 8.4556C0.143067 8.1157 0.0693628 7.74468 0.0342362 7.31299C-7.8916e-06 6.89214 -4.34796e-06 6.37078 1.01066e-07 5.71787V4.28213C-4.34796e-06 3.62922 -7.8916e-06 3.10786 0.0342362 2.68701C0.0693628 2.25532 0.143068 1.8843 0.316069 1.5444C0.582417 1.0211 1.00049 0.594414 1.51323 0.32258C1.84627 0.146015 2.2098 0.0707916 2.63278 0.0349414C3.04513 -8.05416e-06 3.55597 -4.43752e-06 4.1957 1.03148e-07ZM2.10249 1.16049C2.62495 1.24928 3.11323 1.49583 3.50158 1.87331L4.87479 3.20806C5.14129 3.4671 5.31999 3.64025 5.46833 3.76265C5.6119 3.88111 5.69471 3.92398 5.75852 3.9439C5.91591 3.99302 6.08409 3.99302 6.24148 3.9439C6.30529 3.92398 6.3881 3.88111 6.53167 3.76265C6.68002 3.64025 6.85871 3.4671 7.12521 3.20806L8.49842 1.87331C8.88677 1.49583 9.37505 1.24928 9.89751 1.16049C9.74831 1.10446 9.55813 1.06584 9.28522 1.04271C8.91869 1.01164 8.44901 1.01124 7.78238 1.01124H4.21762C3.55099 1.01124 3.08131 1.01164 2.71478 1.04271C2.44187 1.06584 2.25169 1.10446 2.10249 1.16049ZM10.8589 2.13483H10.3349C9.90553 2.13483 9.49264 2.30339 9.18175 2.60558L7.79415 3.95432C7.54577 4.19576 7.33799 4.39772 7.15458 4.54905C6.96287 4.70723 6.76605 4.83763 6.53125 4.91092C6.185 5.01899 5.815 5.01899 5.46875 4.91092C5.23395 4.83763 5.03713 4.70723 4.84542 4.54905C4.662 4.39772 4.45422 4.19575 4.20584 3.95431L2.81825 2.60558C2.50736 2.30339 2.09447 2.13483 1.66514 2.13483H1.14108C1.084 2.28874 1.04487 2.48544 1.02166 2.7707C0.991224 3.14479 0.990826 3.62414 0.990826 4.30449V5.69551C0.990826 6.37586 0.991224 6.85521 1.02166 7.2293C1.05161 7.59733 1.10805 7.81794 1.19534 7.98945C1.36768 8.32805 1.6382 8.60414 1.96997 8.78004C2.13801 8.86913 2.35418 8.92673 2.71478 8.95729C3.08131 8.98836 3.55099 8.98876 4.21762 8.98876H7.78239C8.44901 8.98876 8.91869 8.98836 9.28522 8.95729C9.64582 8.92673 9.86199 8.86913 10.03 8.78004C10.3618 8.60414 10.6323 8.32805 10.8047 7.98945C10.8919 7.81794 10.9484 7.59733 10.9783 7.2293C11.0088 6.85522 11.0092 6.37587 11.0092 5.69551V4.30449C11.0092 3.62414 11.0088 3.14479 10.9783 2.7707C10.9551 2.48544 10.916 2.28874 10.8589 2.13483Z" fill="#E6E6E6"/>
</svg>