<svg xmlns="http://www.w3.org/2000/svg" width="103" height="28" viewBox="0 0 103 28" fill="none">
  <g clip-path="url(#clip0_4167_3700)">
    <path d="M0 15.9928L6.01344 0H8.64396L14.6574 15.9928H11.8391L10.4531 12.244H4.1104L2.72442 15.9928H0ZM4.93295 9.90467H9.60677L7.28175 3.52112L4.93295 9.90467Z" fill="white"/>
    <path d="M17.0526 15.9928V0.0908203H22.9484C24.7337 0.0908203 26.1435 0.533404 27.1765 1.41972C28.2094 2.30604 28.7265 3.55102 28.7265 5.15696C28.7265 6.33872 28.421 7.32275 27.81 8.1102C27.199 8.89765 26.3693 9.47359 25.3198 9.83685L29.1722 15.9928H26.0246L22.549 10.3817H21.6563H19.7533V15.9928H17.0526ZM19.7544 8.04122H22.8319C23.803 8.04122 24.5697 7.79522 25.1343 7.3032C25.6978 6.81119 25.9795 6.1111 25.9795 5.20179C25.9795 4.30858 25.6978 3.63034 25.1343 3.16821C24.5709 2.70608 23.7876 2.47502 22.7855 2.47502H19.7556V8.04122H19.7544Z" fill="white"/>
    <path d="M35.0228 15.9928V2.544H30.7008V0.0908203H42.0466V2.544H37.7484V15.9916H35.0228V15.9928Z" fill="white"/>
    <path d="M50.6655 15.9928V0.0908203H55.6686C57.9865 0.0908203 59.8646 0.813898 61.3064 2.26005C62.7471 3.70621 63.4674 5.5961 63.4674 7.92742V8.13204C63.4674 10.4645 62.7471 12.3578 61.3064 13.8109C59.8658 15.2651 57.9865 15.9916 55.6686 15.9916H50.6655V15.9928ZM53.3674 13.6074H55.7399C57.2115 13.6074 58.3978 13.1235 59.2988 12.1532C60.1986 11.1841 60.6491 9.85179 60.6491 8.15503V7.95041C60.6491 6.26974 60.1986 4.93739 59.2988 3.95222C58.3978 2.96819 57.2115 2.47617 55.7399 2.47617H53.3674V13.6074Z" fill="#FF9700"/>
    <path d="M64.3364 15.9928L70.3499 0H72.9804L78.9938 15.9928H76.1755L74.7895 12.244H68.448L67.062 15.9928H64.3364ZM69.2694 9.90467H73.9432L71.6182 3.52112L69.2694 9.90467Z" fill="#FF9700"/>
    <path d="M82.964 15.9928V2.544H78.642V0.0908203H89.9878V2.544H85.6896V15.9916H82.964V15.9928Z" fill="#FF9700"/>
    <path d="M92.5707 15.9928V0.0908203H102.906V2.47617H95.2713V6.7928H102.036V9.17815H95.2713V13.6074H102.999V15.9928H92.5707Z" fill="#FF9700"/>
    <path d="M12.916 22.3407H13.8289L16.6413 26.9608V22.3407H17.3117V27.9299H16.5034L13.5852 23.1385V27.9299H12.9148V22.3407H12.916Z" fill="$whiteAFA"/>
    <path d="M24.5221 22.3407H27.8931V22.8959H25.2258V24.795H27.3761V25.3503H25.2258V27.3747H28.0382V27.9299H24.5221V22.3407Z" fill="$whiteAFA"/>
    <path d="M36.0403 22.8959H34.3595V22.3407H38.4247V22.8959H36.744V27.9299H36.0403V22.8959Z" fill="$whiteAFA"/>
    <path d="M44.7698 22.3407H45.4889L46.6609 26.8516L48.0184 22.3407H48.52L49.8775 26.8665L51.0661 22.3407H51.7211L50.2174 27.9299H49.5708L48.2609 23.5133L46.9106 27.9299H46.2722L44.7698 22.3407Z" fill="$whiteAFA"/>
    <path d="M60.8548 28C60.0144 28 59.3273 27.7276 58.7936 27.1827C58.2599 26.6378 57.9937 25.9676 57.9937 25.1698V25.1077C57.9937 24.2996 58.2587 23.6248 58.7901 23.0833C59.3202 22.5419 60.0037 22.2706 60.8393 22.2706C61.6749 22.2706 62.3537 22.5407 62.8767 23.0799C63.3997 23.619 63.6612 24.2904 63.6612 25.0928V25.1548C63.6612 25.9572 63.3997 26.632 62.8767 27.1792C62.3537 27.7264 61.6797 28 60.8548 28ZM60.8548 27.4367C61.4907 27.4367 61.9959 27.2252 62.3703 26.8033C62.7447 26.3814 62.9325 25.8285 62.9325 25.1456V25.0836C62.9325 24.4375 62.7435 23.8984 62.3667 23.465C61.9899 23.0327 61.48 22.8166 60.8393 22.8166C60.182 22.8166 59.6649 23.027 59.2869 23.4454C58.9101 23.865 58.7211 24.4157 58.7211 25.0985V25.1606C58.7211 25.8273 58.9244 26.3734 59.3309 26.7987C59.7386 27.2252 60.2462 27.4367 60.8548 27.4367Z" fill="$whiteAFA"/>
    <path d="M70.5863 22.3407H72.3241C72.922 22.3407 73.4082 22.4683 73.7826 22.7235C74.157 22.9787 74.3449 23.3696 74.3449 23.8961V23.9271C74.3449 24.3593 74.2129 24.7019 73.949 24.9548C73.6851 25.2077 73.3404 25.3733 72.9149 25.4514L74.6848 27.9299H73.9003L72.1791 25.4986H71.29V27.9299H70.5863V22.3407ZM72.3729 24.9594C73.2192 24.9594 73.6424 24.6157 73.6424 23.9271V23.8961C73.6424 23.5316 73.5342 23.2718 73.319 23.1178C73.1039 22.9638 72.7877 22.8867 72.3729 22.8867H71.29V24.9583H72.3729V24.9594Z" fill="$whiteAFA"/>
    <path d="M81.4175 22.3407H82.1212V25.0295L84.6352 22.3326H85.4197L82.8498 25.0525L85.5493 27.9287H84.7006L82.1224 25.2008V27.9287H81.4187V22.3407H81.4175Z" fill="$whiteAFA"/>
  </g>
  <defs>
    <clipPath id="clip0_4167_3700">
      <rect width="103" height="28" fill="white"/>
    </clipPath>
  </defs>
</svg>