<svg xmlns="http://www.w3.org/2000/svg" width="128" height="36" viewBox="0 0 128 36" fill="none">
  <g clip-path="url(#clip0_4547_10004)">
    <path d="M0.695312 20.254L8.08326 0.570557H11.315L18.703 20.254H15.2405L13.5377 15.6401H5.74523L4.04245 20.254H0.695312ZM6.75579 12.7609H12.4979L9.64146 4.90425L6.75579 12.7609Z" fill="white"/>
    <path d="M21.6455 20.254V0.682373H28.8889C31.0823 0.682373 32.8143 1.22709 34.0834 2.31794C35.3524 3.40879 35.9877 4.94108 35.9877 6.91762C35.9877 8.37209 35.6124 9.58321 34.8617 10.5524C34.1111 11.5216 33.0918 12.2304 31.8023 12.6775L36.5353 20.254H32.6683L28.3982 13.3481H27.3015H24.9634V20.254H21.6455ZM24.9649 10.4675H28.7458C29.9389 10.4675 30.8808 10.1647 31.5745 9.55915C32.2667 8.9536 32.6128 8.09195 32.6128 6.9728C32.6128 5.87346 32.2667 5.0387 31.5745 4.46993C30.8823 3.90116 29.9199 3.61678 28.6888 3.61678H24.9664V10.4675H24.9649Z" fill="white"/>
    <path d="M43.7234 20.254V3.70167H38.4136V0.682373H52.3527V3.70167H47.072V20.2526H43.7234V20.254Z" fill="white"/>
    <path d="M62.9414 20.254V0.682373H69.088C71.9357 0.682373 74.2431 1.57231 76.0145 3.3522C77.7845 5.13208 78.6695 7.4581 78.6695 10.3274V10.5793C78.6695 13.45 77.7845 15.7803 76.0145 17.5686C74.2446 19.3584 71.9357 20.2526 69.088 20.2526H62.9414V20.254ZM66.2608 17.3182H69.1757C70.9836 17.3182 72.441 16.7225 73.548 15.5284C74.6535 14.3357 75.2069 12.6959 75.2069 10.6076V10.3557C75.2069 8.2872 74.6535 6.64739 73.548 5.43486C72.441 4.22375 70.9836 3.61819 69.1757 3.61819H66.2608V17.3182Z" fill="#FF9700"/>
    <path d="M79.7373 20.254L87.1253 0.570557H90.357L97.745 20.254H94.2825L92.5797 15.6401H84.7887L83.0859 20.254H79.7373ZM85.7978 12.7609H91.5399L88.6835 4.90425L85.7978 12.7609Z" fill="#FF9700"/>
    <path d="M102.622 20.254V3.70167H97.3125V0.682373H111.252V3.70167H105.971V20.2526H102.622V20.254Z" fill="#FF9700"/>
    <path d="M114.425 20.254V0.682373H127.123V3.61819H117.743V8.93096H126.054V11.8668H117.743V17.3182H127.237V20.254H114.425Z" fill="#FF9700"/>
    <path d="M16.5635 28.0669H17.685L21.1402 33.7532V28.0669H21.9639V34.9459H20.9708L17.3857 29.0488V34.9459H16.562V28.0669H16.5635Z" fill="white"/>
    <path d="M30.8223 28.0669H34.9638V28.7503H31.6868V31.0876H34.3286V31.771H31.6868V34.2625H35.142V34.9459H30.8223V28.0669Z" fill="white"/>
    <path d="M44.9732 28.7503H42.9082V28.0669H47.9026V28.7503H45.8377V34.9459H44.9732V28.7503Z" fill="white"/>
    <path d="M55.6982 28.0669H56.5818L58.0217 33.6188L59.6894 28.0669H60.3057L61.9734 33.6372L63.4337 28.0669H64.2384L62.3911 34.9459H61.5966L59.9873 29.51L58.3283 34.9459H57.5441L55.6982 28.0669Z" fill="white"/>
    <path d="M75.4599 35.0321C74.4274 35.0321 73.5833 34.6968 72.9276 34.0261C72.2719 33.3555 71.9448 32.5306 71.9448 31.5487V31.4723C71.9448 30.4777 72.2705 29.6472 72.9233 28.9808C73.5746 28.3144 74.4143 27.9805 75.4409 27.9805C76.4675 27.9805 77.3014 28.313 77.944 28.9765C78.5865 29.6401 78.9078 30.4664 78.9078 31.4539V31.5303C78.9078 32.5179 78.5865 33.3484 77.944 34.0219C77.3014 34.6954 76.4734 35.0321 75.4599 35.0321ZM75.4599 34.3388C76.2412 34.3388 76.8618 34.0785 77.3219 33.5592C77.7819 33.04 78.0126 32.3594 78.0126 31.519V31.4426C78.0126 30.6475 77.7804 29.9839 77.3175 29.4505C76.8545 28.9185 76.228 28.6525 75.4409 28.6525C74.6333 28.6525 73.9981 28.9114 73.5337 29.4264C73.0708 29.9429 72.8386 30.6206 72.8386 31.461V31.5374C72.8386 32.358 73.0883 33.0301 73.5877 33.5536C74.0886 34.0785 74.7122 34.3388 75.4599 34.3388Z" fill="white"/>
    <path d="M87.4155 28.0669H89.5506C90.2851 28.0669 90.8824 28.2239 91.3424 28.538C91.8024 28.8521 92.0332 29.3332 92.0332 29.9812V30.0194C92.0332 30.5514 91.8711 30.973 91.5469 31.2843C91.2227 31.5955 90.7992 31.7993 90.2764 31.8955L92.4508 34.9459H91.487L89.3724 31.9535H88.2801V34.9459H87.4155V28.0669ZM89.6104 31.2899C90.6502 31.2899 91.1701 30.8669 91.1701 30.0194V29.9812C91.1701 29.5327 91.0372 29.2129 90.7729 29.0233C90.5086 28.8337 90.1201 28.7389 89.6104 28.7389H88.2801V31.2885H89.6104V31.2899Z" fill="white"/>
    <path d="M100.722 28.0668H101.587V31.3761L104.675 28.0569H105.639L102.482 31.4044L105.798 34.9444H104.756L101.588 31.5869V34.9444H100.724V28.0668H100.722Z" fill="white"/>
  </g>
  <defs>
    <clipPath id="clip0_4547_10004">
      <rect width="126.543" height="34.4615" fill="white" transform="translate(0.695312 0.570557)"/>
    </clipPath>
  </defs>
</svg>