<svg xmlns="http://www.w3.org/2000/svg" width="17" height="17" viewBox="0 0 17 17" fill="none">
<path fill-rule="evenodd" clip-rule="evenodd" d="M8.96668 2.88477C7.90814 2.88477 7.05002 3.74289 7.05002 4.80143V6.71899C7.19616 6.71797 7.3515 6.71802 7.51755 6.71807C7.55558 6.71809 7.59418 6.7181 7.63335 6.7181H10.3C10.3392 6.7181 10.3778 6.71809 10.4158 6.71807C10.5819 6.71802 10.7372 6.71797 10.8834 6.71899V4.80143C10.8834 3.74289 10.0252 2.88477 8.96668 2.88477ZM12.3796 6.87686C12.3821 6.85205 12.3834 6.82689 12.3834 6.80143V4.80143C12.3834 2.91446 10.8537 1.38477 8.96668 1.38477C7.07971 1.38477 5.55002 2.91446 5.55002 4.80143V6.80143C5.55002 6.82689 5.55129 6.85205 5.55376 6.87685C4.31209 7.24998 3.34808 8.24 3.01113 9.49753C2.88287 9.97619 2.88306 10.5343 2.88332 11.3523C2.88334 11.3903 2.88335 11.4289 2.88335 11.4681C2.88335 11.5073 2.88334 11.5459 2.88332 11.5839C2.88306 12.4019 2.88287 12.96 3.01113 13.4387C3.35788 14.7328 4.36868 15.7436 5.66278 16.0903C6.14144 16.2186 6.69959 16.2184 7.51755 16.2181C7.55559 16.2181 7.59418 16.2181 7.63335 16.2181H10.3C10.3392 16.2181 10.3778 16.2181 10.4158 16.2181C11.2338 16.2184 11.7919 16.2186 12.2706 16.0903C13.5647 15.7436 14.5755 14.7328 14.9222 13.4387C15.0505 12.96 15.0503 12.4019 15.05 11.5839C15.05 11.5459 15.05 11.5073 15.05 11.4681C15.05 11.4289 15.05 11.3903 15.05 11.3523C15.0503 10.5343 15.0505 9.97619 14.9222 9.49753C14.5853 8.24 13.6213 7.24998 12.3796 6.87686ZM7.63335 8.2181C6.65509 8.2181 6.31309 8.22454 6.05101 8.29477C5.27455 8.50282 4.66807 9.1093 4.46002 9.88576C4.38979 10.1478 4.38335 10.4898 4.38335 11.4681C4.38335 12.4464 4.38979 12.7884 4.46002 13.0504C4.66807 13.8269 5.27455 14.4334 6.05101 14.6414C6.31309 14.7117 6.65509 14.7181 7.63335 14.7181H10.3C11.2783 14.7181 11.6203 14.7117 11.8824 14.6414C12.6588 14.4334 13.2653 13.8269 13.4734 13.0504C13.5436 12.7884 13.55 12.4464 13.55 11.4681C13.55 10.4898 13.5436 10.1478 13.4734 9.88576C13.2653 9.1093 12.6588 8.50282 11.8824 8.29477C11.6203 8.22454 11.2783 8.2181 10.3 8.2181H7.63335ZM8.96668 10.0514C9.3809 10.0514 9.71668 10.3872 9.71668 10.8014L9.71668 12.1348C9.71668 12.549 9.3809 12.8848 8.96668 12.8848C8.55247 12.8848 8.21668 12.549 8.21668 12.1348L8.21668 10.8014C8.21668 10.3872 8.55247 10.0514 8.96668 10.0514Z" fill="#E6E6E6"/>
</svg>
