<svg xmlns="http://www.w3.org/2000/svg" width="16" height="16" viewBox="0 0 16 16" fill="none">
<path fill-rule="evenodd" clip-rule="evenodd" d="M7.99989 2.08333C6.94134 2.08333 6.08322 2.94145 6.08322 4V5.91756C6.22936 5.91654 6.38471 5.91659 6.55076 5.91664C6.58879 5.91665 6.62738 5.91667 6.66655 5.91667H9.33322C9.37239 5.91667 9.41098 5.91665 9.44902 5.91664C9.61507 5.91659 9.77041 5.91654 9.91655 5.91756V4C9.91655 2.94145 9.05843 2.08333 7.99989 2.08333ZM11.4128 6.07542C11.4153 6.05062 11.4166 6.02546 11.4166 6V4C11.4166 2.11303 9.88686 0.583333 7.99989 0.583333C6.11291 0.583333 4.58322 2.11303 4.58322 4V6C4.58322 6.02546 4.58449 6.05062 4.58697 6.07542C3.34529 6.44855 2.38128 7.43857 2.04433 8.69609C1.91607 9.17476 1.91626 9.73291 1.91653 10.5509C1.91654 10.5889 1.91655 10.6275 1.91655 10.6667C1.91655 10.7058 1.91654 10.7444 1.91653 10.7825C1.91626 11.6004 1.91607 12.1586 2.04433 12.6372C2.39108 13.9313 3.40189 14.9421 4.69598 15.2889C5.17464 15.4171 5.73279 15.417 6.55076 15.4167C6.58879 15.4167 6.62738 15.4167 6.66656 15.4167H9.33322C9.37239 15.4167 9.41099 15.4167 9.44902 15.4167C10.267 15.417 10.8251 15.4171 11.3038 15.2889C12.5979 14.9421 13.6087 13.9313 13.9554 12.6372C14.0837 12.1586 14.0835 11.6004 14.0832 10.7825C14.0832 10.7444 14.0832 10.7058 14.0832 10.6667C14.0832 10.6275 14.0832 10.5889 14.0832 10.5509C14.0835 9.73291 14.0837 9.17476 13.9554 8.69609C13.6185 7.43857 12.6545 6.44855 11.4128 6.07542ZM6.66655 7.41667C5.6883 7.41667 5.34629 7.42311 5.08421 7.49333C4.30775 7.70138 3.70127 8.30787 3.49322 9.08432C3.423 9.34641 3.41655 9.68841 3.41655 10.6667C3.41655 11.6449 3.423 11.9869 3.49322 12.249C3.70127 13.0255 4.30775 13.6319 5.08421 13.84C5.34629 13.9102 5.6883 13.9167 6.66656 13.9167H9.33322C10.3115 13.9167 10.6535 13.9102 10.9156 13.84C11.692 13.6319 12.2985 13.0255 12.5066 12.249C12.5768 11.9869 12.5832 11.6449 12.5832 10.6667C12.5832 9.68841 12.5768 9.34641 12.5066 9.08432C12.2985 8.30787 11.692 7.70138 10.9156 7.49333C10.6535 7.42311 10.3115 7.41667 9.33322 7.41667H6.66655ZM7.99989 9.25C8.4141 9.25 8.74989 9.58579 8.74989 10L8.74989 11.3333C8.74989 11.7475 8.4141 12.0833 7.99989 12.0833C7.58567 12.0833 7.24989 11.7475 7.24989 11.3333L7.24989 10C7.24989 9.58579 7.58567 9.25 7.99989 9.25Z" fill="#E6E6E6"/>
</svg>
