<svg xmlns="http://www.w3.org/2000/svg" width="25" height="25" viewBox="0 0 25 25" fill="none">
  <path d="M13.9893 8.62695C13.9893 8.07467 13.5415 7.62695 12.9893 7.62695C12.437 7.62695 11.9893 8.07467 11.9893 8.62695V11.627H8.98926C8.43697 11.627 7.98926 12.0747 7.98926 12.627C7.98926 13.1792 8.43697 13.627 8.98926 13.627H11.9893V16.627C11.9893 17.1792 12.437 17.627 12.9893 17.627C13.5415 17.627 13.9893 17.1792 13.9893 16.627V13.627H16.9893C17.5415 13.627 17.9893 13.1792 17.9893 12.627C17.9893 12.0747 17.5415 11.627 16.9893 11.627H13.9893V8.62695Z" fill="#979797"/>
  <path fill-rule="evenodd" clip-rule="evenodd" d="M12.9893 2.62695C7.46641 2.62695 2.98926 7.10411 2.98926 12.627C2.98926 18.1498 7.46641 22.627 12.9893 22.627C18.5121 22.627 22.9893 18.1498 22.9893 12.627C22.9893 7.10411 18.5121 2.62695 12.9893 2.62695ZM4.98926 12.627C4.98926 8.20867 8.57098 4.62695 12.9893 4.62695C17.4075 4.62695 20.9893 8.20867 20.9893 12.627C20.9893 17.0452 17.4075 20.627 12.9893 20.627C8.57098 20.627 4.98926 17.0452 4.98926 12.627Z" fill="#979797"/>
</svg>