<svg xmlns="http://www.w3.org/2000/svg" width="16" height="17" viewBox="0 0 16 17" fill="none">
  <path fill-rule="evenodd" clip-rule="evenodd" d="M4.66675 5.63473C4.66675 3.79378 6.15913 2.30139 8.00008 2.30139C9.84103 2.30139 11.3334 3.79378 11.3334 5.63473C11.3334 7.47567 9.84103 8.96806 8.00008 8.96806C6.15913 8.96806 4.66675 7.47567 4.66675 5.63473ZM8.00008 3.63472C6.89551 3.63472 6.00008 4.53016 6.00008 5.63473C6.00008 6.73929 6.89551 7.63473 8.00008 7.63473C9.10465 7.63473 10.0001 6.73929 10.0001 5.63473C10.0001 4.53016 9.10465 3.63472 8.00008 3.63472Z" fill="#A6B2D3"/>
  <path d="M4.19104 4.27346C4.54381 4.16799 4.74428 3.79652 4.63881 3.44376C4.53335 3.091 4.16188 2.89053 3.80912 2.99599C2.71336 3.3236 2.00008 4.42966 2.00008 5.63473C2.00008 6.83979 2.71336 7.94585 3.80912 8.27346C4.16188 8.37892 4.53335 8.17845 4.63881 7.82569C4.74428 7.47293 4.54381 7.10146 4.19104 6.99599C3.75327 6.86511 3.33341 6.35413 3.33341 5.63473C3.33341 4.91532 3.75327 4.40434 4.19104 4.27346Z" fill="#A6B2D3"/>
  <path d="M12.191 2.99599C11.8383 2.89053 11.4668 3.091 11.3614 3.44376C11.2559 3.79652 11.4564 4.16799 11.8091 4.27346C12.2469 4.40434 12.6667 4.91532 12.6667 5.63473C12.6667 6.35413 12.2469 6.86511 11.8091 6.99599C11.4564 7.10146 11.2559 7.47293 11.3614 7.82569C11.4668 8.17845 11.8383 8.37892 12.191 8.27346C13.2868 7.94585 14.0001 6.83979 14.0001 5.63473C14.0001 4.42966 13.2868 3.3236 12.191 2.99599Z" fill="#A6B2D3"/>
  <path fill-rule="evenodd" clip-rule="evenodd" d="M8.00008 9.63473C6.67086 9.63473 5.39704 9.80421 4.42969 10.2338C3.44352 10.6717 2.66675 11.4442 2.66675 12.6347C2.66675 12.9459 2.72358 13.2999 2.93523 13.6376C3.14686 13.9752 3.47199 14.2306 3.89195 14.4206C4.698 14.7853 5.98935 14.9681 8.00008 14.9681C10.0108 14.9681 11.3022 14.7853 12.1082 14.4206C12.5282 14.2306 12.8533 13.9752 13.0649 13.6376C13.2766 13.2999 13.3334 12.9459 13.3334 12.6347C13.3334 11.4442 12.5566 10.6717 11.5705 10.2338C10.6031 9.80421 9.3293 9.63473 8.00008 9.63473ZM4.00008 12.6347C4.00008 12.1586 4.26797 11.7644 4.97081 11.4524C5.69246 11.1319 6.75197 10.9681 8.00008 10.9681C9.24819 10.9681 10.3077 11.1319 11.0294 11.4524C11.7322 11.7644 12.0001 12.1586 12.0001 12.6347C12.0001 12.7838 11.9736 12.8682 11.9352 12.9294C11.8969 12.9906 11.8053 13.0942 11.5586 13.2058C11.0313 13.4444 9.98935 13.6347 8.00008 13.6347C6.01081 13.6347 4.96883 13.4444 4.44154 13.2058C4.19484 13.0942 4.1033 12.9906 4.06493 12.9294C4.02659 12.8682 4.00008 12.7838 4.00008 12.6347Z" fill="#A6B2D3"/>
  <path d="M12.7362 9.33838C12.8999 9.00857 13.2999 8.87388 13.6298 9.03755C14.6257 9.53177 15.3334 10.3855 15.3334 11.6347C15.3334 12.0029 15.0349 12.3014 14.6667 12.3014C14.2986 12.3014 14.0001 12.0029 14.0001 11.6347C14.0001 10.9986 13.6834 10.5526 13.0371 10.2319C12.7073 10.0682 12.5726 9.66819 12.7362 9.33838Z" fill="#A6B2D3"/>
  <path d="M2.96309 10.2319C3.29291 10.0682 3.42759 9.66819 3.26393 9.33838C3.10026 9.00857 2.70021 8.87388 2.3704 9.03755C1.37447 9.53177 0.666748 10.3855 0.666748 11.6347C0.666748 12.0029 0.965225 12.3014 1.33341 12.3014C1.7016 12.3014 2.00008 12.0029 2.00008 11.6347C2.00008 10.9986 2.31677 10.5526 2.96309 10.2319Z" fill="#A6B2D3"/>
</svg>