<svg xmlns="http://www.w3.org/2000/svg" width="18" height="18" viewBox="0 0 18 18" fill="none">
  <ellipse cx="9.15845" cy="9.17229" rx="8.8116" ry="8.82591" fill="#F4F4F4"/>
  <mask id="mask0_4357_194" style="mask-type:luminance" maskUnits="userSpaceOnUse" x="0" y="0" width="18" height="18">
    <ellipse cx="9.15845" cy="9.17229" rx="8.8116" ry="8.82591" fill="white"/>
  </mask>
  <g mask="url(#mask0_4357_194)">
    <path fill-rule="evenodd" clip-rule="evenodd" d="M7.94704 13.9239H1.73486C2.04524 14.4106 2.40297 14.8653 2.80283 15.2813H15.5127C15.9125 14.8653 16.2703 14.4106 16.5806 13.9239H7.94528H7.94704Z" fill="#FF1612"/>
    <path fill-rule="evenodd" clip-rule="evenodd" d="M13.8508 1.70358C10.9824 -0.104358 7.33306 -0.104358 4.46469 1.70358H13.8508Z" fill="#FF1612"/>
    <path fill-rule="evenodd" clip-rule="evenodd" d="M14.0517 3.061H2.80283C2.40347 3.47812 2.04578 3.93335 1.73486 4.4202H16.5806C16.2697 3.93335 15.912 3.47812 15.5127 3.061L14.0517 3.061Z" fill="#FF1612"/>
    <path fill-rule="evenodd" clip-rule="evenodd" d="M7.94704 5.77762H1.02289C0.840279 6.21749 0.693527 6.67145 0.584068 7.13504H17.7314C17.622 6.67145 17.4752 6.21749 17.2926 5.77762H7.95233L7.94704 5.77762Z" fill="#FF1612"/>
    <path fill-rule="evenodd" clip-rule="evenodd" d="M7.94704 11.2091H0.584068C0.693527 11.6727 0.840279 12.1266 1.02289 12.5665H17.2926C17.4752 12.1266 17.622 11.6727 17.7314 11.2091H7.94704V11.2091Z" fill="#FF1612"/>
    <path fill-rule="evenodd" clip-rule="evenodd" d="M4.46293 16.6388C5.86264 17.525 7.48422 17.9962 9.14013 17.998H9.17537C10.8313 17.9962 12.4529 17.525 13.8526 16.6388H4.46293Z" fill="#FF1612"/>
    <path fill-rule="evenodd" clip-rule="evenodd" d="M7.94704 8.49246H0.37435C0.358489 8.71664 0.346153 8.94258 0.346153 9.17206C0.346153 9.40153 0.358489 9.62571 0.37435 9.84989H17.9412C17.957 9.62571 17.9694 9.39977 17.9694 9.17206C17.9694 8.94435 17.957 8.71664 17.9412 8.49246H7.94704Z" fill="#FF1612"/>
    <path fill-rule="evenodd" clip-rule="evenodd" d="M5.90451 0.969246L5.99262 0.935708C5.98029 0.895109 5.96619 0.856275 5.95385 0.817441C5.93799 0.875692 5.92213 0.918056 5.90451 0.969246Z" fill="#F4F4F4"/>
    <path fill-rule="evenodd" clip-rule="evenodd" d="M8.52155 9.84988H9.30226V0.346139H9.15775C8.07307 0.344588 6.9975 0.544491 5.98558 0.93571L6.00849 1.00455C6.0112 1.01363 6.0145 1.02899 6.01841 1.04721C6.02972 1.09988 6.04615 1.17638 6.06841 1.19343C6.09014 1.21007 6.16472 1.20257 6.21817 1.19719C6.23841 1.19516 6.25562 1.19343 6.26579 1.19343H6.46316L6.30279 1.30993C6.29498 1.31546 6.28116 1.32351 6.26479 1.33305C6.21841 1.36007 6.15154 1.39904 6.14242 1.42643C6.13376 1.45247 6.16248 1.51683 6.18401 1.56506C6.19313 1.5855 6.20096 1.60304 6.2041 1.61354L6.21682 1.65162C6.23367 1.70196 6.25029 1.75162 6.26579 1.80241L6.10718 1.68591C6.09968 1.68017 6.08834 1.67002 6.07492 1.65802C6.03469 1.62203 5.97588 1.56941 5.94681 1.56941C5.91799 1.56941 5.86094 1.62109 5.82125 1.65705C5.80753 1.66947 5.79589 1.68002 5.7882 1.68591L5.63311 1.80065L5.69479 1.61178C5.69796 1.60272 5.70425 1.58832 5.71169 1.57132L5.7117 1.5713C5.73324 1.52202 5.76434 1.45091 5.75647 1.42467C5.74866 1.39856 5.6811 1.35895 5.63431 1.33151C5.61782 1.32184 5.60391 1.31368 5.5961 1.30816L5.43573 1.19166H5.63311C5.64328 1.19166 5.66049 1.19326 5.68073 1.19514C5.73418 1.2001 5.80876 1.20703 5.83049 1.19166C5.85164 1.17671 5.86752 1.10634 5.87937 1.05382L5.87937 1.05381L5.87938 1.05377C5.88432 1.03192 5.88855 1.01316 5.89217 1.00279L5.90275 0.967484C4.06526 1.70187 2.52648 3.03184 1.53219 4.74497L1.54806 4.79263C1.55167 4.80298 1.55574 4.82151 1.56048 4.84312C1.57193 4.89525 1.58731 4.96529 1.60974 4.98151C1.63272 4.99813 1.70565 4.99067 1.75817 4.98529L1.75819 4.98529C1.77815 4.98325 1.79516 4.98151 1.80535 4.98151H2.0045L1.84589 5.09801C1.83696 5.10485 1.82022 5.11466 1.80077 5.12605L1.80074 5.12607L1.8007 5.12609L1.80069 5.1261C1.75488 5.15293 1.69417 5.1885 1.68552 5.21451C1.67637 5.24199 1.7079 5.31216 1.72986 5.361C1.73751 5.37804 1.74401 5.39249 1.7472 5.40162C1.76269 5.45242 1.77932 5.50209 1.79616 5.55243L1.80888 5.5905L1.64851 5.47399C1.64085 5.46813 1.62916 5.45765 1.61539 5.4453C1.57527 5.40933 1.51745 5.35749 1.4899 5.35749C1.46209 5.35749 1.40243 5.41033 1.36178 5.44633L1.36176 5.44634L1.36172 5.44638C1.3483 5.45826 1.33696 5.4683 1.32953 5.47399L1.17092 5.5905C1.1864 5.53976 1.203 5.49015 1.21983 5.43986L1.21984 5.43983L1.21984 5.43981L1.21985 5.43978L1.21986 5.43976L1.21987 5.43973L1.21988 5.43971L1.21988 5.43971L1.21988 5.4397L1.21989 5.43968L1.2326 5.40162C1.23568 5.39133 1.24311 5.37412 1.25179 5.35404C1.27286 5.30527 1.30126 5.23952 1.29252 5.21451V5.20392C0.886102 6.00818 0.605553 6.87025 0.460704 7.75991C0.465306 7.78656 0.476857 7.81153 0.494188 7.83228C0.515919 7.84892 0.590499 7.84142 0.643952 7.83605C0.664192 7.83401 0.681403 7.83228 0.691568 7.83228H0.888948L0.888923 7.8323C0.836062 7.87112 0.7832 7.90995 0.728577 7.94702C0.713087 7.95753 0.69448 7.9686 0.675528 7.97989C0.627638 8.0084 0.577544 8.03822 0.569968 8.06352C0.562631 8.08801 0.589232 8.1516 0.60974 8.20062C0.618788 8.22225 0.62665 8.24104 0.629887 8.25239C0.63549 8.27204 0.647033 8.30606 0.659532 8.34289C0.670618 8.37557 0.682456 8.41046 0.691568 8.4395L0.532959 8.323C0.490445 8.28453 0.445723 8.24857 0.399023 8.21532C0.364782 8.53309 0.347135 8.85244 0.346153 9.17205C0.346153 9.39976 0.358489 9.6257 0.37435 9.84988H8.52155ZM7.86773 1.20049C7.8779 1.20049 7.89577 1.20209 7.9168 1.20396C7.97231 1.20893 8.04977 1.21585 8.06511 1.20049C8.07981 1.18577 8.09791 1.11735 8.11172 1.06513L8.11173 1.06512C8.11779 1.04219 8.12303 1.02238 8.1268 1.01161L8.18671 0.824504L8.24663 1.01161C8.25025 1.02196 8.25432 1.04049 8.25906 1.06209C8.27051 1.11422 8.28589 1.18426 8.30831 1.20049C8.33132 1.21713 8.40533 1.20963 8.45837 1.20425C8.47845 1.20222 8.49553 1.20049 8.50569 1.20049H8.70307L8.5427 1.31699C8.53489 1.32251 8.52108 1.33056 8.50472 1.34009L8.50471 1.3401L8.50469 1.34011C8.45832 1.36713 8.39145 1.4061 8.38233 1.43349C8.37367 1.45953 8.40239 1.52389 8.42392 1.57212C8.43304 1.59256 8.44087 1.6101 8.44401 1.6206L8.50569 1.80948L8.34532 1.69297C8.33766 1.68711 8.32598 1.67663 8.3122 1.66428C8.27208 1.62831 8.21426 1.57647 8.18671 1.57647C8.1589 1.57647 8.09924 1.62931 8.05859 1.6653L8.05859 1.66531L8.05856 1.66533L8.05855 1.66535L8.05852 1.66537C8.04511 1.67725 8.03377 1.68728 8.02634 1.69297L7.86773 1.80948L7.92413 1.61178C7.9273 1.60119 7.93507 1.5833 7.9441 1.56248L7.94411 1.56248C7.9652 1.51389 7.99321 1.44938 7.98581 1.42467C7.97799 1.39856 7.91043 1.35895 7.86364 1.33151C7.84716 1.32184 7.83325 1.31368 7.82544 1.30816L7.66507 1.19166L7.86773 1.20049ZM7.9168 3.0983C7.89577 3.09626 7.8779 3.09453 7.86773 3.09453H7.67035L7.83073 3.21103C7.83878 3.21673 7.85333 3.22497 7.87052 3.23471C7.91723 3.26118 7.98337 3.29867 7.9911 3.32577C7.99854 3.35185 7.9702 3.41728 7.94906 3.46606C7.94017 3.4866 7.93255 3.50418 7.92942 3.51464C7.91884 3.54553 7.90871 3.57686 7.89858 3.60819L7.89857 3.6082L7.89857 3.60821L7.89857 3.60822L7.89856 3.60824L7.89856 3.60825L7.89855 3.60826L7.89855 3.60827L7.89854 3.60828L7.89854 3.6083L7.89854 3.60831L7.89853 3.60832L7.89853 3.60833L7.89852 3.60835L7.89852 3.60836L7.89851 3.60837L7.89851 3.60838L7.89851 3.60839L7.8985 3.60841L7.8985 3.60842L7.89849 3.60843L7.89849 3.60844L7.89848 3.60845L7.89848 3.60847L7.89848 3.60848C7.88838 3.63972 7.87828 3.67095 7.86773 3.70175L8.02634 3.58525C8.0349 3.5792 8.04863 3.5671 8.06475 3.55291C8.10505 3.51739 8.16028 3.46875 8.18671 3.46875C8.21296 3.46875 8.26669 3.51669 8.3064 3.55213L8.30641 3.55214C8.32269 3.56667 8.33661 3.57909 8.34532 3.58525L8.50569 3.70175C8.49514 3.67092 8.48502 3.63964 8.47491 3.60837L8.47486 3.60822C8.46472 3.57688 8.45459 3.54554 8.44401 3.51464C8.44089 3.50421 8.43315 3.48654 8.42412 3.46591C8.40257 3.4167 8.37364 3.35064 8.38233 3.32577C8.39136 3.29994 8.457 3.26182 8.5033 3.23493C8.52028 3.22507 8.53466 3.21671 8.5427 3.21103L8.70307 3.09453H8.50569C8.49553 3.09453 8.47845 3.09613 8.45837 3.09801C8.40533 3.10297 8.33132 3.10989 8.30831 3.09453C8.28583 3.07951 8.27043 3.00952 8.25897 2.95746L8.25897 2.95745L8.25897 2.95744L8.25897 2.95743C8.25426 2.93605 8.25022 2.9177 8.24663 2.90742C8.23694 2.87565 8.22681 2.84431 8.21667 2.81298C8.20654 2.78165 8.19641 2.75032 8.18671 2.71854C8.17702 2.75032 8.16689 2.78164 8.15676 2.81297C8.14662 2.84431 8.13649 2.87564 8.1268 2.90742C8.12306 2.91811 8.11787 2.93739 8.11186 2.9597L8.11185 2.95973C8.09802 3.01109 8.07985 3.07853 8.06511 3.09453C8.04978 3.11117 7.97232 3.10367 7.9168 3.0983L7.9168 3.0983ZM7.86773 4.99033C7.8779 4.99033 7.89577 4.99206 7.9168 4.9941C7.97231 4.99948 8.04977 5.00698 8.06511 4.99033C8.07979 4.97441 8.09786 4.90664 8.11166 4.85485L8.11167 4.85484L8.11167 4.85482C8.11776 4.83199 8.12302 4.81226 8.1268 4.80146L8.18671 4.61435L8.24663 4.80146C8.25025 4.8118 8.25432 4.83033 8.25906 4.85194C8.27051 4.90407 8.28589 4.97411 8.30831 4.99033C8.33132 5.00698 8.40533 4.99948 8.45837 4.9941C8.47845 4.99206 8.49553 4.99033 8.50569 4.99033H8.70307L8.5427 5.10684C8.53377 5.11368 8.51699 5.12351 8.49752 5.13492L8.49751 5.13492C8.4517 5.16176 8.39099 5.19733 8.38233 5.22334C8.37367 5.24938 8.40239 5.31374 8.42392 5.36197C8.43304 5.3824 8.44087 5.39994 8.44401 5.41045L8.50569 5.59932L8.34532 5.48282C8.33766 5.47695 8.32598 5.46647 8.3122 5.45412C8.27208 5.41816 8.21426 5.36632 8.18671 5.36632C8.1589 5.36632 8.09924 5.41915 8.05859 5.45515C8.04515 5.46705 8.03379 5.47712 8.02634 5.48282L7.86773 5.59932L7.92413 5.40162C7.9273 5.39104 7.93507 5.37315 7.9441 5.35233L7.94411 5.35232C7.9652 5.30374 7.99321 5.23923 7.98581 5.21451C7.9784 5.18976 7.91728 5.15373 7.87108 5.1265C7.85138 5.11489 7.83439 5.10487 7.82544 5.09801L7.66507 4.98151L7.86773 4.99033ZM7.9168 6.88814C7.89577 6.88611 7.8779 6.88438 7.86773 6.88438L7.67035 6.87731L7.83073 7.00088C7.83878 7.00657 7.85333 7.01482 7.87052 7.02456L7.87052 7.02456C7.91723 7.05103 7.98337 7.08851 7.9911 7.11561C7.99835 7.14105 7.97657 7.1914 7.95536 7.24046C7.94565 7.26291 7.93605 7.28509 7.92942 7.30449C7.91884 7.33538 7.90871 7.3667 7.89858 7.39803C7.88844 7.42937 7.87831 7.4607 7.86773 7.4916L8.02634 7.3751C8.03489 7.36905 8.04861 7.35697 8.06471 7.34278L8.06473 7.34277L8.06475 7.34275C8.10505 7.30724 8.16028 7.25859 8.18671 7.25859C8.21296 7.25859 8.26669 7.30654 8.3064 7.34198C8.32268 7.35651 8.33661 7.36894 8.34532 7.3751L8.50569 7.4916C8.48455 7.42982 8.45459 7.33979 8.44401 7.30449C8.44089 7.29406 8.43315 7.27639 8.42412 7.25576L8.42411 7.25575L8.42411 7.25574L8.4241 7.25572C8.40256 7.20652 8.37364 7.14048 8.38233 7.11561C8.39136 7.08978 8.457 7.05167 8.5033 7.02477L8.50333 7.02476C8.5203 7.0149 8.53467 7.00656 8.5427 7.00088L8.70307 6.88438H8.50569C8.49553 6.88438 8.47845 6.88597 8.45837 6.88785C8.40533 6.89282 8.33132 6.89974 8.30831 6.88438C8.28583 6.86936 8.27043 6.79937 8.25897 6.7473L8.25897 6.74729C8.25427 6.72591 8.25023 6.70755 8.24663 6.69727C8.23694 6.66549 8.22681 6.63416 8.21667 6.60283C8.20654 6.5715 8.19641 6.54016 8.18671 6.50839C8.17702 6.54016 8.16689 6.57149 8.15676 6.60282C8.14662 6.63415 8.13649 6.66549 8.1268 6.69727C8.12307 6.70793 8.1179 6.72713 8.1119 6.74938L8.11189 6.74944L8.11186 6.74955L8.11185 6.74957C8.09802 6.80093 8.07985 6.86838 8.06511 6.88438C8.04978 6.90102 7.97231 6.89352 7.9168 6.88814ZM7.86773 8.78018C7.8779 8.78018 7.89577 8.78191 7.9168 8.78395C7.97231 8.78932 8.04977 8.79683 8.06511 8.78018C8.07979 8.76426 8.09786 8.69648 8.11167 8.64469C8.11776 8.62185 8.12302 8.60211 8.1268 8.59131L8.18671 8.4042L8.24663 8.59131C8.25025 8.60165 8.25432 8.62018 8.25906 8.64179C8.27051 8.69392 8.28589 8.76396 8.30831 8.78018C8.33132 8.79683 8.40533 8.78932 8.45837 8.78395C8.47845 8.78191 8.49553 8.78018 8.50569 8.78018H8.70307L8.5427 8.89492C8.53377 8.90176 8.51699 8.91159 8.49752 8.923L8.49751 8.92301L8.4975 8.92301C8.45169 8.94985 8.39099 8.98541 8.38233 9.01142C8.37367 9.03746 8.40239 9.10182 8.42392 9.15005C8.43304 9.17048 8.44087 9.18802 8.44401 9.19853L8.50569 9.3874L8.34532 9.2709C8.33767 9.26504 8.326 9.25457 8.31224 9.24224L8.31222 9.24222L8.3122 9.2422C8.27208 9.20624 8.21426 9.1544 8.18671 9.1544C8.1589 9.1544 8.09924 9.20723 8.05859 9.24323C8.04515 9.25514 8.03379 9.2652 8.02634 9.2709L7.86773 9.3874L7.92413 9.19147C7.9273 9.18088 7.93507 9.16299 7.94411 9.14217C7.9652 9.09359 7.99321 9.02907 7.98581 9.00436C7.9784 8.97961 7.91728 8.94358 7.87108 8.91635L7.87106 8.91633C7.85137 8.90472 7.83439 8.89471 7.82544 8.88786L7.66507 8.77312L7.86773 8.78018ZM6.79951 2.14333C6.77943 2.1413 6.76235 2.13956 6.75219 2.13956L6.55481 2.13603L6.71342 2.25254C6.72115 2.2577 6.73391 2.26496 6.74897 2.27353L6.74901 2.27355L6.74901 2.27356C6.79571 2.30013 6.86446 2.33925 6.87379 2.36727C6.88298 2.3949 6.85107 2.46664 6.8291 2.51601C6.82159 2.53289 6.81525 2.54715 6.81211 2.55615L6.75219 2.74326L6.91079 2.62675C6.91935 2.62071 6.93308 2.60861 6.9492 2.59441C6.98951 2.5589 7.04473 2.51025 7.07117 2.51025C7.09741 2.51025 7.15113 2.55819 7.19085 2.59363L7.19085 2.59363L7.19086 2.59364L7.19087 2.59365L7.19087 2.59365C7.20715 2.60818 7.22107 2.6206 7.22977 2.62675L7.39015 2.74326C7.369 2.68148 7.34785 2.61793 7.32846 2.55615C7.32535 2.54724 7.31921 2.53305 7.31194 2.51625L7.31193 2.51624C7.29038 2.46644 7.25888 2.39367 7.26678 2.36727C7.27479 2.34055 7.34441 2.30067 7.39153 2.27368L7.39155 2.27366C7.40666 2.26501 7.41945 2.25768 7.42715 2.25254L7.58576 2.13603H7.38838C7.37822 2.13603 7.36101 2.13777 7.34077 2.1398C7.28732 2.14518 7.21273 2.15268 7.191 2.13603C7.16874 2.11898 7.15232 2.04249 7.14101 1.98982C7.1371 1.9716 7.1338 1.95623 7.13108 1.94716C7.10994 1.88361 7.09055 1.82183 7.07117 1.75829L7.00948 1.95069C7.00675 1.95981 7.00355 1.97527 6.99976 1.9936L6.99976 1.99363C6.98887 2.04629 6.97309 2.12254 6.94957 2.13956C6.92656 2.15621 6.85255 2.14871 6.79951 2.14333ZM6.75219 4.03537C6.76235 4.03537 6.77943 4.0371 6.79951 4.03914C6.85255 4.04451 6.92656 4.05202 6.94957 4.03537C6.97315 4.01831 6.98895 3.94268 6.99984 3.8905L6.99985 3.89048C7.0036 3.8725 7.00677 3.85731 7.00948 3.84826L7.07117 3.65939C7.09055 3.72293 7.10994 3.78471 7.13108 3.84826C7.13378 3.85726 7.13705 3.87246 7.14092 3.89046L7.14093 3.8905L7.14093 3.89051C7.15224 3.9431 7.16869 4.01959 7.191 4.03537C7.21273 4.05073 7.28732 4.04381 7.34077 4.03885C7.36101 4.03697 7.37822 4.03537 7.38838 4.03537H7.58576L7.42715 4.15011C7.41835 4.15648 7.40289 4.16557 7.38492 4.17613L7.38492 4.17613L7.38492 4.17614C7.33816 4.20363 7.27442 4.24111 7.26678 4.26661C7.25892 4.29285 7.29002 4.36397 7.31156 4.41324C7.319 4.43025 7.3253 4.44466 7.32846 4.45372C7.3439 4.50435 7.36047 4.55385 7.37726 4.60403L7.37727 4.60405L7.37728 4.60408L7.37729 4.6041L7.3773 4.60413L7.37731 4.60416L7.37732 4.60418L7.37732 4.60421L7.37733 4.60423L7.37734 4.60426L7.37735 4.60428L7.37736 4.60431L7.37737 4.60434L7.37738 4.60436L7.37738 4.60439L7.37739 4.60441L7.3774 4.60444L7.37741 4.60446L7.37742 4.60449L7.37743 4.60452L7.39015 4.64259L7.22977 4.52609C7.22212 4.52023 7.21043 4.50975 7.19665 4.4974C7.15654 4.46143 7.09871 4.40959 7.07117 4.40959C7.04335 4.40959 6.9837 4.46242 6.94305 4.49842C6.9296 4.51033 6.91824 4.52039 6.91079 4.52609L6.75219 4.64259C6.76188 4.61082 6.77201 4.57948 6.78215 4.54815C6.79228 4.51682 6.80241 4.48549 6.81211 4.45372C6.8153 4.44459 6.82179 4.43014 6.82945 4.4131L6.82945 4.4131C6.8514 4.36426 6.88293 4.29409 6.87379 4.26661C6.86487 4.23983 6.80171 4.20292 6.75537 4.17584C6.73755 4.16544 6.72222 4.15648 6.71342 4.15011L6.55481 4.03537H6.75219ZM6.79951 5.93465C6.77943 5.93277 6.76235 5.93118 6.75219 5.93118H6.55481L6.71342 6.04768C6.72073 6.05256 6.73254 6.05951 6.74653 6.06774L6.74655 6.06776C6.79326 6.09523 6.8643 6.13702 6.87379 6.16418C6.88294 6.19037 6.85135 6.26126 6.8294 6.31052L6.82939 6.31053C6.82176 6.32766 6.81529 6.34218 6.81211 6.35129C6.80241 6.38306 6.79228 6.41439 6.78215 6.44571L6.78214 6.44574C6.77201 6.47707 6.76188 6.5084 6.75219 6.54016L6.91079 6.42366C6.91824 6.41796 6.9296 6.4079 6.94305 6.39599C6.9837 6.35999 7.04335 6.30716 7.07117 6.30716C7.09871 6.30716 7.15653 6.359 7.19665 6.39496L7.19665 6.39497C7.21043 6.40732 7.22212 6.4178 7.22977 6.42366L7.39015 6.54016L7.37743 6.50209C7.36058 6.45175 7.34396 6.40208 7.32846 6.35129C7.3253 6.34223 7.319 6.32793 7.31156 6.31106L7.31155 6.31105L7.31154 6.31103L7.31153 6.31101L7.31151 6.31095L7.3115 6.31094C7.28996 6.26209 7.25893 6.19171 7.26678 6.16418C7.27486 6.13586 7.34567 6.09518 7.3928 6.06811L7.39282 6.0681L7.39287 6.06807L7.39292 6.06805L7.39301 6.06799C7.40748 6.05968 7.4197 6.05266 7.42715 6.04768L7.58576 5.93118H7.38838C7.37822 5.93118 7.36101 5.93291 7.34077 5.93494C7.28732 5.94032 7.21273 5.94782 7.191 5.93118C7.16874 5.91413 7.15232 5.83763 7.14101 5.78496C7.1371 5.76674 7.1338 5.75137 7.13108 5.7423C7.10994 5.67876 7.09055 5.61697 7.07117 5.55343L7.00948 5.7423C7.00675 5.75143 7.00355 5.76705 6.99975 5.78556C6.98886 5.83863 6.97309 5.91547 6.94957 5.93118C6.92656 5.94654 6.85255 5.93962 6.79951 5.93465ZM6.75219 7.82522C6.76235 7.82522 6.77943 7.82695 6.79951 7.82898C6.85255 7.83436 6.92656 7.84186 6.94957 7.82522C6.97315 7.80815 6.98895 7.73253 6.99984 7.68035L6.99985 7.68033L6.99986 7.68026C7.00361 7.66231 7.00678 7.64714 7.00948 7.63811C7.01859 7.61073 7.02738 7.58336 7.03611 7.55613L7.03612 7.55612L7.03612 7.55611L7.03612 7.5561L7.03613 7.55609L7.03613 7.55609L7.03613 7.55608L7.03613 7.55607L7.03614 7.55606L7.03614 7.55605L7.03614 7.55604L7.03615 7.55603L7.03615 7.55603L7.03615 7.55602L7.03615 7.55601L7.03616 7.556L7.03616 7.55599L7.03616 7.55598C7.04769 7.52004 7.05914 7.48435 7.07117 7.44923L7.08502 7.49358C7.09987 7.54124 7.11497 7.58967 7.13108 7.63811C7.13378 7.64712 7.13705 7.66233 7.14093 7.68034L7.14093 7.68035C7.15224 7.73295 7.16869 7.80944 7.191 7.82522C7.21273 7.84058 7.28732 7.83366 7.34077 7.82869C7.36101 7.82682 7.37822 7.82522 7.38838 7.82522H7.58576L7.42715 7.93995C7.41835 7.94632 7.40289 7.95542 7.38492 7.96598C7.33816 7.99347 7.27442 8.03095 7.26678 8.05646C7.2591 8.08211 7.28865 8.15066 7.31011 8.20043L7.31011 8.20044L7.31011 8.20046C7.31818 8.21916 7.3251 8.23521 7.32846 8.24533L7.34552 8.29746L7.34554 8.29751C7.35907 8.33908 7.37615 8.39156 7.39015 8.43244L7.22977 8.31594C7.22106 8.30978 7.20713 8.29735 7.19085 8.28282C7.15114 8.24738 7.09741 8.19944 7.07117 8.19944C7.04473 8.19944 6.98951 8.24808 6.9492 8.28359C6.93308 8.29779 6.91935 8.30989 6.91079 8.31594L6.75219 8.43244L6.81211 8.24533C6.81548 8.23519 6.82255 8.2191 6.83079 8.20035C6.85265 8.15059 6.88275 8.0821 6.87379 8.05646C6.86487 8.03095 6.80169 7.99347 6.75534 7.96597C6.73754 7.95541 6.72222 7.94632 6.71342 7.93995L6.55481 7.82522H6.75219ZM1.80069 8.91242L1.8007 8.91241L1.80074 8.91239C1.8202 8.90099 1.83696 8.89117 1.84589 8.88433L2.0045 8.76959H1.80712C1.79692 8.76959 1.7799 8.77133 1.75993 8.77338C1.70742 8.77875 1.63448 8.78622 1.6115 8.76959C1.58907 8.75337 1.57369 8.68333 1.56225 8.6312C1.5575 8.60959 1.55343 8.59106 1.54982 8.58072L1.4899 8.39361C1.47932 8.4245 1.46919 8.45583 1.45906 8.48716C1.44892 8.51849 1.43879 8.54982 1.42822 8.58072C1.42549 8.58983 1.42228 8.60531 1.41849 8.62365C1.4076 8.67632 1.39183 8.75257 1.3683 8.76959C1.34529 8.78623 1.27129 8.77873 1.21825 8.77336C1.19816 8.77132 1.18108 8.76959 1.17092 8.76959H0.973539L1.13391 8.88433C1.14278 8.89112 1.1592 8.901 1.17826 8.91246C1.2236 8.93974 1.28383 8.97597 1.29252 9.00083C1.30126 9.02584 1.27286 9.09159 1.25179 9.14036C1.24311 9.16044 1.23568 9.17764 1.2326 9.18794L1.21989 9.226L1.21987 9.22604L1.21987 9.22606L1.21986 9.22609L1.21985 9.22611L1.21985 9.22612C1.20301 9.27643 1.1864 9.32606 1.17092 9.37681L1.32953 9.26031C1.33697 9.25461 1.34833 9.24456 1.36176 9.23266L1.36178 9.23264C1.40243 9.19664 1.46209 9.14381 1.4899 9.14381C1.51745 9.14381 1.57527 9.19565 1.61538 9.23161C1.62916 9.24397 1.64085 9.25445 1.64851 9.26031L1.80888 9.37681L1.79617 9.33875C1.77932 9.28841 1.76269 9.23874 1.7472 9.18794C1.74401 9.17881 1.73751 9.16436 1.72986 9.14732C1.7079 9.09847 1.67637 9.02831 1.68552 9.00083C1.69417 8.97482 1.75488 8.93925 1.80069 8.91242ZM1.84589 6.99029C1.83785 6.99597 1.82347 7.00432 1.80649 7.01418C1.76018 7.04107 1.69454 7.07919 1.68552 7.10502C1.67631 7.13136 1.7083 7.20385 1.73026 7.25364C1.73774 7.2706 1.74406 7.28493 1.7472 7.2939C1.75302 7.31055 1.76237 7.33938 1.77284 7.37168L1.77284 7.37169C1.78457 7.40786 1.79771 7.44837 1.80888 7.48101L1.64851 7.3645C1.6398 7.35835 1.62587 7.34592 1.60959 7.33139L1.60958 7.33138C1.56987 7.29594 1.51615 7.248 1.4899 7.248C1.46346 7.248 1.40824 7.29665 1.36793 7.33216L1.36793 7.33216L1.36789 7.3322L1.36787 7.33222L1.36786 7.33223L1.36782 7.33226C1.35175 7.34641 1.33806 7.35847 1.32953 7.3645L1.17092 7.48101C1.1903 7.41923 1.21145 7.35568 1.2326 7.2939C1.23904 7.27508 1.24826 7.25364 1.25762 7.23188C1.279 7.18219 1.3011 7.1308 1.29252 7.10502C1.28344 7.07775 1.21809 7.03997 1.17224 7.01347L1.17224 7.01346C1.15577 7.00395 1.14183 6.99588 1.13391 6.99029L0.973539 6.87731H1.17092C1.18108 6.87731 1.19816 6.87905 1.21825 6.88108C1.27129 6.88646 1.34529 6.89396 1.3683 6.87731C1.39189 6.86025 1.40768 6.78462 1.41858 6.73245C1.42233 6.71446 1.42551 6.69926 1.42822 6.69021L1.4899 6.50133C1.49959 6.5331 1.50972 6.56444 1.51986 6.59577C1.52999 6.6271 1.54012 6.65843 1.54982 6.69021C1.55341 6.70049 1.55745 6.71885 1.56216 6.74024C1.57361 6.79231 1.58902 6.8623 1.6115 6.87731C1.63448 6.89266 1.70742 6.88577 1.75993 6.88081C1.7799 6.87892 1.79692 6.87731 1.80712 6.87731H2.0045L1.84589 6.99029ZM5.68073 3.09123C5.66049 3.0892 5.64328 3.08747 5.63311 3.08747L5.43573 3.09276L5.5961 3.20927C5.60416 3.21496 5.61871 3.22321 5.6359 3.23295C5.68261 3.25942 5.74874 3.2969 5.75647 3.324C5.76437 3.35169 5.73295 3.42368 5.71139 3.47306L5.71139 3.47308C5.70408 3.48981 5.69792 3.50394 5.69479 3.51288C5.68422 3.54377 5.67409 3.5751 5.66395 3.60643C5.65382 3.63776 5.64369 3.6691 5.63311 3.69999L5.79348 3.57819C5.80217 3.57205 5.8159 3.55967 5.83195 3.54519L5.83196 3.54519C5.87127 3.50974 5.92456 3.46169 5.95209 3.46169C5.97981 3.46169 6.03456 3.51042 6.07447 3.54593C6.09038 3.56009 6.10393 3.57215 6.11246 3.57819L6.27107 3.69469C6.25169 3.63291 6.23054 3.56936 6.20939 3.50758C6.20627 3.49715 6.19853 3.47948 6.1895 3.45885L6.18949 3.45885L6.18949 3.45884L6.18949 3.45884L6.18949 3.45883L6.18948 3.45883L6.18948 3.45882L6.18948 3.45881L6.18947 3.45881C6.16793 3.4096 6.13902 3.34357 6.14771 3.31871C6.15674 3.29288 6.22237 3.25476 6.26868 3.22787C6.28566 3.21801 6.30004 3.20965 6.30808 3.20397L6.46845 3.08747H6.27107C6.26091 3.08747 6.2437 3.08907 6.22346 3.09094C6.17 3.09591 6.09542 3.10283 6.07369 3.08747C6.05138 3.07169 6.03493 2.9952 6.02362 2.9426L6.02362 2.9426L6.02361 2.94256C6.01974 2.92456 6.01647 2.90936 6.01377 2.90036L5.95209 2.71148C5.94241 2.74321 5.93229 2.7745 5.92217 2.80579L5.92216 2.80585L5.92213 2.80592C5.912 2.83725 5.90187 2.86859 5.89217 2.90036C5.88856 2.91069 5.88435 2.92904 5.87944 2.95039C5.86759 3.00202 5.85168 3.07124 5.83049 3.08747C5.80876 3.10411 5.73418 3.09661 5.68073 3.09124L5.68073 3.09123ZM5.63311 4.98327C5.64328 4.98327 5.66049 4.985 5.68073 4.98704C5.73418 4.99242 5.80876 4.99992 5.83049 4.98327C5.85163 4.96708 5.86751 4.89728 5.87936 4.84519C5.8843 4.82345 5.88854 4.80479 5.89217 4.7944L5.95209 4.60729C5.96267 4.63818 5.9728 4.66951 5.98293 4.70084L5.98296 4.70092C5.99308 4.73223 6.00321 4.76353 6.01377 4.7944C6.02132 4.81646 6.0273 4.84392 6.03323 4.87115C6.04391 4.9202 6.05443 4.96852 6.07369 4.98327C6.09542 4.99992 6.17 4.99242 6.22346 4.98704C6.2437 4.985 6.26091 4.98327 6.27107 4.98327H6.46845L6.30808 5.09978C6.29914 5.10662 6.28236 5.11645 6.26288 5.12787C6.21708 5.1547 6.15637 5.19027 6.14771 5.21628C6.13904 5.24232 6.16777 5.30668 6.1893 5.35491C6.19842 5.37534 6.20624 5.39288 6.20939 5.40339L6.22211 5.44146C6.23896 5.4918 6.25558 5.54147 6.27107 5.59226L6.11246 5.47576C6.10499 5.47004 6.09368 5.45992 6.08031 5.44796L6.08029 5.44794L6.08028 5.44793L6.08023 5.44789L6.08022 5.44787L6.08021 5.44787C6.03998 5.41187 5.98117 5.35926 5.95209 5.35926C5.92328 5.35926 5.86623 5.41093 5.82654 5.44689C5.81282 5.45932 5.80118 5.46987 5.79348 5.47576L5.63311 5.59226L5.69479 5.40339C5.69796 5.39433 5.70426 5.37992 5.7117 5.36291C5.73324 5.31363 5.76434 5.24252 5.75647 5.21628C5.74906 5.19153 5.68795 5.1555 5.64175 5.12826C5.62205 5.11665 5.60506 5.10664 5.5961 5.09978L5.43573 4.98327H5.63311ZM5.68073 6.88108C5.66049 6.87905 5.64328 6.87731 5.63311 6.87731H5.4375L5.5961 6.99382C5.60416 6.99951 5.6187 7.00775 5.63587 7.01748L5.63589 7.0175C5.68261 7.04397 5.74874 7.08145 5.75648 7.10855C5.76373 7.13399 5.74195 7.18434 5.72073 7.2334L5.72073 7.23341C5.71102 7.25586 5.70143 7.27804 5.69479 7.29743C5.68422 7.32832 5.67409 7.35964 5.66396 7.39097C5.65382 7.42231 5.64369 7.45364 5.63311 7.48454L5.79348 7.36804C5.80217 7.36189 5.8159 7.34952 5.83195 7.33504C5.87127 7.29959 5.92456 7.25153 5.95209 7.25153C5.97981 7.25153 6.03456 7.30026 6.07447 7.33578C6.09038 7.34994 6.10393 7.362 6.11246 7.36804L6.27107 7.48454C6.26118 7.45302 6.24808 7.41415 6.23622 7.37895C6.22482 7.34514 6.21457 7.31472 6.20939 7.29743C6.20627 7.287 6.19853 7.26933 6.1895 7.2487C6.16795 7.19949 6.13902 7.13343 6.14771 7.10855C6.15674 7.08272 6.22237 7.0446 6.26868 7.01771C6.28566 7.00785 6.30004 6.9995 6.30808 6.99382L6.46845 6.87731H6.27107C6.26091 6.87731 6.2437 6.87891 6.22346 6.88079C6.17 6.88575 6.09542 6.89268 6.07369 6.87731C6.05138 6.86154 6.03493 6.78505 6.02362 6.73245L6.02362 6.73244C6.01974 6.71442 6.01647 6.69921 6.01377 6.69021L5.95209 6.50133C5.9424 6.5331 5.93227 6.56443 5.92214 6.59576C5.912 6.62709 5.90187 6.65843 5.89217 6.69021C5.88856 6.70054 5.88435 6.71888 5.87944 6.74024C5.86759 6.79186 5.85168 6.86108 5.83049 6.87731C5.80876 6.89396 5.73418 6.88646 5.68073 6.88108ZM5.63311 8.77312C5.64328 8.77312 5.66049 8.77485 5.68073 8.77689H5.68074C5.73419 8.78226 5.80876 8.78976 5.83049 8.77312C5.85163 8.75693 5.86751 8.68713 5.87936 8.63503C5.8843 8.61329 5.88854 8.59464 5.89217 8.58425L5.95209 8.39714C5.96267 8.42803 5.9728 8.45936 5.98293 8.49069L5.98296 8.49077C5.99308 8.52207 6.00321 8.55338 6.01377 8.58425C6.01649 8.59332 6.01979 8.60869 6.0237 8.6269C6.03501 8.67957 6.05143 8.75607 6.07369 8.77312C6.09542 8.78976 6.17 8.78226 6.22345 8.77689H6.22346C6.2437 8.77485 6.26091 8.77312 6.27107 8.77312H6.46845L6.30808 8.88786C6.29914 8.8947 6.28237 8.90453 6.2629 8.91594L6.26288 8.91595C6.21708 8.94278 6.15637 8.97835 6.14771 9.00436C6.13904 9.0304 6.16777 9.09476 6.1893 9.14299C6.19842 9.16343 6.20624 9.18096 6.20939 9.19147L6.2221 9.22953C6.23895 9.27987 6.25558 9.32955 6.27107 9.38034L6.11246 9.26384C6.10497 9.2581 6.09362 9.24795 6.08021 9.23595C6.03998 9.19995 5.98117 9.14734 5.95209 9.14734C5.92328 9.14734 5.86623 9.19902 5.82654 9.23498L5.82652 9.23499L5.8265 9.23501C5.8128 9.24742 5.80117 9.25795 5.79348 9.26384L5.63311 9.38034L5.69479 9.19147C5.69796 9.18241 5.70426 9.168 5.7117 9.15099C5.73324 9.10172 5.76434 9.0306 5.75647 9.00436C5.74906 8.97961 5.68795 8.94358 5.64175 8.91635C5.62205 8.90473 5.60506 8.89472 5.5961 8.88786C5.56614 8.86491 5.49036 8.81019 5.43573 8.77312H5.63311ZM4.56694 2.14333C4.5467 2.1413 4.52949 2.13956 4.51933 2.13956L4.32195 2.13603L4.48232 2.25254C4.49023 2.25813 4.50418 2.26619 4.52064 2.27571L4.52065 2.27572C4.56649 2.30222 4.63185 2.34 4.64093 2.36727C4.64971 2.39366 4.62099 2.46028 4.59989 2.50923L4.59989 2.50924L4.59988 2.50926C4.59134 2.52907 4.58405 2.54598 4.58101 2.55615C4.55986 2.61793 4.53871 2.68148 4.51933 2.74326L4.67794 2.62675C4.68649 2.62071 4.70022 2.60861 4.71634 2.59441C4.75665 2.5589 4.81187 2.51025 4.83831 2.51025C4.86455 2.51025 4.91828 2.5582 4.95799 2.59363C4.97427 2.60817 4.9882 2.6206 4.99691 2.62675L5.15729 2.74326C5.14671 2.71237 5.13658 2.68103 5.12645 2.6497L5.12642 2.64963C5.1163 2.61832 5.10617 2.58701 5.0956 2.55615C5.09247 2.54718 5.08616 2.53287 5.07868 2.51592L5.07867 2.51589C5.0567 2.4661 5.02472 2.39361 5.03392 2.36727C5.04295 2.34144 5.10859 2.30332 5.15489 2.27643L5.15491 2.27643C5.17188 2.26657 5.18626 2.25822 5.19429 2.25254L5.35467 2.13603H5.15729C5.14712 2.13603 5.13005 2.13777 5.10997 2.1398L5.10996 2.1398C5.05692 2.14518 4.98292 2.15268 4.95991 2.13603C4.93748 2.11981 4.9221 2.04977 4.91065 1.99764C4.90591 1.97603 4.90184 1.9575 4.89822 1.94716C4.88853 1.91539 4.8784 1.88405 4.86827 1.85272C4.85813 1.82139 4.848 1.79006 4.83831 1.75829L4.77663 1.95069C4.77391 1.95976 4.77061 1.97513 4.7667 1.99335C4.75539 2.04602 4.73897 2.12251 4.71671 2.13956C4.69498 2.15621 4.62039 2.14871 4.56694 2.14333ZM4.51933 4.03537C4.52949 4.03537 4.5467 4.0371 4.56694 4.03914L4.56695 4.03914C4.6204 4.04451 4.69498 4.05201 4.71671 4.03537C4.73903 4.01827 4.75548 3.94236 4.7668 3.89017C4.77066 3.87233 4.77393 3.85726 4.77663 3.84826L4.83831 3.65939C4.848 3.69116 4.85813 3.72249 4.86827 3.75383C4.8784 3.78516 4.88853 3.81649 4.89822 3.84826C4.90182 3.85854 4.90586 3.87689 4.91056 3.89827L4.91056 3.89829L4.91056 3.89829L4.91056 3.8983C4.92202 3.95036 4.93742 4.02036 4.95991 4.03537C4.98292 4.05073 5.05692 4.04381 5.10996 4.03885C5.13004 4.03697 5.14712 4.03537 5.15729 4.03537H5.35467L5.19429 4.15011C5.18531 4.15699 5.16841 4.16704 5.14881 4.1787L5.14881 4.1787C5.10304 4.20592 5.04256 4.24189 5.03392 4.26661C5.02477 4.2928 5.05636 4.36369 5.07831 4.41295C5.08595 4.43009 5.09242 4.44461 5.0956 4.45372L5.15729 4.64259L4.99691 4.52609C4.98926 4.52023 4.97757 4.50975 4.9638 4.4974L4.96379 4.4974L4.96379 4.49739L4.96378 4.49738C4.92366 4.46142 4.86585 4.40959 4.83831 4.40959C4.81049 4.40959 4.75083 4.46242 4.71018 4.49842L4.71018 4.49843C4.69674 4.51033 4.68538 4.52039 4.67794 4.52609L4.51933 4.64259C4.53482 4.59182 4.55143 4.54217 4.56827 4.49185L4.56828 4.49181L4.58101 4.45372C4.58409 4.44344 4.5915 4.42643 4.60015 4.40656L4.60015 4.40656C4.62123 4.35818 4.64967 4.29289 4.64093 4.26661C4.63223 4.24046 4.5718 4.20466 4.52643 4.17778C4.50747 4.16654 4.49115 4.15687 4.48232 4.15011C4.46677 4.1382 4.43841 4.11821 4.40733 4.0963L4.40729 4.09628C4.37849 4.07598 4.34737 4.05404 4.32195 4.03537H4.51933ZM4.56694 5.93465C4.5467 5.93277 4.52949 5.93118 4.51933 5.93118H4.32195L4.48232 6.04768C4.48994 6.05307 4.50314 6.06096 4.5188 6.07033L4.51884 6.07035L4.51887 6.07037L4.51889 6.07038C4.5648 6.09784 4.63173 6.13787 4.64093 6.16418C4.64966 6.18919 4.62126 6.25494 4.6002 6.30371C4.59152 6.32379 4.58409 6.34099 4.58101 6.35129L4.56829 6.38937L4.56828 6.3894L4.56827 6.38942L4.56826 6.38945L4.56825 6.38947L4.56824 6.3895L4.56824 6.38953L4.56823 6.38955L4.56822 6.38958C4.5514 6.43985 4.5348 6.48944 4.51933 6.54016L4.67794 6.42366C4.68538 6.41796 4.69674 6.4079 4.71019 6.39599C4.75084 6.35999 4.81049 6.30716 4.83831 6.30716C4.86585 6.30716 4.92368 6.359 4.96379 6.39497C4.97757 6.40732 4.98926 6.4178 4.99691 6.42366L5.15729 6.54016L5.0956 6.35129C5.09241 6.34216 5.08592 6.32771 5.07826 6.31067C5.05631 6.26183 5.02478 6.19166 5.03392 6.16418C5.04304 6.13679 5.10991 6.09782 5.15628 6.0708L5.15629 6.07079C5.17266 6.06126 5.18648 6.05321 5.19429 6.04768L5.35467 5.93118H5.15729C5.14712 5.93118 5.13004 5.93291 5.10996 5.93494C5.05692 5.94032 4.98292 5.94782 4.95991 5.93118C4.93748 5.91495 4.9221 5.84491 4.91065 5.79278C4.90591 5.77118 4.90184 5.75265 4.89822 5.7423C4.88853 5.71053 4.8784 5.6792 4.86827 5.64787C4.85813 5.61653 4.848 5.5852 4.83831 5.55343L4.77663 5.7423C4.7739 5.75139 4.7706 5.7669 4.76668 5.78528C4.75538 5.83837 4.73896 5.91544 4.71671 5.93118C4.69498 5.94654 4.62039 5.93962 4.56694 5.93465ZM4.51933 7.82522C4.52949 7.82522 4.5467 7.82695 4.56694 7.82898C4.62039 7.83436 4.69498 7.84186 4.71671 7.82522C4.73903 7.80812 4.75548 7.73221 4.7668 7.68002C4.77066 7.66218 4.77393 7.6471 4.77663 7.63811C4.78573 7.61074 4.79452 7.58337 4.80325 7.55613L4.80328 7.55606C4.81482 7.5201 4.82628 7.48438 4.83831 7.44923C4.84614 7.47419 4.85426 7.49944 4.86243 7.52486L4.86244 7.52488L4.86244 7.5249L4.86245 7.52491L4.86246 7.52493L4.86246 7.52495L4.86247 7.52497C4.87452 7.56243 4.88668 7.60027 4.89822 7.63811C4.90182 7.64839 4.90586 7.66675 4.91056 7.68814L4.91056 7.68815C4.92202 7.74021 4.93742 7.8102 4.95991 7.82522C4.98292 7.84058 5.05692 7.83366 5.10996 7.82869C5.13004 7.82682 5.14712 7.82522 5.15729 7.82522H5.35467L5.19429 7.93995C5.18531 7.94683 5.16841 7.95689 5.14881 7.96855C5.10304 7.99577 5.04256 8.03174 5.03392 8.05646C5.02496 8.0821 5.05506 8.15059 5.07692 8.20035C5.08516 8.2191 5.09223 8.23519 5.0956 8.24533L5.11266 8.29746L5.11268 8.29751C5.12621 8.33908 5.14329 8.39156 5.15729 8.43244L4.99691 8.31594C4.9882 8.30978 4.97428 8.29735 4.95799 8.28282C4.91828 8.24738 4.86455 8.19944 4.83831 8.19944C4.81187 8.19944 4.75665 8.24808 4.71634 8.2836L4.71632 8.28361L4.7163 8.28362C4.7002 8.29781 4.68649 8.30989 4.67794 8.31594L4.51933 8.43244C4.53871 8.37066 4.55986 8.30711 4.58101 8.24533C4.58743 8.22657 4.59661 8.20504 4.60595 8.18317C4.62734 8.13301 4.64952 8.08104 4.64093 8.05646C4.63224 8.0316 4.57201 7.99537 4.52667 7.96809C4.50761 7.95663 4.49118 7.94674 4.48232 7.93995C4.46676 7.92804 4.43838 7.90804 4.40729 7.88612L4.40724 7.88609C4.37846 7.8658 4.34735 7.84388 4.32195 7.82522H4.51933ZM3.4511 3.09123H3.4511C3.43102 3.0892 3.41394 3.08747 3.40378 3.08747L3.21345 3.09276L3.37206 3.20927C3.38011 3.21496 3.39452 3.2232 3.41153 3.23292L3.41153 3.23292C3.45783 3.2594 3.52341 3.29689 3.53243 3.324C3.54162 3.35163 3.50971 3.42337 3.48774 3.47274L3.48774 3.47275C3.48023 3.48962 3.47389 3.50388 3.47075 3.51288C3.45136 3.57466 3.43021 3.6382 3.40907 3.69999L3.56944 3.58348C3.57812 3.57734 3.59185 3.56496 3.60791 3.55048C3.64723 3.51503 3.70052 3.46698 3.72804 3.46698C3.75577 3.46698 3.81051 3.51571 3.85042 3.55123C3.86633 3.56539 3.87988 3.57745 3.88842 3.58348L4.04702 3.69999L3.98006 3.50758C3.97694 3.49867 3.9708 3.48448 3.96353 3.46767C3.94197 3.41787 3.91047 3.3451 3.91838 3.31871C3.92638 3.29198 3.996 3.2521 4.04312 3.22511C4.05824 3.21645 4.07104 3.20912 4.07875 3.20397L4.23736 3.08747H4.03998C4.02981 3.08747 4.0126 3.08907 3.99236 3.09094C3.93891 3.09591 3.86433 3.10283 3.8426 3.08747C3.82028 3.07169 3.80383 2.9952 3.79252 2.94261L3.79252 2.9426L3.79252 2.9426L3.79252 2.94259C3.78865 2.92458 3.78537 2.90937 3.78268 2.90036L3.721 2.71148C3.7113 2.74326 3.70117 2.77459 3.69104 2.80592L3.69103 2.80593C3.6809 2.83726 3.67077 2.86859 3.66108 2.90036C3.65837 2.9094 3.6552 2.92459 3.65144 2.94256L3.65144 2.94259L3.65143 2.9426L3.65143 2.94261C3.64054 2.99478 3.62475 3.0704 3.60116 3.08747C3.57815 3.10411 3.50415 3.09661 3.45111 3.09124L3.4511 3.09123ZM3.40378 4.98327C3.41394 4.98327 3.43102 4.985 3.45111 4.98704C3.50414 4.99242 3.57815 4.99992 3.60116 4.98327C3.62469 4.96625 3.64046 4.89 3.65135 4.83734L3.65135 4.83732C3.65515 4.81899 3.65835 4.80352 3.66108 4.7944L3.721 4.60729C3.73157 4.63817 3.74169 4.66949 3.75182 4.70081L3.75184 4.70084L3.75185 4.70088C3.76198 4.7322 3.77211 4.76352 3.78268 4.7944C3.79023 4.81646 3.79621 4.84392 3.80213 4.87115C3.81281 4.9202 3.82333 4.96852 3.8426 4.98327C3.86433 4.99992 3.93891 4.99242 3.99236 4.98704C4.0126 4.985 4.02981 4.98327 4.03998 4.98327H4.23736L4.07875 5.09978C4.06995 5.10614 4.05451 5.11508 4.03656 5.12548L4.03653 5.12549L4.03652 5.1255L4.0365 5.12551L4.03649 5.12552C3.98973 5.1526 3.92601 5.1895 3.91838 5.21628C3.91052 5.24381 3.94155 5.31418 3.9631 5.36304L3.9631 5.36304C3.97056 5.37996 3.97688 5.3943 3.98006 5.40339C3.98975 5.43516 3.99988 5.46649 4.01002 5.49782C4.02015 5.52916 4.03028 5.56049 4.03998 5.59226L3.88137 5.47576C3.87388 5.47002 3.86253 5.45987 3.84912 5.44787L3.84911 5.44787L3.84911 5.44786C3.80888 5.41187 3.75007 5.35926 3.721 5.35926C3.69218 5.35926 3.63514 5.41093 3.59544 5.44689C3.58172 5.45932 3.57008 5.46987 3.56239 5.47576L3.40202 5.59226L3.41473 5.5542C3.43158 5.50385 3.4482 5.45418 3.4637 5.40339C3.46688 5.39428 3.47335 5.37976 3.48099 5.36262C3.50294 5.31336 3.53453 5.24247 3.52538 5.21628C3.51674 5.19156 3.45627 5.15559 3.4105 5.12837C3.3909 5.11671 3.37399 5.10666 3.36501 5.09978L3.2064 4.98327H3.40378ZM3.4511 6.88108C3.43102 6.87905 3.41394 6.87731 3.40378 6.87731H3.21345L3.37206 6.99382C3.38011 6.99951 3.39452 7.00775 3.41153 7.01748C3.45783 7.04395 3.52341 7.08144 3.53243 7.10855C3.54053 7.1329 3.51974 7.18009 3.49903 7.22712L3.49903 7.22712C3.4882 7.2517 3.4774 7.27623 3.47075 7.29743C3.45136 7.35921 3.43021 7.42276 3.40907 7.48454L3.56944 7.36804C3.57812 7.36189 3.59185 7.34952 3.60791 7.33504C3.64722 7.29959 3.70052 7.25153 3.72804 7.25153C3.75577 7.25153 3.81052 7.30026 3.85042 7.33578C3.86633 7.34994 3.87988 7.362 3.88842 7.36804L4.04702 7.48454L3.98006 7.29743C3.97694 7.28852 3.9708 7.27433 3.96353 7.25752C3.94197 7.20772 3.91047 7.13495 3.91838 7.10855C3.92638 7.08183 3.996 7.04195 4.04312 7.01496C4.05824 7.0063 4.07104 6.99896 4.07875 6.99382L4.23736 6.87731H4.03998C4.02981 6.87731 4.0126 6.87891 3.99236 6.88079C3.93891 6.88575 3.86433 6.89268 3.8426 6.87731C3.82028 6.86154 3.80383 6.78505 3.79252 6.73245L3.79252 6.73244L3.79251 6.73239L3.7925 6.73237L3.7925 6.73235C3.78863 6.71437 3.78537 6.6992 3.78268 6.69021L3.721 6.50133C3.7113 6.5331 3.70117 6.56443 3.69104 6.59576C3.6809 6.6271 3.67077 6.65843 3.66108 6.69021C3.65837 6.69926 3.65519 6.71446 3.65143 6.73245C3.64054 6.78463 3.62475 6.86025 3.60116 6.87731C3.57815 6.89396 3.50414 6.88646 3.4511 6.88108ZM2.96144 7.93642C2.95245 7.9433 2.93555 7.95336 2.91595 7.96502C2.87018 7.99224 2.8097 8.02821 2.80106 8.05293C2.79256 8.07727 2.82008 8.14021 2.84145 8.1891C2.85108 8.21112 2.85946 8.23029 2.86275 8.2418C2.87332 8.27887 2.90328 8.36713 2.92443 8.42891L2.76582 8.31241C2.75597 8.30583 2.74051 8.2921 2.72271 8.2763C2.6832 8.24121 2.63218 8.19591 2.60545 8.19591C2.57792 8.19591 2.52463 8.24396 2.48531 8.27941L2.4853 8.27942C2.46925 8.29389 2.45552 8.30627 2.44684 8.31241L2.28647 8.42891C2.29704 8.39802 2.30718 8.36668 2.31731 8.33535C2.32744 8.30402 2.33757 8.27269 2.34815 8.2418C2.35477 8.22244 2.36434 8.20014 2.37403 8.17755C2.39527 8.12805 2.41709 8.07717 2.40983 8.05293C2.4025 8.02845 2.34518 7.99464 2.29897 7.96737C2.27853 7.95532 2.26027 7.94454 2.24946 7.93642L2.08909 7.82169H2.28471C2.29487 7.82169 2.31275 7.82342 2.33377 7.82545C2.38928 7.83083 2.46675 7.83833 2.48208 7.82169C2.49682 7.80569 2.51499 7.73824 2.52882 7.68689C2.53483 7.66456 2.54003 7.64527 2.54377 7.63458C2.55532 7.59671 2.5675 7.55884 2.57955 7.52135L2.57956 7.52133L2.57959 7.52122C2.58776 7.49584 2.59586 7.47063 2.60368 7.4457C2.61151 7.47063 2.61961 7.49584 2.62778 7.52122L2.62781 7.52133L2.62782 7.52135C2.63987 7.55884 2.65205 7.59671 2.6636 7.63458C2.6672 7.64486 2.67124 7.66322 2.67594 7.68462C2.6874 7.73668 2.7028 7.80667 2.72529 7.82169C2.74829 7.83705 2.8223 7.83013 2.87534 7.82516C2.89542 7.82328 2.9125 7.82169 2.92266 7.82169H3.12004L2.96144 7.93642ZM2.92343 6.0655L2.92343 6.0655L2.92345 6.06549C2.93981 6.05595 2.95362 6.04791 2.96144 6.04238L3.12004 5.92765H2.92266C2.9125 5.92765 2.89542 5.92938 2.87534 5.93141C2.8223 5.93679 2.74829 5.94429 2.72529 5.92765C2.70286 5.91142 2.68748 5.84138 2.67603 5.78925C2.67129 5.76765 2.66722 5.74912 2.6636 5.73877C2.65391 5.707 2.64378 5.67567 2.63364 5.64433C2.62351 5.613 2.61338 5.58167 2.60368 5.5499C2.59399 5.58167 2.58386 5.613 2.57373 5.64433C2.56359 5.67567 2.55346 5.707 2.54377 5.73877C2.54 5.74954 2.53476 5.76935 2.5287 5.79228C2.51488 5.84451 2.49678 5.91293 2.48208 5.92765C2.46675 5.94301 2.38928 5.93609 2.33377 5.93112C2.31275 5.92924 2.29487 5.92765 2.28471 5.92765H2.08909L2.24946 6.04415C2.25727 6.04967 2.27117 6.05782 2.28766 6.06749C2.33445 6.09493 2.40201 6.13455 2.40983 6.16065C2.41723 6.18537 2.38922 6.24988 2.36813 6.29846C2.35909 6.31928 2.35132 6.33717 2.34815 6.34776L2.28647 6.53487C2.30927 6.51812 2.33665 6.49842 2.36283 6.47959L2.36291 6.47954L2.36302 6.47946C2.39748 6.45467 2.42983 6.4314 2.44684 6.41837C2.45453 6.41247 2.46618 6.40193 2.47989 6.3895C2.51959 6.35354 2.57663 6.30187 2.60545 6.30187C2.6333 6.30187 2.68755 6.35016 2.72764 6.38587C2.74335 6.39985 2.75689 6.41191 2.76582 6.41837L2.92443 6.53487L2.86275 6.34599C2.8596 6.33549 2.85177 6.31795 2.84265 6.29752C2.82113 6.24929 2.7924 6.18492 2.80106 6.15889C2.81018 6.13149 2.87705 6.09252 2.92343 6.0655ZM2.96144 4.14658C2.95245 4.15346 2.93555 4.16351 2.91595 4.17517C2.87018 4.20239 2.8097 4.23836 2.80106 4.26308C2.79241 4.28785 2.82107 4.35261 2.84259 4.40124C2.85174 4.42191 2.85959 4.43966 2.86275 4.45019L2.92443 4.63906L2.76582 4.52256C2.75689 4.5161 2.74335 4.50405 2.72765 4.49006L2.72764 4.49006C2.68755 4.45436 2.6333 4.40606 2.60545 4.40606C2.57663 4.40606 2.51959 4.45774 2.47989 4.4937C2.46618 4.50612 2.45453 4.51667 2.44684 4.52256L2.28647 4.63906L2.34815 4.45019C2.35131 4.43963 2.35905 4.42196 2.36806 4.40139L2.36806 4.40138C2.38916 4.35318 2.41724 4.28906 2.40983 4.26308C2.4024 4.23704 2.34106 4.20142 2.29483 4.17458L2.29483 4.17457C2.27524 4.1632 2.25837 4.1534 2.24946 4.14658L2.08909 4.03184H2.28471C2.29487 4.03184 2.31275 4.03357 2.33377 4.03561L2.33377 4.03561C2.38929 4.04098 2.46675 4.04848 2.48208 4.03184C2.49682 4.01585 2.51499 3.9484 2.52882 3.89704L2.52882 3.89704C2.53483 3.87471 2.54003 3.85543 2.54377 3.84473C2.55346 3.81296 2.56359 3.78163 2.57373 3.75029C2.58386 3.71896 2.59399 3.68763 2.60368 3.65586C2.61338 3.68763 2.62351 3.71896 2.63364 3.75029C2.64378 3.78163 2.65391 3.81296 2.6636 3.84473C2.6672 3.85501 2.67124 3.87338 2.67594 3.89477C2.6874 3.94683 2.7028 4.01683 2.72529 4.03184C2.74829 4.0472 2.8223 4.04028 2.87534 4.03532C2.89542 4.03344 2.9125 4.03184 2.92266 4.03184H3.12004L2.96144 4.14658ZM3.2064 8.76959L3.36501 8.88433V8.88786C3.37436 8.89502 3.39229 8.90527 3.4129 8.91707C3.45836 8.94307 3.51689 8.97654 3.52538 9.00083C3.53453 9.02702 3.50294 9.09791 3.48099 9.14717C3.47335 9.16431 3.46688 9.17883 3.4637 9.18794C3.4482 9.23874 3.43158 9.28841 3.41473 9.33876C3.4105 9.35139 3.40626 9.36407 3.40202 9.37681L3.56239 9.26031C3.57008 9.25442 3.58172 9.24387 3.59544 9.23145C3.63514 9.19549 3.69218 9.14381 3.721 9.14381C3.75007 9.14381 3.80888 9.19642 3.84911 9.23242C3.86253 9.24442 3.87388 9.25457 3.88137 9.26031L4.03998 9.37681C4.03028 9.34504 4.02015 9.31371 4.01002 9.28238C3.99988 9.25104 3.98975 9.21971 3.98006 9.18794C3.97688 9.17885 3.97056 9.16451 3.9631 9.14759C3.94155 9.09873 3.91052 9.02836 3.91838 9.00083C3.92601 8.97406 3.98973 8.93715 4.03649 8.91007C4.05447 8.89966 4.06994 8.8907 4.07875 8.88433L4.23736 8.76959H4.03998C4.02981 8.76959 4.0126 8.77132 3.99236 8.77336C3.93891 8.77873 3.86433 8.78623 3.8426 8.76959C3.82034 8.75254 3.80391 8.67604 3.7926 8.62337C3.78869 8.60515 3.78539 8.58979 3.78268 8.58072C3.7721 8.54982 3.76197 8.51849 3.75184 8.48716C3.7417 8.45583 3.73157 8.4245 3.721 8.39361L3.66108 8.58072C3.65835 8.58983 3.65514 8.60531 3.65135 8.62365C3.64046 8.67632 3.62469 8.75257 3.60116 8.76959C3.57815 8.78623 3.50414 8.77873 3.45111 8.77336C3.43102 8.77132 3.41394 8.76959 3.40378 8.76959H3.2064Z" fill="#0437A0"/>
    <path fill-rule="evenodd" clip-rule="evenodd" d="M1.29252 5.2145C1.30486 5.24981 1.24318 5.36631 1.2326 5.40161C1.21145 5.46516 1.19031 5.52694 1.17092 5.59049L1.32953 5.47398C1.35949 5.45104 1.45113 5.35748 1.4899 5.35748C1.52867 5.35748 1.61855 5.45104 1.64851 5.47398L1.80888 5.59049C1.78773 5.52694 1.76659 5.46516 1.7472 5.40161C1.73486 5.36631 1.67318 5.24981 1.68552 5.2145C1.69785 5.1792 1.81593 5.12095 1.84589 5.098L2.0045 4.9815H1.80712C1.77011 4.9815 1.64146 5.00445 1.6115 4.9815C1.58154 4.95855 1.56216 4.82793 1.54982 4.79262L1.53396 4.74496C1.44761 4.89501 1.35773 5.04858 1.28723 5.20215C1.289 5.20744 1.29252 5.21097 1.29252 5.2145Z" fill="#F4F4F4"/>
    <path fill-rule="evenodd" clip-rule="evenodd" d="M5.89393 1.00457C5.8816 1.03988 5.86397 1.1705 5.83225 1.19345C5.80053 1.21639 5.67188 1.19345 5.63487 1.19345H5.43749L5.59786 1.30995C5.62782 1.33113 5.7459 1.38938 5.75823 1.42645C5.77057 1.46352 5.70889 1.57826 5.69655 1.61356L5.63311 1.80067L5.79348 1.68417C5.82344 1.66122 5.91508 1.56767 5.95209 1.56767C5.9891 1.56767 6.0825 1.66122 6.11246 1.68417L6.27107 1.80067C6.25168 1.73712 6.23054 1.67534 6.20939 1.61179C6.19881 1.57649 6.13713 1.45999 6.14771 1.42469C6.15828 1.38938 6.27812 1.32937 6.30808 1.30818L6.46845 1.19168H6.27283C6.23582 1.19168 6.0966 1.21286 6.07545 1.19168C6.0543 1.1705 6.02611 1.03811 6.01553 1.00281L5.98557 0.93573L5.89746 0.969268L5.89393 1.00457Z" fill="#F4F4F4"/>
    <path fill-rule="evenodd" clip-rule="evenodd" d="M0.532961 8.31595L0.69157 8.43245C0.672185 8.37067 0.651037 8.30712 0.629889 8.24534C0.608741 8.18356 0.557634 8.09177 0.56997 8.05647C0.582306 8.02117 0.698619 7.96291 0.728579 7.93997C0.758538 7.91702 0.83608 7.86406 0.88895 7.82523H0.698619C0.661611 7.82523 0.531199 7.84818 0.50124 7.82523C0.482417 7.80725 0.468468 7.78478 0.460706 7.75992C0.436034 7.9029 0.416648 8.0547 0.399025 8.20827C0.445725 8.24152 0.490447 8.27748 0.532961 8.31595Z" fill="#F4F4F4"/>
    <path fill-rule="evenodd" clip-rule="evenodd" d="M7.9911 7.10857C8.00167 7.14563 7.93999 7.26214 7.92942 7.29744C7.91884 7.33274 7.88888 7.42277 7.86774 7.48455L8.02635 7.36805C8.0563 7.34686 8.14971 7.25155 8.18672 7.25155C8.22373 7.25155 8.31537 7.34686 8.34533 7.36805L8.5057 7.48455C8.48455 7.42277 8.46516 7.35922 8.44402 7.29744C8.42287 7.23566 8.37176 7.14563 8.38233 7.10857C8.39291 7.0715 8.51275 7.01501 8.54271 6.99383L8.70308 6.87733H8.5057C8.46869 6.87733 8.33828 6.90027 8.30832 6.87733C8.27836 6.85438 8.25897 6.72552 8.24664 6.69022C8.22725 6.62667 8.2061 6.56489 8.18672 6.50134C8.16733 6.56489 8.14618 6.62667 8.1268 6.69022C8.11446 6.72552 8.09508 6.85614 8.06512 6.87733C8.03516 6.89851 7.90475 6.87733 7.86774 6.87733H7.67036L7.83073 6.99383C7.86069 7.01501 7.97876 7.07326 7.9911 7.10857Z" fill="#F4F4F4"/>
    <path fill-rule="evenodd" clip-rule="evenodd" d="M4.64092 6.17124C4.65326 6.20654 4.59158 6.32305 4.58101 6.35835C4.55986 6.4219 4.53871 6.48368 4.51932 6.54722L4.67793 6.43072C4.70789 6.40777 4.79953 6.31422 4.8383 6.31422C4.87708 6.31422 4.96695 6.40777 4.99691 6.43072L5.15728 6.54722L5.10441 6.34776C5.09208 6.31245 5.0304 6.19595 5.04273 6.16065C5.05507 6.12535 5.17315 6.06533 5.2031 6.04415L5.36348 5.92765H5.15728C5.12028 5.92765 4.98986 5.94883 4.9599 5.92765C4.92995 5.90646 4.91056 5.77407 4.89822 5.73877C4.87884 5.67522 4.85769 5.61344 4.8383 5.5499L4.77662 5.73877C4.76605 5.77407 4.74666 5.9047 4.7167 5.92765C4.68675 5.95059 4.55633 5.92765 4.51932 5.92765H4.32195L4.48232 6.04415C4.51228 6.06709 4.63035 6.12535 4.64092 6.17124Z" fill="#F4F4F4"/>
    <path fill-rule="evenodd" clip-rule="evenodd" d="M4.64092 8.05647C4.65326 8.09178 4.59158 8.20828 4.58101 8.24535C4.57043 8.28242 4.53871 8.37068 4.51932 8.43246L4.67793 8.31595C4.70789 8.29477 4.79953 8.19945 4.8383 8.19945C4.87708 8.19945 4.96695 8.29477 4.99691 8.31595L5.15728 8.43246C5.13614 8.37068 5.11675 8.30713 5.0956 8.24535C5.07446 8.18357 5.02159 8.09178 5.03392 8.05647C5.04626 8.02117 5.16433 7.96292 5.19429 7.93997L5.35466 7.82523H5.15728C5.12028 7.82523 4.98986 7.84818 4.9599 7.82523C4.92995 7.80229 4.91056 7.67343 4.89822 7.63812C4.87884 7.57458 4.85769 7.51103 4.8383 7.44925C4.81716 7.51103 4.79777 7.57458 4.77662 7.63812C4.76605 7.67343 4.74666 7.80405 4.7167 7.82523C4.68675 7.84642 4.55633 7.82523 4.51932 7.82523H4.32195C4.37481 7.86407 4.42768 7.9029 4.48232 7.93997C4.53695 7.97704 4.63035 8.02117 4.64092 8.05647Z" fill="#F4F4F4"/>
    <path fill-rule="evenodd" clip-rule="evenodd" d="M5.75823 9.00438C5.76881 9.03968 5.70889 9.15618 5.69655 9.19149L5.63311 9.38036L5.79348 9.26386C5.82344 9.24091 5.91508 9.14736 5.95209 9.14736C5.9891 9.14736 6.0825 9.24091 6.11246 9.26386L6.27107 9.38036C6.25168 9.31682 6.23054 9.25503 6.20939 9.19149C6.19881 9.15618 6.13713 9.03968 6.14771 9.00438C6.15828 8.96907 6.27812 8.91082 6.30808 8.88788L6.46845 8.77314H6.27283C6.23582 8.77314 6.0966 8.79609 6.07545 8.77314C6.0543 8.75019 6.02611 8.61957 6.01553 8.58427C5.99439 8.52248 5.975 8.45894 5.95385 8.39716L5.89393 8.58427C5.8816 8.61957 5.86397 8.75019 5.83225 8.77314C5.80053 8.79609 5.67188 8.77314 5.63487 8.77314H5.43749C5.49212 8.81021 5.54499 8.84904 5.59786 8.88788C5.65073 8.92671 5.7459 8.96731 5.75823 9.00438Z" fill="#F4F4F4"/>
    <path fill-rule="evenodd" clip-rule="evenodd" d="M4.64092 4.26662C4.65326 4.30368 4.59158 4.41842 4.58101 4.45373C4.55986 4.51727 4.53871 4.57905 4.51932 4.6426L4.67793 4.5261C4.70789 4.50315 4.79953 4.4096 4.8383 4.4096C4.87708 4.4096 4.96695 4.50315 4.99691 4.5261L5.15728 4.6426L5.10441 4.45373C5.09208 4.41842 5.0304 4.30368 5.04273 4.26662C5.05507 4.22955 5.17315 4.17306 5.2031 4.15011L5.36348 4.03538H5.15728C5.12028 4.03538 4.98986 4.05832 4.9599 4.03538C4.92995 4.01243 4.91056 3.88357 4.89822 3.84827C4.87884 3.78472 4.85769 3.72294 4.8383 3.65939L4.77662 3.84827C4.76605 3.88357 4.74666 4.01419 4.7167 4.03538C4.68675 4.05656 4.55633 4.03538 4.51932 4.03538H4.32195C4.37481 4.07421 4.42768 4.11305 4.48232 4.15011C4.53695 4.18718 4.63035 4.22955 4.64092 4.26662Z" fill="#F4F4F4"/>
    <path fill-rule="evenodd" clip-rule="evenodd" d="M4.64092 2.3708C4.65326 2.40787 4.59158 2.52437 4.58101 2.55967C4.55986 2.62145 4.53871 2.685 4.51932 2.74678L4.67793 2.63028C4.70789 2.6091 4.79953 2.51378 4.8383 2.51378C4.87708 2.51378 4.96695 2.6091 4.99691 2.63028L5.15728 2.74678C5.13614 2.685 5.11675 2.62145 5.0956 2.55967C5.08327 2.52437 5.02159 2.40787 5.03392 2.3708C5.04626 2.33373 5.16433 2.27724 5.19429 2.25606L5.35466 2.13956H5.15728C5.12028 2.13956 4.98986 2.16251 4.9599 2.13956C4.92995 2.11661 4.91056 1.98599 4.89822 1.95068C4.87884 1.88714 4.85769 1.82536 4.8383 1.76181L4.77662 1.95245C4.76605 1.98775 4.74666 2.11838 4.7167 2.14132C4.68675 2.16427 4.55633 2.14132 4.51932 2.14132H4.32195L4.48232 2.25783C4.51228 2.27724 4.63035 2.33549 4.64092 2.3708Z" fill="#F4F4F4"/>
    <path fill-rule="evenodd" clip-rule="evenodd" d="M3.51833 5.21452C3.53066 5.24982 3.46898 5.36632 3.45665 5.40163C3.43726 5.46517 3.41611 5.52695 3.39497 5.5905L3.55534 5.474C3.5853 5.45105 3.67694 5.3575 3.71395 5.3575C3.75095 5.3575 3.84436 5.45105 3.87432 5.474L4.03293 5.5905C4.01354 5.52695 3.99239 5.46517 3.97301 5.40163C3.96067 5.36632 3.89899 5.24982 3.91133 5.21452C3.92366 5.17921 4.03998 5.12096 4.0717 5.09802L4.23031 4.98151H4.04702C4.01002 4.98151 3.88137 5.00446 3.84964 4.98151C3.81792 4.95857 3.8003 4.82794 3.78973 4.79264C3.77915 4.75734 3.74919 4.66731 3.72804 4.60553L3.66813 4.79264C3.65755 4.82794 3.63817 4.95857 3.60821 4.98151C3.57825 5.00446 3.44784 4.98151 3.41083 4.98151H3.2064L3.36501 5.09802C3.39497 5.12096 3.51833 5.17745 3.51833 5.21452Z" fill="#F4F4F4"/>
    <path fill-rule="evenodd" clip-rule="evenodd" d="M3.51833 3.31872C3.53066 3.35579 3.46898 3.4723 3.45665 3.5076C3.43726 3.56938 3.41611 3.63293 3.39497 3.69471L3.55534 3.57821C3.5853 3.55702 3.67694 3.4617 3.71395 3.4617C3.75095 3.4617 3.84436 3.55702 3.87432 3.57821L4.04702 3.7L3.98711 3.51289C3.97477 3.47759 3.91309 3.36109 3.92542 3.32402C3.93776 3.28695 4.05407 3.23047 4.0858 3.20928L4.2444 3.09278H4.04702C4.01002 3.09278 3.88137 3.11573 3.84964 3.09278C3.81792 3.06983 3.8003 2.94098 3.78973 2.90567L3.72804 2.7168C3.70866 2.78034 3.68751 2.84212 3.66813 2.90567C3.65755 2.94098 3.63817 3.0716 3.60821 3.09278C3.57825 3.11396 3.44784 3.09278 3.41083 3.09278H3.2064L3.36501 3.20928C3.39497 3.22517 3.51833 3.28342 3.51833 3.31872Z" fill="#F4F4F4"/>
    <path fill-rule="evenodd" clip-rule="evenodd" d="M3.40202 9.38036L3.56239 9.26386C3.59235 9.24091 3.68399 9.14736 3.721 9.14736C3.758 9.14736 3.85141 9.24091 3.88137 9.26386L4.03998 9.38036C4.02059 9.31682 3.99944 9.25503 3.98006 9.19149C3.96772 9.15618 3.90604 9.03968 3.91838 9.00438C3.93071 8.96907 4.04702 8.91082 4.07875 8.88788L4.23736 8.77314H4.04702C4.01002 8.77314 3.88137 8.79609 3.84964 8.77314C3.81792 8.75019 3.8003 8.61957 3.78973 8.58427C3.76858 8.52248 3.74919 8.45894 3.72804 8.39716L3.66813 8.58427C3.65755 8.61957 3.63817 8.75019 3.60821 8.77314C3.57825 8.79609 3.44784 8.77314 3.41083 8.77314H3.2064L3.36501 8.88788C3.39497 8.91082 3.51304 8.96731 3.52538 9.00438C3.53771 9.04145 3.47603 9.15618 3.4637 9.19149C3.44431 9.25503 3.42316 9.31682 3.40202 9.38036Z" fill="#F4F4F4"/>
    <path fill-rule="evenodd" clip-rule="evenodd" d="M2.72705 4.03538C2.69533 4.01419 2.6777 3.88357 2.66537 3.84827C2.64598 3.78472 2.62483 3.72294 2.60545 3.65939C2.58606 3.72294 2.56491 3.78472 2.54553 3.84827C2.53319 3.88357 2.51557 4.01419 2.48385 4.03538C2.45213 4.05656 2.32348 4.03538 2.28647 4.03538H2.08909L2.24946 4.15011C2.27942 4.17306 2.39749 4.23131 2.40983 4.26662C2.42217 4.30192 2.35872 4.41842 2.34815 4.45373L2.28471 4.6426L2.44508 4.5261C2.47504 4.50315 2.56491 4.4096 2.60369 4.4096C2.64246 4.4096 2.73234 4.50315 2.76406 4.5261L2.92267 4.6426L2.86098 4.45373C2.85041 4.41842 2.78873 4.30368 2.7993 4.26662C2.80988 4.22955 2.92972 4.17306 2.95967 4.15011L3.12005 4.03538H2.92443C2.88742 4.03538 2.75701 4.05303 2.72705 4.03538Z" fill="#F4F4F4"/>
    <path fill-rule="evenodd" clip-rule="evenodd" d="M2.72705 7.82523C2.69533 7.80405 2.6777 7.67343 2.66537 7.63812C2.64598 7.57458 2.62483 7.51103 2.60545 7.44925C2.58606 7.51103 2.56491 7.57458 2.54553 7.63812C2.53319 7.67343 2.51557 7.80405 2.48385 7.82523C2.45213 7.84642 2.32348 7.82523 2.28647 7.82523H2.08909L2.24946 7.93997C2.27942 7.96292 2.39749 8.02117 2.40983 8.05647C2.42217 8.09178 2.35872 8.20828 2.34815 8.24535C2.33758 8.28242 2.30762 8.37068 2.28647 8.43246L2.44684 8.31595C2.4768 8.29477 2.56668 8.19945 2.60545 8.19945C2.64422 8.19945 2.7341 8.29477 2.76582 8.31595L2.92443 8.43246C2.90328 8.37068 2.88389 8.30713 2.86275 8.24535C2.8416 8.18357 2.79049 8.09178 2.80107 8.05647C2.81164 8.02117 2.93148 7.96292 2.96144 7.93997L3.12181 7.82523H2.92443C2.88742 7.82523 2.75701 7.84818 2.72705 7.82523Z" fill="#F4F4F4"/>
    <path fill-rule="evenodd" clip-rule="evenodd" d="M3.51833 7.10857C3.53066 7.14563 3.46898 7.26214 3.45665 7.29744C3.44431 7.33274 3.41611 7.42277 3.39497 7.48455L3.55534 7.36805C3.5853 7.34686 3.67694 7.25155 3.71395 7.25155C3.75095 7.25155 3.84436 7.34686 3.87432 7.36805L4.03293 7.48455L3.97301 7.29744C3.96067 7.26214 3.89899 7.14563 3.91133 7.10857C3.92366 7.0715 4.03998 7.01501 4.0717 6.99383L4.23031 6.87733H4.04702C4.01002 6.87733 3.88137 6.90027 3.84964 6.87733C3.81792 6.85438 3.8003 6.72552 3.78973 6.69022L3.72804 6.50134C3.70866 6.56489 3.68751 6.62667 3.66813 6.69022C3.65755 6.72552 3.63817 6.85614 3.60821 6.87733C3.57825 6.89851 3.44784 6.87733 3.41083 6.87733H3.2064L3.36501 6.99383C3.39497 7.01501 3.51833 7.07326 3.51833 7.10857Z" fill="#F4F4F4"/>
    <path fill-rule="evenodd" clip-rule="evenodd" d="M2.72705 5.93119C2.69533 5.90824 2.6777 5.77761 2.66537 5.74231C2.64598 5.67876 2.62483 5.61698 2.60545 5.55344C2.58606 5.61698 2.56491 5.67876 2.54553 5.74231C2.53319 5.77761 2.51557 5.90824 2.48385 5.93119C2.45213 5.95413 2.32348 5.93119 2.28647 5.93119H2.08909L2.24946 6.04769C2.27942 6.06887 2.39749 6.12712 2.40983 6.16419C2.42217 6.20126 2.35872 6.316 2.34815 6.3513L2.28471 6.53841C2.33758 6.49957 2.39045 6.45898 2.44508 6.42191C2.49971 6.38484 2.56491 6.3054 2.60369 6.3054C2.64246 6.3054 2.73234 6.39896 2.76406 6.42191L2.92267 6.53841L2.86275 6.34777C2.85217 6.31246 2.79049 6.19596 2.80107 6.16066C2.81164 6.12536 2.93148 6.06534 2.96144 6.04416L3.12181 5.92766H2.92443C2.88742 5.93119 2.75701 5.95237 2.72705 5.93119Z" fill="#F4F4F4"/>
    <path fill-rule="evenodd" clip-rule="evenodd" d="M1.6115 8.77314C1.57978 8.75019 1.56216 8.61957 1.54982 8.58427L1.4899 8.39716C1.46875 8.45894 1.44937 8.52248 1.42822 8.58427C1.41765 8.61957 1.39826 8.75019 1.3683 8.77314C1.33834 8.79609 1.20793 8.77314 1.17092 8.77314H0.973541L1.13391 8.88788C1.16387 8.91082 1.28195 8.96731 1.29252 9.00438C1.3031 9.04145 1.24318 9.15618 1.2326 9.19149C1.21145 9.25503 1.19031 9.31682 1.17092 9.38036L1.32953 9.26386C1.35949 9.24091 1.45113 9.14736 1.4899 9.14736C1.52867 9.14736 1.61855 9.24091 1.64851 9.26386L1.80888 9.38036C1.78773 9.31682 1.76659 9.25503 1.7472 9.19149C1.73486 9.15618 1.67318 9.03968 1.68552 9.00438C1.69785 8.96907 1.81593 8.91082 1.84589 8.88788L2.0045 8.77314H1.80712C1.77011 8.77314 1.64146 8.79609 1.6115 8.77314Z" fill="#F4F4F4"/>
    <path fill-rule="evenodd" clip-rule="evenodd" d="M6.86673 2.3708C6.87907 2.40787 6.81739 2.52437 6.80505 2.55967L6.74513 2.74678L6.90374 2.63028C6.9337 2.6091 7.02534 2.51378 7.06411 2.51378C7.10288 2.51378 7.19276 2.6091 7.22272 2.63028L7.38309 2.74678C7.36194 2.685 7.3408 2.62145 7.32141 2.55967C7.30907 2.52437 7.24739 2.40787 7.25973 2.3708C7.27207 2.33373 7.38838 2.27724 7.4201 2.25606L7.57871 2.13956H7.39543C7.35842 2.13956 7.22977 2.16251 7.19805 2.13956C7.16633 2.11661 7.1487 1.98599 7.13813 1.95068C7.11698 1.88714 7.0976 1.82536 7.07821 1.76181L7.00948 1.95245C6.99891 1.98775 6.97952 2.11838 6.94956 2.14132C6.9196 2.16427 6.78919 2.14132 6.75218 2.14132H6.5548L6.71341 2.25783C6.74513 2.27724 6.86673 2.33549 6.86673 2.3708Z" fill="#F4F4F4"/>
    <path fill-rule="evenodd" clip-rule="evenodd" d="M7.9911 9.00438C8.00167 9.03968 7.93999 9.15618 7.92942 9.19149L7.86774 9.38036L8.02635 9.26386C8.0563 9.24091 8.14971 9.14736 8.18672 9.14736C8.22372 9.14736 8.31537 9.24091 8.34532 9.26386L8.5057 9.38036L8.45283 9.19149C8.44225 9.15618 8.38057 9.03968 8.39115 9.00438C8.40172 8.96907 8.52156 8.91082 8.55152 8.88788L8.71189 8.77314H8.5057C8.46869 8.77314 8.33828 8.79609 8.30832 8.77314C8.27836 8.75019 8.25897 8.61957 8.24664 8.58427L8.18672 8.39716L8.1268 8.58427C8.11446 8.61957 8.09508 8.75019 8.06512 8.77314C8.03516 8.79609 7.90475 8.77314 7.86774 8.77314H7.67036L7.83073 8.88788C7.86069 8.91082 7.97876 8.96731 7.9911 9.00438Z" fill="#F4F4F4"/>
    <path fill-rule="evenodd" clip-rule="evenodd" d="M6.86673 4.26662C6.87907 4.30368 6.81739 4.41842 6.80505 4.45373C6.78567 4.51727 6.76452 4.57905 6.74513 4.6426L6.90374 4.5261C6.9337 4.50315 7.02534 4.4096 7.06411 4.4096C7.10288 4.4096 7.19276 4.50315 7.22272 4.5261L7.38309 4.6426C7.36194 4.57905 7.3408 4.51727 7.32141 4.45373C7.30907 4.41842 7.24739 4.30368 7.25973 4.26662C7.27207 4.22955 7.38838 4.17306 7.4201 4.15011L7.57871 4.03538H7.39543C7.35842 4.03538 7.22977 4.05832 7.19805 4.03538C7.16633 4.01243 7.1487 3.88357 7.13813 3.84827C7.11698 3.78472 7.0976 3.72294 7.07821 3.65939L7.01653 3.84827C7.00596 3.88357 6.98657 4.01419 6.95661 4.03538C6.92665 4.05656 6.79624 4.03538 6.75923 4.03538H6.5548L6.71341 4.15011C6.74513 4.17306 6.86673 4.22955 6.86673 4.26662Z" fill="#F4F4F4"/>
    <path fill-rule="evenodd" clip-rule="evenodd" d="M7.9911 5.21452C8.00167 5.24982 7.93999 5.36632 7.92942 5.40163L7.86774 5.5905L8.02635 5.474C8.0563 5.45105 8.14971 5.3575 8.18672 5.3575C8.22372 5.3575 8.31537 5.45105 8.34532 5.474L8.5057 5.5905L8.45283 5.40163C8.44225 5.36632 8.38057 5.24982 8.39115 5.21452C8.40172 5.17921 8.52156 5.12096 8.55152 5.09802L8.71189 4.98151H8.5057C8.46869 4.98151 8.33828 5.00446 8.30832 4.98151C8.27836 4.95857 8.25897 4.82794 8.24664 4.79264L8.18672 4.60553L8.1268 4.79264C8.11446 4.82794 8.09508 4.95857 8.06512 4.98151C8.03516 5.00446 7.90475 4.98151 7.86774 4.98151H7.67036L7.83073 5.09802C7.86069 5.12096 7.97876 5.17745 7.9911 5.21452Z" fill="#F4F4F4"/>
    <path fill-rule="evenodd" clip-rule="evenodd" d="M7.9911 3.31871C8.00167 3.35578 7.93999 3.47228 7.92942 3.50758C7.90827 3.56937 7.88888 3.63291 7.86774 3.69469L8.02635 3.57819C8.0563 3.55701 8.14971 3.46169 8.18672 3.46169C8.22373 3.46169 8.31537 3.55701 8.34533 3.57819L8.5057 3.69469C8.48455 3.63291 8.46516 3.56937 8.44402 3.50758C8.43344 3.47228 8.37176 3.35578 8.38233 3.31871C8.39291 3.28164 8.51275 3.22515 8.54271 3.20397L8.70308 3.08747H8.5057C8.46869 3.08747 8.33828 3.11042 8.30832 3.08747C8.27836 3.06452 8.25897 2.93566 8.24664 2.90036C8.22725 2.83681 8.2061 2.77503 8.18672 2.71149C8.16733 2.77503 8.14618 2.83681 8.1268 2.90036C8.11446 2.93566 8.09508 3.06629 8.06512 3.08747C8.03516 3.10865 7.90475 3.08747 7.86774 3.08747H7.67036L7.83073 3.20397C7.86069 3.22515 7.97876 3.28341 7.9911 3.31871Z" fill="#F4F4F4"/>
    <path fill-rule="evenodd" clip-rule="evenodd" d="M6.86673 6.17124C6.87907 6.20654 6.81739 6.32304 6.80505 6.35835C6.78567 6.42189 6.76452 6.48368 6.74513 6.54722L6.90374 6.43072C6.9337 6.40777 7.02534 6.31422 7.06411 6.31422C7.10288 6.31422 7.19276 6.40777 7.22272 6.43072L7.38309 6.54722C7.36194 6.48368 7.3408 6.42189 7.32141 6.35835C7.30907 6.32304 7.24739 6.20654 7.25973 6.17124C7.27207 6.13594 7.38838 6.07592 7.4201 6.05474L7.57871 5.93823H7.39543C7.35842 5.93823 7.22977 5.95942 7.19805 5.93823C7.16633 5.91705 7.1487 5.78466 7.13813 5.74936C7.11698 5.68581 7.0976 5.62403 7.07821 5.56049L7.01653 5.74936C7.00596 5.78466 6.98657 5.91529 6.95661 5.93823C6.92665 5.96118 6.79624 5.93823 6.75923 5.93823H6.5548L6.71341 6.05474C6.74513 6.06709 6.86673 6.12534 6.86673 6.17124Z" fill="#F4F4F4"/>
    <path fill-rule="evenodd" clip-rule="evenodd" d="M5.75823 3.31871C5.76881 3.35578 5.70889 3.47228 5.69655 3.50758C5.67541 3.56937 5.65602 3.63291 5.63487 3.69469L5.79524 3.57819C5.8252 3.55701 5.91684 3.46169 5.95385 3.46169C5.99086 3.46169 6.08426 3.55701 6.11422 3.57819L6.27283 3.69469C6.25345 3.63291 6.2323 3.56937 6.21115 3.50758C6.20058 3.47228 6.1389 3.35578 6.14947 3.31871C6.16004 3.28164 6.27988 3.22515 6.30984 3.20397L6.47021 3.08747H6.27283C6.23582 3.08747 6.0966 3.11042 6.07545 3.08747C6.0543 3.06452 6.02611 2.93566 6.01553 2.90036L5.95385 2.71149C5.93447 2.77503 5.91332 2.83681 5.89393 2.90036C5.8816 2.93566 5.86397 3.06629 5.83225 3.08747C5.80053 3.10865 5.67188 3.08747 5.63487 3.08747H5.43749L5.59786 3.20397C5.63311 3.22515 5.7459 3.28341 5.75823 3.31871Z" fill="#F4F4F4"/>
    <path fill-rule="evenodd" clip-rule="evenodd" d="M6.86673 8.05647C6.87907 8.09178 6.81739 8.20828 6.80505 8.24535L6.74513 8.43246L6.90374 8.31595C6.9337 8.29477 7.02534 8.19945 7.06411 8.19945C7.10288 8.19945 7.19276 8.29477 7.22272 8.31595L7.38309 8.43246C7.36194 8.37068 7.3408 8.30713 7.32141 8.24535C7.30203 8.18357 7.24739 8.09178 7.25973 8.05647C7.27207 8.02117 7.38838 7.96292 7.4201 7.93997L7.57871 7.82523H7.39543C7.35842 7.82523 7.22977 7.84818 7.19805 7.82523C7.16633 7.80229 7.1487 7.67343 7.13813 7.63812C7.11698 7.57458 7.0976 7.51103 7.07821 7.44925C7.05706 7.51103 7.03768 7.57458 7.01653 7.63812C7.00596 7.67343 6.98657 7.80405 6.95661 7.82523C6.92665 7.84642 6.79624 7.82523 6.75923 7.82523H6.5548L6.71341 7.93997C6.74513 7.96292 6.86673 8.02117 6.86673 8.05647Z" fill="#F4F4F4"/>
    <path fill-rule="evenodd" clip-rule="evenodd" d="M5.75823 7.10857C5.76881 7.14563 5.70889 7.26214 5.69655 7.29744C5.68422 7.33274 5.65602 7.42277 5.63487 7.48455L5.79524 7.36805C5.8252 7.34686 5.91684 7.25155 5.95385 7.25155C5.99086 7.25155 6.08426 7.34686 6.11422 7.36805L6.27283 7.48455C6.25345 7.42277 6.2323 7.35922 6.21115 7.29744C6.19 7.23566 6.1389 7.14563 6.14947 7.10857C6.16004 7.0715 6.27988 7.01501 6.30984 6.99383L6.47021 6.87733H6.27283C6.23582 6.87733 6.0966 6.90027 6.07545 6.87733C6.0543 6.85438 6.02611 6.72552 6.01553 6.69022L5.95385 6.50134C5.93447 6.56489 5.91332 6.62667 5.89393 6.69022C5.8816 6.72552 5.86397 6.85614 5.83225 6.87733C5.80053 6.89851 5.67188 6.87733 5.63487 6.87733H5.43749L5.59786 6.99383C5.63311 7.01501 5.7459 7.07326 5.75823 7.10857Z" fill="#F4F4F4"/>
    <path fill-rule="evenodd" clip-rule="evenodd" d="M5.75823 5.21452C5.76881 5.24982 5.70889 5.36632 5.69655 5.40163L5.63311 5.5905L5.79348 5.474C5.82344 5.45105 5.91508 5.3575 5.95209 5.3575C5.9891 5.3575 6.0825 5.45105 6.11246 5.474L6.27107 5.5905C6.25168 5.52695 6.23054 5.46517 6.20939 5.40163C6.19881 5.36632 6.13713 5.24982 6.14771 5.21452C6.15828 5.17921 6.27812 5.12096 6.30808 5.09802L6.46845 4.98151H6.27283C6.23582 4.98151 6.0966 5.00446 6.07545 4.98151C6.0543 4.95857 6.02611 4.82794 6.01553 4.79264C6.00496 4.75734 5.975 4.66731 5.95385 4.60553L5.89393 4.79264C5.8816 4.82794 5.86397 4.95857 5.83225 4.98151C5.80053 5.00446 5.67188 4.98151 5.63487 4.98151H5.43749L5.59786 5.09802C5.63311 5.12096 5.7459 5.17745 5.75823 5.21452Z" fill="#F4F4F4"/>
    <path fill-rule="evenodd" clip-rule="evenodd" d="M1.6115 6.87733C1.57978 6.85614 1.56216 6.72552 1.54982 6.69022C1.53043 6.62667 1.50929 6.56489 1.4899 6.50134L1.42822 6.69022C1.41765 6.72552 1.39826 6.85614 1.3683 6.87733C1.33834 6.89851 1.20793 6.87733 1.17092 6.87733H0.973541L1.13391 6.99383C1.16387 7.01501 1.28195 7.07326 1.29252 7.10857C1.3031 7.14387 1.24318 7.26214 1.2326 7.29744C1.22203 7.33274 1.19031 7.42277 1.17092 7.48455L1.32953 7.36805C1.35949 7.34686 1.45113 7.25155 1.4899 7.25155C1.52867 7.25155 1.61855 7.34686 1.64851 7.36805L1.80888 7.48455C1.78773 7.42277 1.76659 7.35922 1.7472 7.29744C1.72781 7.23566 1.67318 7.14563 1.68552 7.10857C1.69785 7.0715 1.81593 7.01501 1.84589 6.99383L2.0045 6.87733H1.80712C1.77011 6.87733 1.64146 6.90027 1.6115 6.87733Z" fill="#F4F4F4"/>
    <path fill-rule="evenodd" clip-rule="evenodd" d="M7.9911 1.42466C8.00167 1.45997 7.93999 1.57647 7.92942 1.61177L7.86774 1.80065L8.02635 1.68414C8.0563 1.6612 8.14971 1.56764 8.18672 1.56764C8.22372 1.56764 8.31537 1.6612 8.34532 1.68414L8.5057 1.80065L8.45283 1.61177C8.44225 1.57647 8.38057 1.45997 8.39115 1.42466C8.40172 1.38936 8.52156 1.32934 8.55152 1.30816L8.71189 1.19166H8.5057C8.46869 1.19166 8.33828 1.21284 8.30832 1.19166C8.27836 1.17048 8.25897 1.03809 8.24664 1.00278L8.18672 0.815674L8.1268 1.00278C8.11446 1.03809 8.09508 1.16871 8.06512 1.19166C8.03516 1.21461 7.90475 1.19166 7.86774 1.19166H7.67036L7.83073 1.30816C7.86069 1.32934 7.97876 1.38759 7.9911 1.42466Z" fill="#F4F4F4"/>
  </g>
</svg>