<svg xmlns="http://www.w3.org/2000/svg" width="20" height="13" viewBox="0 0 20 13" fill="none">
  <g clip-path="url(#clip0_4224_791)">
    <path d="M19.2 5.24904C19.0623 5.53704 18.871 5.75858 18.5036 5.75858C18.1363 5.75858 17.8302 5.49273 17.8073 5.13827C17.7996 4.99058 17.8073 4.8355 17.8073 4.68781C17.8073 4.5475 17.8073 4.39981 17.8073 4.20043C17.57 4.42935 17.3634 4.62135 17.1645 4.82073C16.9579 5.01273 16.7589 5.21212 16.5829 5.38196C16.7589 5.78073 16.9655 6.14258 17.0879 6.52658C17.8149 8.79366 16.3304 11.1863 13.9198 11.6515C11.5476 12.1093 9.27479 10.529 8.96104 8.20289C8.6779 6.11304 10.1166 4.15612 12.2669 3.74258C13.3842 3.52842 14.4402 3.72043 15.3968 4.34073C15.5268 4.42196 15.5957 4.42935 15.7029 4.31119C16.0319 3.97889 16.3763 3.65396 16.7512 3.29212C16.4681 3.29212 16.2156 3.29212 15.9707 3.29212C15.6187 3.29212 15.3432 3.09273 15.259 2.80473C15.1366 2.36904 15.4427 1.96289 15.9171 1.94812C16.5829 1.92596 17.241 1.92596 17.9068 1.91858C18.0751 1.91858 18.2435 1.91858 18.4118 1.91858C18.7868 1.91858 19.0087 2.04412 19.1618 2.37643C19.1694 2.39858 19.1847 2.41335 19.2 2.42812V5.24904ZM13.1163 5.01273C11.6241 4.98319 10.3538 6.16473 10.3155 7.63427C10.2773 9.11119 11.4787 10.3075 13.0474 10.3444C14.5473 10.3813 15.8253 9.22935 15.8559 7.80412C15.8942 6.25335 14.708 5.04227 13.1087 5.00535L13.1163 5.01273Z" fill="#A6B2D3"/>
    <path d="M4.80584 9.51744C5.21907 9.51744 5.6017 9.51744 5.97667 9.51744C6.28276 9.51744 6.5353 9.71683 6.61947 9.98267C6.70365 10.2485 6.61947 10.5513 6.38225 10.7064C6.25215 10.7876 6.07615 10.8393 5.91545 10.8541C5.55578 10.8762 5.19612 10.8541 4.79819 10.8541C4.79819 11.1273 4.79819 11.3931 4.79819 11.659C4.79054 11.9544 4.57627 12.1981 4.27782 12.2719C3.97938 12.3457 3.66563 12.235 3.52023 11.9765C3.45136 11.8584 3.42075 11.7181 3.4131 11.5851C3.39779 11.3562 3.4131 11.1199 3.4131 10.8614C3.03047 10.8614 2.66316 10.8688 2.29584 10.8614C1.81373 10.8467 1.49998 10.3962 1.66068 9.9679C1.76017 9.70206 2.00504 9.52483 2.30349 9.52483C2.66316 9.52483 3.03047 9.52483 3.40544 9.52483V8.30637C3.36718 8.2916 3.31361 8.27683 3.26005 8.26206C0.551079 7.64913 -0.7881 4.82083 0.482206 2.44298C1.28571 0.951289 3.09934 0.0651349 4.79819 0.360519C6.61947 0.678058 7.78265 1.71929 8.24179 3.44729C8.80807 5.61098 7.30054 7.83375 4.9895 8.28421C4.83645 8.31375 4.79819 8.36544 4.80584 8.50575C4.81349 8.83806 4.80584 9.16298 4.80584 9.52483V9.51744ZM6.94853 4.33344C6.94853 2.85652 5.70883 1.65283 4.17834 1.65283C2.64785 1.65283 1.39285 2.8639 1.4005 4.33344C1.4005 5.80298 2.6402 6.9919 4.17069 7.01406C5.68587 7.02883 6.94853 5.81775 6.95618 4.34083L6.94853 4.33344Z" fill="#A6B2D3"/>
  </g>
  <defs>
    <clipPath id="clip0_4224_791">
      <rect width="19.2" height="12" fill="white" transform="translate(0 0.301392)"/>
    </clipPath>
  </defs>
</svg>