<svg xmlns="http://www.w3.org/2000/svg" width="16" height="17" viewBox="0 0 16 17" fill="none">
  <path fill-rule="evenodd" clip-rule="evenodd" d="M2.89972 7.05139C2.80188 7.452 2.75 7.87064 2.75 8.30139C2.75 8.73214 2.80188 9.15078 2.89972 9.55139H5.31621C5.27368 9.15831 5.25 8.74172 5.25 8.30139C5.25 7.86106 5.27368 7.44447 5.31621 7.05139H2.89972ZM3.527 5.55139H5.58895C5.79142 4.77403 6.06203 4.12664 6.3367 3.60617C6.4014 3.48357 6.46625 3.36815 6.53039 3.25986C5.26791 3.62724 4.20189 4.45598 3.527 5.55139ZM8 3.73989C7.8938 3.89859 7.7789 4.08722 7.6633 4.30627C7.48416 4.64572 7.30241 5.05989 7.14872 5.55139H8.85128C8.69759 5.05989 8.51584 4.64572 8.3367 4.30627C8.2211 4.08722 8.1062 3.89859 8 3.73989ZM9.17361 7.05139H6.82639C6.77781 7.438 6.75 7.85447 6.75 8.30139C6.75 8.74831 6.77781 9.16478 6.82639 9.55139H9.17361C9.22219 9.16478 9.25 8.74831 9.25 8.30139C9.25 7.85447 9.22219 7.438 9.17361 7.05139ZM10.6838 9.55139C10.7263 9.15831 10.75 8.74172 10.75 8.30139C10.75 7.86106 10.7263 7.44447 10.6838 7.05139H13.1003C13.1981 7.452 13.25 7.87064 13.25 8.30139C13.25 8.73214 13.1981 9.15078 13.1003 9.55139H10.6838ZM8.85128 11.0514H7.14872C7.30241 11.5429 7.48416 11.9571 7.6633 12.2965C7.7789 12.5156 7.8938 12.7042 8 12.8629C8.1062 12.7042 8.2211 12.5156 8.3367 12.2965C8.51584 11.9571 8.69759 11.5429 8.85128 11.0514ZM9.46961 13.3429C9.53375 13.2346 9.5986 13.1192 9.6633 12.9966C9.93797 12.4761 10.2086 11.8288 10.4111 11.0514H12.473C11.7981 12.1468 10.7321 12.9755 9.46961 13.3429ZM6.53039 13.3429C6.46625 13.2346 6.4014 13.1192 6.3367 12.9966C6.06203 12.4761 5.79142 11.8288 5.58895 11.0514H3.527C4.20189 12.1468 5.26791 12.9755 6.53039 13.3429ZM12.473 5.55139H10.4111C10.2086 4.77403 9.93797 4.12664 9.6633 3.60617C9.5986 3.48357 9.53375 3.36815 9.46961 3.25986C10.7321 3.62724 11.7981 4.45598 12.473 5.55139ZM1.25 8.30139C1.25 4.57347 4.27208 1.55139 8 1.55139C11.7279 1.55139 14.75 4.57347 14.75 8.30139C14.75 12.0293 11.7279 15.0514 8 15.0514C4.27208 15.0514 1.25 12.0293 1.25 8.30139Z" fill="#A6B2D3"/>
</svg>