<svg xmlns="http://www.w3.org/2000/svg" width="16" height="18" viewBox="0 0 16 18" fill="none">
  <path fill-rule="evenodd" clip-rule="evenodd" d="M3.00004 1.29167C2.42474 1.29167 1.95837 1.75804 1.95837 2.33333V4C1.95837 4.34518 1.67855 4.625 1.33337 4.625C0.988196 4.625 0.708374 4.34518 0.708374 4V2.33333C0.708374 1.06768 1.73439 0.0416679 3.00004 0.0416679H8.21683C8.76388 0.0416679 9.29288 0.237358 9.70823 0.593372L14.4914 4.69326C14.9994 5.12864 15.2917 5.76423 15.2917 6.43323V15.6667C15.2917 16.9323 14.2657 17.9583 13 17.9583H3.00004C1.73439 17.9583 0.708374 16.9323 0.708374 15.6667V7.33333C0.708374 6.98816 0.988196 6.70833 1.33337 6.70833C1.67855 6.70833 1.95837 6.98816 1.95837 7.33333V15.6667C1.95837 16.242 2.42474 16.7083 3.00004 16.7083H13C13.5753 16.7083 14.0417 16.242 14.0417 15.6667V6.43323C14.0417 6.12914 13.9088 5.84023 13.6779 5.64233L8.89474 1.54244C8.70595 1.38062 8.46549 1.29167 8.21683 1.29167H3.00004Z" fill="#50B8E4"/>
  <path fill-rule="evenodd" clip-rule="evenodd" d="M8.20837 4V1.08334H9.45837V4C9.45837 4.5753 9.92474 5.04167 10.5 5.04167H14.25C14.5952 5.04167 14.875 5.32149 14.875 5.66667C14.875 6.01185 14.5952 6.29167 14.25 6.29167H10.5C9.23439 6.29167 8.20837 5.26566 8.20837 4Z" fill="#50B8E4"/>
  <path fill-rule="evenodd" clip-rule="evenodd" d="M3.20837 9C3.20837 8.65482 3.4882 8.375 3.83337 8.375H10.5C10.8452 8.375 11.125 8.65482 11.125 9C11.125 9.34518 10.8452 9.625 10.5 9.625H3.83337C3.4882 9.625 3.20837 9.34518 3.20837 9Z" fill="#50B8E4"/>
  <path fill-rule="evenodd" clip-rule="evenodd" d="M3.20837 11.5C3.20837 11.1548 3.4882 10.875 3.83337 10.875H7.58337C7.92855 10.875 8.20837 11.1548 8.20837 11.5C8.20837 11.8452 7.92855 12.125 7.58337 12.125H3.83337C3.4882 12.125 3.20837 11.8452 3.20837 11.5Z" fill="#50B8E4"/>
  <path fill-rule="evenodd" clip-rule="evenodd" d="M3.20837 14C3.20837 13.6548 3.4882 13.375 3.83337 13.375H9.66671C10.0119 13.375 10.2917 13.6548 10.2917 14C10.2917 14.3452 10.0119 14.625 9.66671 14.625H3.83337C3.4882 14.625 3.20837 14.3452 3.20837 14Z" fill="#50B8E4"/>
</svg>
