<svg xmlns="http://www.w3.org/2000/svg" width="16" height="17" viewBox="0 0 16 17" fill="none">
  <g clip-path="url(#clip0_4167_4037)">
    <path fill-rule="evenodd" clip-rule="evenodd" d="M8.00008 4.2181C6.4813 4.2181 5.25008 5.44932 5.25008 6.9681C5.25008 8.48688 6.4813 9.7181 8.00008 9.7181C9.51886 9.7181 10.7501 8.48688 10.7501 6.9681C10.7501 5.44932 9.51886 4.2181 8.00008 4.2181ZM8.00008 5.7181C7.30973 5.7181 6.75008 6.27774 6.75008 6.9681C6.75008 7.65845 7.30973 8.2181 8.00008 8.2181C8.69044 8.2181 9.25008 7.65845 9.25008 6.9681C9.25008 6.27774 8.69044 5.7181 8.00008 5.7181Z" fill="#A6B2D3"/>
    <path fill-rule="evenodd" clip-rule="evenodd" d="M7.34628 15.434C7.42405 15.4874 7.486 15.5286 7.52948 15.557L7.60165 15.6035C7.84509 15.7559 8.15463 15.7562 8.39808 15.6038L8.65388 15.434C8.80935 15.3272 9.02852 15.1712 9.29022 14.9703C9.8124 14.5693 10.5101 13.9842 11.2103 13.2479C12.5893 11.7976 14.0834 9.64856 14.0834 7.08931C14.0834 5.44913 13.4465 3.87283 12.3076 2.70803C11.1681 1.54265 9.61899 0.884766 8.00008 0.884766C6.38117 0.884766 4.83207 1.54265 3.69259 2.70803C2.55367 3.87283 1.91675 5.44913 1.91675 7.08931C1.91675 9.64856 3.41084 11.7976 4.7899 13.2479C5.49003 13.9842 6.18777 14.5693 6.70995 14.9703C6.97164 15.1712 7.19082 15.3272 7.34628 15.434ZM8.00008 2.38477C6.79001 2.38477 5.62601 2.87623 4.7651 3.7567C3.90363 4.63775 3.41675 5.83622 3.41675 7.08931C3.41675 9.06975 4.58932 10.8601 5.87693 12.2143C6.51013 12.8802 7.14573 13.4137 7.62355 13.7806C7.76483 13.8891 7.89176 13.9826 8.00008 14.0603C8.1084 13.9826 8.23533 13.8891 8.37661 13.7806C8.85443 13.4137 9.49003 12.8802 10.1232 12.2143C11.4108 10.8601 12.5834 9.06975 12.5834 7.08931C12.5834 5.83622 12.0965 4.63775 11.2351 3.7567C10.3742 2.87623 9.21015 2.38477 8.00008 2.38477Z" fill="#A6B2D3"/>
  </g>
  <defs>
    <clipPath id="clip0_4167_4037">
      <rect width="16" height="16" fill="white" transform="translate(0 0.301392)"/>
    </clipPath>
  </defs>
</svg>