<svg xmlns="http://www.w3.org/2000/svg" width="16" height="17" viewBox="0 0 16 17" fill="none">
  <path fill-rule="evenodd" clip-rule="evenodd" d="M6.1306 2.21802H9.86924C10.6958 2.21801 11.3624 2.218 11.902 2.26281C12.4576 2.30895 12.9452 2.40646 13.3952 2.64022C14.0802 2.996 14.6386 3.55445 14.9944 4.23936C15.2281 4.68937 15.3257 5.17703 15.3718 5.73264C15.4166 6.27219 15.4166 6.93883 15.4166 7.76536V8.83734C15.4166 9.66387 15.4166 10.3305 15.3718 10.8701C15.3257 11.4257 15.2281 11.9133 14.9944 12.3633C14.6386 13.0483 14.0802 13.6067 13.3952 13.9625C12.9452 14.1962 12.4576 14.2938 11.902 14.3399C11.3624 14.3847 10.6958 14.3847 9.86924 14.3847H6.13059C5.30407 14.3847 4.63742 14.3847 4.09787 14.3399C3.54226 14.2938 3.0546 14.1962 2.6046 13.9625C1.91969 13.6067 1.36124 13.0483 1.00545 12.3633C0.771694 11.9133 0.674186 11.4257 0.628045 10.8701C0.583238 10.3305 0.583245 9.66387 0.583252 8.83734V7.76536C0.583245 6.93884 0.583238 6.27219 0.628045 5.73264C0.674186 5.17703 0.771694 4.68937 1.00545 4.23936C1.36124 3.55445 1.91969 2.996 2.6046 2.64022C3.0546 2.40646 3.54226 2.30895 4.09787 2.26281C4.63742 2.218 5.30407 2.21801 6.1306 2.21802ZM3.97907 3.78313C4.38352 3.94129 4.75731 4.17744 5.0775 4.48239L6.46838 5.80703C6.78875 6.11214 7.00348 6.31614 7.18032 6.46396C7.35198 6.60744 7.4497 6.66462 7.52279 6.6948C7.82836 6.821 8.17148 6.821 8.47705 6.6948C8.55014 6.66462 8.64785 6.60744 8.81951 6.46396C8.99636 6.31614 9.21109 6.11214 9.53146 5.80703L10.9223 4.48239C11.2425 4.17744 11.6163 3.94129 12.0208 3.78313C11.9463 3.77345 11.8656 3.76496 11.7778 3.75767C11.3077 3.71862 10.7034 3.71802 9.83659 3.71802H6.16325C5.29643 3.71802 4.69217 3.71862 4.22201 3.75767C4.13421 3.76496 4.05353 3.77345 3.97907 3.78313ZM13.7184 5.05135H13.2499C12.7685 5.05135 12.3055 5.23655 11.9568 5.56859L10.5487 6.90964C10.25 7.19411 10.0001 7.4321 9.78151 7.61486C9.55349 7.80545 9.32187 7.96879 9.04961 8.08123C8.37735 8.35885 7.62248 8.35885 6.95022 8.08123C6.67797 7.96879 6.44635 7.80545 6.21833 7.61486C5.9997 7.43211 5.74983 7.19413 5.45117 6.90968L4.04302 5.56859C3.69438 5.23655 3.23137 5.05135 2.74992 5.05135H2.28142C2.20692 5.23738 2.154 5.48224 2.1229 5.85678C2.08386 6.32694 2.08325 6.93119 2.08325 7.79802V8.80469C2.08325 9.67151 2.08386 10.2758 2.1229 10.7459C2.1612 11.2071 2.23257 11.4717 2.33657 11.6719C2.55004 12.0828 2.88511 12.4179 3.29606 12.6314C3.49627 12.7354 3.76084 12.8067 4.22201 12.845C4.69217 12.8841 5.29642 12.8847 6.16325 12.8847H9.83659C10.7034 12.8847 11.3077 12.8841 11.7778 12.845C12.239 12.8067 12.5036 12.7354 12.7038 12.6314C13.1147 12.4179 13.4498 12.0828 13.6633 11.6719C13.7673 11.4717 13.8386 11.2071 13.8769 10.7459C13.916 10.2758 13.9166 9.67151 13.9166 8.80468V7.79802C13.9166 6.93119 13.916 6.32694 13.8769 5.85678C13.8458 5.48224 13.7929 5.23738 13.7184 5.05135Z" fill="#A6B2D3"/>
</svg>