<svg width="84" height="25" viewBox="0 0 84 25" fill="none" xmlns="http://www.w3.org/2000/svg">
<path fill-rule="evenodd" clip-rule="evenodd" d="M7.13545 0.529846C4.92631 0.529846 3.13545 2.32071 3.13545 4.52985V9.72986L0.428151 11.6172C-0.174695 12.0374 -0.133526 12.9426 0.50498 13.3064L3.13545 14.8051V20.5298C3.13545 22.739 4.92631 24.5298 7.13545 24.5298H79.3344C81.5436 24.5298 83.3344 22.739 83.3344 20.5298V4.52985C83.3344 2.32071 81.5436 0.529846 79.3344 0.529846H7.13545Z" fill="#F3EFC4"/>
<path d="M10.126 8.30257H11.7241L14.5025 15.0867H14.6047L17.3831 8.30257H18.9812V17.0298H17.7283V10.7145H17.6474L15.0735 17.0171H14.0337L11.4599 10.7102H11.3789V17.0298H10.126V8.30257ZM22.6981 17.1747C22.2834 17.1747 21.9084 17.098 21.5731 16.9446C21.2379 16.7884 20.9723 16.5625 20.7763 16.2671C20.5831 15.9716 20.4865 15.6094 20.4865 15.1804C20.4865 14.8111 20.5575 14.5071 20.6996 14.2685C20.8416 14.0298 21.0334 13.8409 21.2748 13.7017C21.5163 13.5625 21.7862 13.4574 22.0845 13.3864C22.3828 13.3154 22.6868 13.2614 22.9964 13.2244C23.3885 13.179 23.7067 13.1421 23.951 13.1137C24.1953 13.0824 24.3728 13.0327 24.4836 12.9645C24.5944 12.8963 24.6498 12.7855 24.6498 12.6321V12.6023C24.6498 12.2301 24.5447 11.9418 24.3345 11.7372C24.1271 11.5327 23.8174 11.4304 23.4055 11.4304C22.9765 11.4304 22.6385 11.5256 22.3913 11.7159C22.147 11.9034 21.978 12.1122 21.8842 12.3423L20.6868 12.0696C20.8288 11.6719 21.0362 11.3509 21.3089 11.1066C21.5845 10.8594 21.9013 10.6804 22.2592 10.5696C22.6172 10.456 22.9936 10.3992 23.3885 10.3992C23.6498 10.3992 23.9268 10.4304 24.2194 10.4929C24.5149 10.5526 24.7905 10.6634 25.0461 10.8253C25.3047 10.9872 25.5163 11.2188 25.6811 11.5199C25.8459 11.8182 25.9282 12.206 25.9282 12.6833V17.0298H24.6839V16.135H24.6328C24.5504 16.2997 24.4268 16.4617 24.2621 16.6208C24.0973 16.7798 23.8856 16.9119 23.6271 17.0171C23.3686 17.1222 23.0589 17.1747 22.6981 17.1747ZM22.9751 16.152C23.3274 16.152 23.6285 16.0824 23.8785 15.9432C24.1314 15.804 24.3231 15.6222 24.4538 15.3977C24.5873 15.1705 24.6541 14.9276 24.6541 14.6691V13.8253C24.6086 13.8708 24.5206 13.9134 24.3899 13.9531C24.2621 13.9901 24.1157 14.0227 23.951 14.0512C23.7862 14.0767 23.6257 14.1009 23.4694 14.1236C23.3132 14.1435 23.1825 14.1605 23.0774 14.1747C22.8302 14.206 22.6044 14.2585 22.3998 14.3324C22.1981 14.4063 22.0362 14.5128 21.914 14.652C21.7947 14.7884 21.7351 14.9702 21.7351 15.1975C21.7351 15.5128 21.8515 15.7514 22.0845 15.9134C22.3174 16.0725 22.6143 16.152 22.9751 16.152ZM27.6253 17.0298V10.4844H28.8995V17.0298H27.6253ZM28.2688 9.47445C28.0472 9.47445 27.8569 9.40058 27.6978 9.25286C27.5415 9.10229 27.4634 8.92331 27.4634 8.71593C27.4634 8.5057 27.5415 8.32672 27.6978 8.17899C27.8569 8.02843 28.0472 7.95314 28.2688 7.95314C28.4904 7.95314 28.6793 8.02843 28.8356 8.17899C28.9947 8.32672 29.0742 8.5057 29.0742 8.71593C29.0742 8.92331 28.9947 9.10229 28.8356 9.25286C28.6793 9.40058 28.4904 9.47445 28.2688 9.47445ZM31.8878 13.1435V17.0298H30.6136V10.4844H31.8366V11.5497H31.9176C32.0682 11.2031 32.304 10.9247 32.625 10.7145C32.9488 10.5043 33.3565 10.3992 33.848 10.3992C34.294 10.3992 34.6846 10.4929 35.0199 10.6804C35.3551 10.8651 35.615 11.1406 35.7997 11.5071C35.9844 11.8736 36.0767 12.3267 36.0767 12.8665V17.0298H34.8025V13.0199C34.8025 12.5455 34.679 12.1747 34.4318 11.9077C34.1846 11.6378 33.8451 11.5029 33.4133 11.5029C33.1179 11.5029 32.8551 11.5668 32.625 11.6946C32.3977 11.8225 32.2173 12.01 32.0838 12.2571C31.9531 12.5014 31.8878 12.7969 31.8878 13.1435ZM40.9613 19.4844V10.4844H42.2056V11.5455H42.3121C42.386 11.4091 42.4925 11.2514 42.6317 11.0725C42.7709 10.8935 42.9641 10.7372 43.2113 10.6037C43.4584 10.4673 43.7851 10.3992 44.1914 10.3992C44.7198 10.3992 45.1914 10.5327 45.6062 10.7997C46.0209 11.0668 46.3462 11.4517 46.582 11.9546C46.8206 12.4574 46.94 13.0625 46.94 13.7699C46.94 14.4773 46.8221 15.0838 46.5863 15.5895C46.3505 16.0923 46.0266 16.4801 45.6147 16.7529C45.2027 17.0227 44.7326 17.1577 44.2042 17.1577C43.8064 17.1577 43.4812 17.0909 43.2283 16.9574C42.9783 16.8239 42.7823 16.6676 42.6402 16.4887C42.4982 16.3097 42.3888 16.1506 42.3121 16.0114H42.2354V19.4844H40.9613ZM42.2099 13.7571C42.2099 14.2173 42.2766 14.6208 42.4101 14.9673C42.5437 15.3139 42.7368 15.5852 42.9897 15.7813C43.2425 15.9744 43.5522 16.071 43.9187 16.071C44.2993 16.071 44.6175 15.9702 44.8732 15.7685C45.1289 15.5639 45.3221 15.2869 45.4527 14.9375C45.5863 14.5881 45.653 14.1946 45.653 13.7571C45.653 13.3253 45.5877 12.9375 45.457 12.5938C45.3292 12.25 45.136 11.9787 44.8775 11.7798C44.6218 11.581 44.3022 11.4816 43.9187 11.4816C43.5493 11.4816 43.2368 11.5767 42.9812 11.7671C42.7283 11.9574 42.5366 12.223 42.4059 12.5639C42.2752 12.9048 42.2099 13.3026 42.2099 13.7571ZM49.6417 13.1435V17.0298H48.3675V8.30257H49.6246V11.5497H49.7056C49.859 11.1975 50.0934 10.9176 50.4087 10.7102C50.7241 10.5029 51.136 10.3992 51.6445 10.3992C52.0934 10.3992 52.4854 10.4915 52.8206 10.6762C53.1587 10.8608 53.4201 11.1364 53.6047 11.5029C53.7922 11.8665 53.886 12.321 53.886 12.8665V17.0298H52.6118V13.0199C52.6118 12.5398 52.4883 12.1676 52.2411 11.9034C51.9939 11.6364 51.6502 11.5029 51.2099 11.5029C50.9087 11.5029 50.6388 11.5668 50.4002 11.6946C50.1644 11.8225 49.9783 12.01 49.842 12.2571C49.7084 12.5014 49.6417 12.7969 49.6417 13.1435ZM58.3434 17.1619C57.7297 17.1619 57.1942 17.0213 56.7368 16.7401C56.2795 16.4588 55.9243 16.0654 55.6715 15.5597C55.4187 15.054 55.2922 14.4631 55.2922 13.7869C55.2922 13.108 55.4187 12.5142 55.6715 12.0057C55.9243 11.4972 56.2795 11.1023 56.7368 10.821C57.1942 10.5398 57.7297 10.3992 58.3434 10.3992C58.957 10.3992 59.4925 10.5398 59.9499 10.821C60.4073 11.1023 60.7624 11.4972 61.0152 12.0057C61.2681 12.5142 61.3945 13.108 61.3945 13.7869C61.3945 14.4631 61.2681 15.054 61.0152 15.5597C60.7624 16.0654 60.4073 16.4588 59.9499 16.7401C59.4925 17.0213 58.957 17.1619 58.3434 17.1619ZM58.3476 16.0923C58.7454 16.0923 59.0749 15.9872 59.3363 15.777C59.5976 15.5668 59.7908 15.2869 59.9158 14.9375C60.0437 14.5881 60.1076 14.2031 60.1076 13.7827C60.1076 13.3651 60.0437 12.9816 59.9158 12.6321C59.7908 12.2798 59.5976 11.9972 59.3363 11.7841C59.0749 11.571 58.7454 11.4645 58.3476 11.4645C57.9471 11.4645 57.6147 11.571 57.3505 11.7841C57.0891 11.9972 56.8945 12.2798 56.7667 12.6321C56.6417 12.9816 56.5792 13.3651 56.5792 13.7827C56.5792 14.2031 56.6417 14.5881 56.7667 14.9375C56.8945 15.2869 57.0891 15.5668 57.3505 15.777C57.6147 15.9872 57.9471 16.0923 58.3476 16.0923ZM65.8721 10.4844V11.5071H62.2969V10.4844H65.8721ZM63.2557 8.91621H64.5298V15.108C64.5298 15.3551 64.5667 15.5412 64.6406 15.6662C64.7145 15.7884 64.8096 15.8722 64.9261 15.9176C65.0454 15.9602 65.1747 15.9816 65.3139 15.9816C65.4162 15.9816 65.5057 15.9744 65.5824 15.9602C65.6591 15.946 65.7187 15.9347 65.7613 15.9262L65.9915 16.9787C65.9176 17.0071 65.8125 17.0355 65.6761 17.0639C65.5398 17.0952 65.3693 17.1122 65.1648 17.1151C64.8295 17.1208 64.517 17.0611 64.2273 16.9361C63.9375 16.8111 63.7031 16.6179 63.5241 16.3566C63.3451 16.0952 63.2557 15.7671 63.2557 15.3722V8.91621ZM69.9684 17.1619C69.3547 17.1619 68.8192 17.0213 68.3618 16.7401C67.9045 16.4588 67.5493 16.0654 67.2965 15.5597C67.0437 15.054 66.9172 14.4631 66.9172 13.7869C66.9172 13.108 67.0437 12.5142 67.2965 12.0057C67.5493 11.4972 67.9045 11.1023 68.3618 10.821C68.8192 10.5398 69.3547 10.3992 69.9684 10.3992C70.582 10.3992 71.1175 10.5398 71.5749 10.821C72.0323 11.1023 72.3874 11.4972 72.6402 12.0057C72.8931 12.5142 73.0195 13.108 73.0195 13.7869C73.0195 14.4631 72.8931 15.054 72.6402 15.5597C72.3874 16.0654 72.0323 16.4588 71.5749 16.7401C71.1175 17.0213 70.582 17.1619 69.9684 17.1619ZM69.9726 16.0923C70.3704 16.0923 70.6999 15.9872 70.9613 15.777C71.2226 15.5668 71.4158 15.2869 71.5408 14.9375C71.6687 14.5881 71.7326 14.2031 71.7326 13.7827C71.7326 13.3651 71.6687 12.9816 71.5408 12.6321C71.4158 12.2798 71.2226 11.9972 70.9613 11.7841C70.6999 11.571 70.3704 11.4645 69.9726 11.4645C69.5721 11.4645 69.2397 11.571 68.9755 11.7841C68.7141 11.9972 68.5195 12.2798 68.3917 12.6321C68.2667 12.9816 68.2042 13.3651 68.2042 13.7827C68.2042 14.2031 68.2667 14.5881 68.3917 14.9375C68.5195 15.2869 68.7141 15.5668 68.9755 15.777C69.2397 15.9872 69.5721 16.0923 69.9726 16.0923Z" fill="#A59D4C"/>
</svg>
