<svg xmlns="http://www.w3.org/2000/svg" width="20" height="20" viewBox="0 0 20 20" fill="none">
  <path fill-rule="evenodd" clip-rule="evenodd" d="M7.18851 3.9145C6.97897 3.70496 6.97897 3.36523 7.18851 3.15569C7.39805 2.94615 7.73778 2.94615 7.94732 3.15569L13.8115 9.01986C13.942 9.15038 13.9912 9.3314 13.9592 9.50001C13.9912 9.66862 13.942 9.84964 13.8115 9.98015L7.94732 15.8443C7.73778 16.0539 7.39805 16.0539 7.18851 15.8443C6.97897 15.6348 6.97897 15.2951 7.18851 15.0855L12.774 9.50001L7.18851 3.9145Z" fill="#50B8E4"/>
  <mask id="mask0_4167_3764" style="mask-type:luminance" maskUnits="userSpaceOnUse" x="7" y="2" width="7" height="15">
    <path fill-rule="evenodd" clip-rule="evenodd" d="M7.18851 3.9145C6.97897 3.70496 6.97897 3.36523 7.18851 3.15569C7.39805 2.94615 7.73778 2.94615 7.94732 3.15569L13.8115 9.01986C13.942 9.15038 13.9912 9.3314 13.9592 9.50001C13.9912 9.66862 13.942 9.84964 13.8115 9.98015L7.94732 15.8443C7.73778 16.0539 7.39805 16.0539 7.18851 15.8443C6.97897 15.6348 6.97897 15.2951 7.18851 15.0855L12.774 9.50001L7.18851 3.9145Z" fill="white"/>
  </mask>
  <g mask="url(#mask0_4167_3764)">
  </g>
</svg>

