<svg xmlns="http://www.w3.org/2000/svg" width="16" height="17" viewBox="0 0 16 17" fill="none">
  <path d="M5.33325 7.30145C5.33325 7.85374 4.88554 8.30145 4.33325 8.30145C3.78097 8.30145 3.33325 7.85374 3.33325 7.30145C3.33325 6.74917 3.78097 6.30145 4.33325 6.30145C4.88554 6.30145 5.33325 6.74917 5.33325 7.30145Z" fill="#A6B2D3"/>
  <path d="M6.99991 5.63477C7.55219 5.63477 7.99991 5.18705 7.99991 4.63477C7.99991 4.08248 7.55219 3.63477 6.99991 3.63477C6.44762 3.63477 5.99991 4.08248 5.99991 4.63477C5.99991 5.18705 6.44762 5.63477 6.99991 5.63477Z" fill="#A6B2D3"/>
  <path d="M11.3333 4.63477C11.3333 5.18705 10.8855 5.63477 10.3333 5.63477C9.78097 5.63477 9.33325 5.18705 9.33325 4.63477C9.33325 4.08248 9.78097 3.63477 10.3333 3.63477C10.8855 3.63477 11.3333 4.08248 11.3333 4.63477Z" fill="#A6B2D3"/>
  <path d="M4.99991 11.6348C5.55219 11.6348 5.99991 11.1871 5.99991 10.6348C5.99991 10.0825 5.55219 9.63477 4.99991 9.63477C4.44762 9.63477 3.99991 10.0825 3.99991 10.6348C3.99991 11.1871 4.44762 11.6348 4.99991 11.6348Z" fill="#A6B2D3"/>
  <path fill-rule="evenodd" clip-rule="evenodd" d="M0.583252 8.30143C0.583252 4.20532 3.90381 0.884766 7.99992 0.884766C12.0181 0.884766 15.4166 3.81334 15.4166 7.63477V7.64369C15.4166 7.90021 15.4166 8.30458 15.3315 8.77992C15.1115 10.0096 14.1215 10.7036 13.1267 11.0159C12.127 11.3297 10.9538 11.3258 9.9922 11.0488C9.82497 11.0006 9.71958 11.0167 9.65543 11.0399C9.58842 11.0641 9.51525 11.1148 9.44545 11.213C9.29647 11.4226 9.19965 11.8092 9.29033 12.2626L9.40439 12.8329L9.40638 12.8448C9.64842 14.297 8.50708 15.8285 6.8531 15.5459C4.74879 15.1864 3.16251 14.2758 2.1072 12.9663C1.05622 11.6622 0.583252 10.0264 0.583252 8.30143ZM7.99992 2.38477C4.73223 2.38477 2.08325 5.03375 2.08325 8.30143C2.08325 9.75511 2.47982 11.0382 3.27515 12.0251C4.06614 13.0066 5.30294 13.7594 7.10571 14.0674C7.54181 14.1419 8.02841 13.7375 7.92848 13.1018L7.81946 12.5568C7.6646 11.7824 7.78866 10.9549 8.22274 10.3441C8.44447 10.0321 8.75336 9.77086 9.14593 9.62909C9.54136 9.48629 9.97306 9.48231 10.4074 9.60742C11.0964 9.80589 11.9687 9.80723 12.6774 9.58475C13.391 9.36073 13.7725 8.9768 13.855 8.51568C13.9156 8.1773 13.9166 7.88575 13.9166 7.63477C13.9166 4.78952 11.3456 2.38477 7.99992 2.38477Z" fill="#A6B2D3"/>
</svg>