<svg xmlns="http://www.w3.org/2000/svg" width="18" height="18" viewBox="0 0 18 18" fill="none">
  <path fill-rule="evenodd" clip-rule="evenodd" d="M8.99992 1.29167C9.80667 1.29167 10.5833 1.41539 11.3126 1.64445C11.642 1.74788 11.9928 1.56477 12.0962 1.23545C12.1996 0.906132 12.0165 0.555319 11.6872 0.451887C10.8381 0.185199 9.93518 0.041666 8.99992 0.041666C4.05237 0.041666 0.0415859 4.05245 0.0415859 9C0.0415859 13.9475 4.05237 17.9583 8.99992 17.9583C13.9475 17.9583 17.9583 13.9475 17.9583 9C17.9583 6.49413 16.9286 4.22763 15.2708 2.60249C15.0243 2.36085 14.6286 2.36479 14.3869 2.61128C14.1453 2.85777 14.1492 3.25348 14.3957 3.49512C15.8236 4.89485 16.7083 6.84354 16.7083 9C16.7083 13.2572 13.2571 16.7083 8.99992 16.7083C4.74272 16.7083 1.29159 13.2572 1.29159 9C1.29159 4.7428 4.74272 1.29167 8.99992 1.29167Z" fill="#50B8E4"/>
  <path fill-rule="evenodd" clip-rule="evenodd" d="M6.52307 6.96305C6.52307 5.6974 7.54909 4.67139 8.81474 4.67139H9.18511C10.4508 4.67139 11.4768 5.6974 11.4768 6.96305V7.14824C11.4768 7.49342 11.197 7.77324 10.8518 7.77324C10.5066 7.77324 10.2268 7.49342 10.2268 7.14824V6.96305C10.2268 6.38776 9.7604 5.92139 9.18511 5.92139H8.81474C8.23944 5.92139 7.77307 6.38776 7.77307 6.96305V7.04411C7.77307 7.43866 7.99599 7.79935 8.34889 7.9758L10.21 8.90634C10.9864 9.29453 11.4768 10.0881 11.4768 10.9561V11.0371C11.4768 12.3028 10.4508 13.3288 9.18511 13.3288H8.81474C7.54909 13.3288 6.52307 12.3028 6.52307 11.0371V10.8519C6.52307 10.5068 6.80289 10.2269 7.14807 10.2269C7.49325 10.2269 7.77307 10.5068 7.77307 10.8519V11.0371C7.77307 11.6124 8.23944 12.0788 8.81474 12.0788H9.18511C9.76041 12.0788 10.2268 11.6124 10.2268 11.0371V10.9561C10.2268 10.5615 10.0039 10.2008 9.65096 10.0244L7.78987 9.09384C7.01349 8.70565 6.52307 7.91213 6.52307 7.04411V6.96305Z" fill="#50B8E4"/>
  <path fill-rule="evenodd" clip-rule="evenodd" d="M9 2.81958C9.34518 2.81958 9.625 3.0994 9.625 3.44458V5.29643C9.625 5.64161 9.34518 5.92143 9 5.92143C8.65482 5.92143 8.375 5.64161 8.375 5.29643V3.44458C8.375 3.0994 8.65482 2.81958 9 2.81958Z" fill="#50B8E4"/>
  <path fill-rule="evenodd" clip-rule="evenodd" d="M9 12.0786C9.34518 12.0786 9.625 12.3584 9.625 12.7036V14.5555C9.625 14.9006 9.34518 15.1805 9 15.1805C8.65482 15.1805 8.375 14.9006 8.375 14.5555V12.7036C8.375 12.3584 8.65482 12.0786 9 12.0786Z" fill="#50B8E4"/>
</svg>
