<svg xmlns="http://www.w3.org/2000/svg" width="16" height="17" viewBox="0 0 16 17" fill="none">
  <path fill-rule="evenodd" clip-rule="evenodd" d="M7.99992 3.71802C6.94137 3.71802 6.08325 4.57614 6.08325 5.63468C6.08325 6.69323 6.94137 7.55135 7.99992 7.55135C9.05847 7.55135 9.91659 6.69323 9.91659 5.63468C9.91659 4.57614 9.05847 3.71802 7.99992 3.71802ZM4.58325 5.63468C4.58325 3.74771 6.11295 2.21802 7.99992 2.21802C9.88689 2.21802 11.4166 3.74771 11.4166 5.63468C11.4166 7.52166 9.88689 9.05135 7.99992 9.05135C6.11295 9.05135 4.58325 7.52166 4.58325 5.63468ZM5.00446 11.5285C4.31934 11.8327 4.08325 12.2032 4.08325 12.6347C4.08325 12.7737 4.10786 12.8412 4.13538 12.8851C4.16292 12.929 4.23986 13.0232 4.47573 13.1299C4.98559 13.3605 6.01199 13.5514 7.99992 13.5514C9.98785 13.5514 11.0142 13.3605 11.5241 13.1299C11.76 13.0232 11.8369 12.929 11.8645 12.8851C11.892 12.8412 11.9166 12.7737 11.9166 12.6347C11.9166 12.2032 11.6805 11.8327 10.9954 11.5285C10.2891 11.2148 9.24296 11.0514 7.99992 11.0514C6.75688 11.0514 5.71076 11.2148 5.00446 11.5285ZM4.39571 10.1576C5.37841 9.72119 6.66563 9.55135 7.99992 9.55135C9.33421 9.55135 10.6214 9.72119 11.6041 10.1576C12.608 10.6033 13.4166 11.3995 13.4166 12.6347C13.4166 12.956 13.3579 13.3269 13.1354 13.6818C12.9129 14.0366 12.5732 14.3016 12.1424 14.4965C11.3189 14.8691 10.012 15.0514 7.99992 15.0514C5.98785 15.0514 4.68091 14.8691 3.85744 14.4965C3.42665 14.3016 3.08692 14.0366 2.86446 13.6818C2.64197 13.3269 2.58325 12.956 2.58325 12.6347C2.58325 11.3995 3.39183 10.6033 4.39571 10.1576Z" fill="#A6B2D3"/>
</svg>