<svg xmlns="http://www.w3.org/2000/svg" width="11" height="10" viewBox="0 0 11 10" fill="none">
<path d="M5.04449 0.626862C5.04449 0.375276 5.24845 0.171326 5.50003 0.171326C5.75162 0.171326 5.95557 0.375276 5.95557 0.626862V9.37314C5.95557 9.62472 5.75162 9.82867 5.50003 9.82867C5.24845 9.82867 5.04449 9.62472 5.04449 9.37314V0.626862Z" fill="white"/>
<path d="M1.12686 5.45555C0.875276 5.45555 0.671326 5.2516 0.671326 5.00002C0.671326 4.74843 0.875276 4.54448 1.12686 4.54448L9.87314 4.54448C10.1247 4.54448 10.3287 4.74843 10.3287 5.00001C10.3287 5.2516 10.1247 5.45555 9.87314 5.45555L1.12686 5.45555Z" fill="white"/>
</svg>