<svg xmlns="http://www.w3.org/2000/svg" width="12" height="13" viewBox="0 0 12 13" fill="none">
  <g clip-path="url(#clip0_4167_4055)">
    <path d="M6.0119 11.8613C4.98233 11.8613 3.95276 11.863 2.92319 11.8607C2.33271 11.8593 1.96389 11.5481 1.87404 10.9889C1.83069 10.7186 1.78979 10.4474 1.73105 10.1801C1.57059 9.45063 1.40243 8.72253 1.23567 7.99444C1.10842 7.44022 0.967878 6.88833 0.853559 6.33179C0.774899 5.94912 0.93082 5.63594 1.26364 5.41518C1.59471 5.19543 1.9492 5.18512 2.2988 5.37629C2.67287 5.58075 3.0396 5.79719 3.40948 6.0083C3.59022 6.1117 3.64441 6.09807 3.75104 5.91986C4.19957 5.17116 4.65231 4.42411 5.0949 3.67208C5.29592 3.33031 5.57595 3.11553 5.99861 3.11487C6.42093 3.1142 6.70306 3.32499 6.90478 3.66776C7.34947 4.42345 7.80429 5.17382 8.25563 5.92618C8.35736 6.09574 8.41365 6.11037 8.58845 6.01096C8.96636 5.79619 9.33904 5.57277 9.72255 5.36798C10.0742 5.18013 10.4301 5.20241 10.7563 5.42749C11.0811 5.65123 11.2188 5.96209 11.1486 6.34076C11.101 6.59743 11.0349 6.8511 10.9752 7.10576C10.7713 7.97482 10.5577 8.84189 10.3662 9.71361C10.2735 10.1348 10.2183 10.5634 10.1501 10.9893C10.0596 11.5528 9.68933 11.86 9.08837 11.8613C8.40351 11.863 7.71864 11.8617 7.03378 11.8617C6.69257 11.8613 6.35206 11.8613 6.0119 11.8613ZM9.57816 9.45794C9.5862 9.44464 9.5925 9.43833 9.59389 9.43068C9.84141 8.36746 10.0896 7.30424 10.3322 6.24003C10.3438 6.18982 10.3221 6.10538 10.2844 6.08044C10.2462 6.05551 10.1578 6.06781 10.1099 6.09408C9.74387 6.29488 9.38239 6.50334 9.01915 6.70913C8.44581 7.03362 7.8854 6.89265 7.55363 6.33943C7.08971 5.56579 6.62684 4.79148 6.16223 4.01784C6.0542 3.83765 5.96855 3.83831 5.85947 4.01884C5.69236 4.29545 5.52665 4.57272 5.36025 4.84966C5.0491 5.36764 4.7439 5.88895 4.42577 6.40293C4.137 6.86971 3.5703 7.00769 3.07771 6.74404C2.998 6.70149 2.92039 6.65527 2.84173 6.61072C2.53094 6.43452 2.22224 6.25565 1.90795 6.08543C1.86075 6.05983 1.7758 6.05451 1.7321 6.07878C1.69749 6.09807 1.69679 6.17653 1.68735 6.22939C1.68316 6.25233 1.69435 6.27826 1.69994 6.30253C1.83768 6.89698 1.97577 7.49142 2.11421 8.08553C2.22049 8.54167 2.32747 8.99748 2.4348 9.45728C4.82256 9.45794 7.20228 9.45794 9.57816 9.45794ZM9.42469 10.2881C7.14285 10.2881 4.87605 10.2881 2.59946 10.2881C2.63267 10.4793 2.66239 10.6591 2.69525 10.8383C2.73545 11.0578 2.74524 11.0647 2.98262 11.0647C5.00086 11.0647 7.01944 11.0647 9.03768 11.0647C9.08558 11.0647 9.13872 11.0744 9.17997 11.0581C9.22681 11.0395 9.29044 11.0019 9.29918 10.963C9.34848 10.7413 9.38379 10.5172 9.42469 10.2881Z" fill="white"/>
    <path d="M6.0042 2.29651C5.6186 2.29801 5.30431 1.96585 5.30081 1.5529C5.29731 1.14108 5.61021 0.8029 5.99581 0.801397C6.38352 0.799894 6.69536 1.12905 6.69921 1.54388C6.7027 1.9542 6.38806 2.29501 6.0042 2.29651Z" fill="white"/>
    <path d="M1.07475e-05 4.55434C-0.00208685 4.1365 0.303113 3.80321 0.69047 3.79983C1.07433 3.79645 1.39072 4.13199 1.39247 4.54419C1.39421 4.95639 1.08272 5.29682 0.699559 5.30058C0.316748 5.30434 0.00210834 4.96879 1.07475e-05 4.55434Z" fill="white"/>
    <path d="M11.9999 4.54656C12.0006 4.96289 11.6922 5.29882 11.3073 5.30069C10.9259 5.30257 10.6088 4.96327 10.6074 4.5522C10.606 4.13925 10.9175 3.8022 11.3024 3.79994C11.6884 3.79731 11.9992 4.12985 11.9999 4.54656Z" fill="white"/>
  </g>
  <defs>
    <clipPath id="clip0_4167_4055">
      <rect width="12" height="12" fill="white" transform="translate(0 0.801392)"/>
    </clipPath>
  </defs>
</svg>