<svg xmlns="http://www.w3.org/2000/svg" width="20" height="21" viewBox="0 0 20 21" fill="none">
  <g opacity="0.2">
    <path fill-rule="evenodd" clip-rule="evenodd" d="M13.8116 4.71577C14.0211 4.50623 14.0211 4.1665 13.8116 3.95696C13.6021 3.74742 13.2623 3.74742 13.0528 3.95696L7.18861 9.82113C7.0581 9.95165 7.00888 10.1327 7.04095 10.3013C7.00888 10.4699 7.0581 10.6509 7.18861 10.7814L13.0528 16.6456C13.2623 16.8551 13.6021 16.8551 13.8116 16.6456C14.0211 16.4361 14.0211 16.0963 13.8116 15.8868L8.22609 10.3013L13.8116 4.71577Z" fill="#50B8E4"/>
    <mask id="mask0_4167_3760" style="mask-type:luminance" maskUnits="userSpaceOnUse" x="7" y="3" width="7" height="14">
      <path fill-rule="evenodd" clip-rule="evenodd" d="M13.8116 4.71577C14.0211 4.50623 14.0211 4.1665 13.8116 3.95696C13.6021 3.74742 13.2623 3.74742 13.0528 3.95696L7.18861 9.82113C7.0581 9.95165 7.00888 10.1327 7.04095 10.3013C7.00888 10.4699 7.0581 10.6509 7.18861 10.7814L13.0528 16.6456C13.2623 16.8551 13.6021 16.8551 13.8116 16.6456C14.0211 16.4361 14.0211 16.0963 13.8116 15.8868L8.22609 10.3013L13.8116 4.71577Z" fill="white"/>
    </mask>
    <g mask="url(#mask0_4167_3760)">
    </g>
  </g>
</svg>