<svg xmlns="http://www.w3.org/2000/svg" width="20" height="20" viewBox="0 0 20 20" fill="none">
  <g opacity="0.2">
    <path fill-rule="evenodd" clip-rule="evenodd" d="M13.8115 3.9145C14.021 3.70496 14.021 3.36523 13.8115 3.15569C13.602 2.94615 13.2622 2.94615 13.0527 3.15569L7.18852 9.01986C7.05801 9.15038 7.00878 9.3314 7.04085 9.50001C7.00878 9.66862 7.05801 9.84964 7.18852 9.98015L13.0527 15.8443C13.2622 16.0539 13.602 16.0539 13.8115 15.8443C14.021 15.6348 14.021 15.2951 13.8115 15.0855L8.22599 9.50001L13.8115 3.9145Z" fill="#50B8E4"/>
    <mask id="mask0_4167_3760" style="mask-type:luminance" maskUnits="userSpaceOnUse" x="7" y="2" width="7" height="15">
      <path fill-rule="evenodd" clip-rule="evenodd" d="M13.8115 3.9145C14.021 3.70496 14.021 3.36523 13.8115 3.15569C13.602 2.94615 13.2622 2.94615 13.0527 3.15569L7.18852 9.01986C7.05801 9.15038 7.00878 9.3314 7.04085 9.50001C7.00878 9.66862 7.05801 9.84964 7.18852 9.98015L13.0527 15.8443C13.2622 16.0539 13.602 16.0539 13.8115 15.8443C14.021 15.6348 14.021 15.2951 13.8115 15.0855L8.22599 9.50001L13.8115 3.9145Z" fill="white"/>
    </mask>
    <g mask="url(#mask0_4167_3760)">
    </g>
  </g>
</svg>