<svg xmlns="http://www.w3.org/2000/svg" width="16" height="18" viewBox="0 0 16 18" fill="none">
  <path fill-rule="evenodd" clip-rule="evenodd" d="M0.916626 1.5C0.916626 1.15482 1.19645 0.875 1.54163 0.875H4.87496C5.22014 0.875 5.49996 1.15482 5.49996 1.5V4.83333C5.49996 5.17851 5.22014 5.45833 4.87496 5.45833H1.54163C1.19645 5.45833 0.916626 5.17851 0.916626 4.83333V1.5ZM2.16663 2.125V4.20833H4.24996V2.125H2.16663Z" fill="#50B8E4"/>
  <path fill-rule="evenodd" clip-rule="evenodd" d="M0.916626 7.33333C0.916626 6.98816 1.19645 6.70833 1.54163 6.70833H4.87496C5.22014 6.70833 5.49996 6.98816 5.49996 7.33333V10.6667C5.49996 11.0118 5.22014 11.2917 4.87496 11.2917H1.54163C1.19645 11.2917 0.916626 11.0118 0.916626 10.6667V7.33333ZM2.16663 7.95833V10.0417H4.24996V7.95833H2.16663Z" fill="#50B8E4"/>
  <path fill-rule="evenodd" clip-rule="evenodd" d="M0.916626 13.1667C0.916626 12.8215 1.19645 12.5417 1.54163 12.5417H4.87496C5.22014 12.5417 5.49996 12.8215 5.49996 13.1667V14C5.49996 14.3452 5.22014 14.625 4.87496 14.625C4.52978 14.625 4.24996 14.3452 4.24996 14V13.7917H2.16663V15.875H4.87496C5.22014 15.875 5.49996 16.1548 5.49996 16.5C5.49996 16.8452 5.22014 17.125 4.87496 17.125H1.54163C1.19645 17.125 0.916626 16.8452 0.916626 16.5V13.1667Z" fill="#50B8E4"/>
  <path fill-rule="evenodd" clip-rule="evenodd" d="M6.33325 1.91667C6.33325 1.57149 6.61307 1.29167 6.95825 1.29167H10.2916C10.6368 1.29167 10.9166 1.57149 10.9166 1.91667C10.9166 2.26184 10.6368 2.54167 10.2916 2.54167H6.95825C6.61307 2.54167 6.33325 2.26184 6.33325 1.91667Z" fill="#50B8E4"/>
  <path fill-rule="evenodd" clip-rule="evenodd" d="M6.33325 7.75C6.33325 7.40482 6.61307 7.125 6.95825 7.125H10.2916C10.6368 7.125 10.9166 7.40482 10.9166 7.75C10.9166 8.09518 10.6368 8.375 10.2916 8.375H6.95825C6.61307 8.375 6.33325 8.09518 6.33325 7.75Z" fill="#50B8E4"/>
  <path fill-rule="evenodd" clip-rule="evenodd" d="M6.33325 13.5833C6.33325 13.2382 6.61307 12.9583 6.95825 12.9583H10.2916C10.6368 12.9583 10.9166 13.2382 10.9166 13.5833C10.9166 13.9285 10.6368 14.2083 10.2916 14.2083H6.95825C6.61307 14.2083 6.33325 13.9285 6.33325 13.5833Z" fill="#50B8E4"/>
  <path fill-rule="evenodd" clip-rule="evenodd" d="M6.33325 4.41667C6.33325 4.07149 6.61307 3.79167 6.95825 3.79167H14.4583C14.8034 3.79167 15.0833 4.07149 15.0833 4.41667C15.0833 4.76184 14.8034 5.04167 14.4583 5.04167H6.95825C6.61307 5.04167 6.33325 4.76184 6.33325 4.41667Z" fill="#50B8E4"/>
  <path fill-rule="evenodd" clip-rule="evenodd" d="M6.33325 10.25C6.33325 9.90482 6.61307 9.625 6.95825 9.625H14.4583C14.8034 9.625 15.0833 9.90482 15.0833 10.25C15.0833 10.5952 14.8034 10.875 14.4583 10.875H6.95825C6.61307 10.875 6.33325 10.5952 6.33325 10.25Z" fill="#50B8E4"/>
  <path fill-rule="evenodd" clip-rule="evenodd" d="M6.33325 16.0833C6.33325 15.7382 6.61307 15.4583 6.95825 15.4583H14.4583C14.8034 15.4583 15.0833 15.7382 15.0833 16.0833C15.0833 16.4285 14.8034 16.7083 14.4583 16.7083H6.95825C6.61307 16.7083 6.33325 16.4285 6.33325 16.0833Z" fill="#50B8E4"/>
</svg>