<svg xmlns="http://www.w3.org/2000/svg" width="20" height="20" viewBox="0 0 20 20" fill="none">
  <path fill-rule="evenodd" clip-rule="evenodd" d="M7.75 1C7.75 0.585786 8.08579 0.25 8.5 0.25H11.5C11.9142 0.25 12.25 0.585786 12.25 1V2.58187C12.7404 2.73044 13.2102 2.92626 13.6541 3.16395L14.773 2.04505C15.0659 1.75216 15.5407 1.75216 15.8336 2.04505L17.955 4.16637C18.0956 4.30702 18.1746 4.49779 18.1746 4.6967C18.1746 4.89561 18.0956 5.08638 17.955 5.22703L16.836 6.34593C17.0737 6.78976 17.2696 7.25957 17.4181 7.75H19C19.4142 7.75 19.75 8.08579 19.75 8.5V11.5C19.75 11.9142 19.4142 12.25 19 12.25H17.4181C17.2696 12.7404 17.0737 13.2102 16.836 13.6541L17.955 14.773C18.2478 15.0659 18.2478 15.5407 17.955 15.8336L15.8336 17.955C15.5407 18.2478 15.0659 18.2478 14.773 17.955L13.6541 16.836C13.2102 17.0737 12.7404 17.2696 12.25 17.4181V19C12.25 19.4142 11.9142 19.75 11.5 19.75H8.5C8.08579 19.75 7.75 19.4142 7.75 19V17.4181C7.25957 17.2696 6.78976 17.0737 6.34593 16.836L5.22703 17.955C5.08638 18.0956 4.89561 18.1746 4.6967 18.1746C4.49779 18.1746 4.30702 18.0956 4.16637 17.955L2.04505 15.8336C1.75216 15.5407 1.75216 15.0659 2.04505 14.773L3.16395 13.6541C2.92626 13.2102 2.73044 12.7404 2.58187 12.25H1C0.585786 12.25 0.25 11.9142 0.25 11.5V8.5C0.25 8.08579 0.585786 7.75 1 7.75H2.58187C2.73044 7.25957 2.92626 6.78976 3.16395 6.34593L2.04505 5.22703C1.75216 4.93414 1.75216 4.45926 2.04505 4.16637L4.16637 2.04505C4.45926 1.75216 4.93414 1.75216 5.22703 2.04505L6.34593 3.16395C6.78976 2.92626 7.25957 2.73044 7.75 2.58187V1ZM9.25 1.75V3.16109C9.25 3.51366 9.00443 3.81863 8.65998 3.89383C7.92733 4.05378 7.24254 4.3424 6.63025 4.73521C6.33351 4.92558 5.94423 4.88357 5.69494 4.63428L4.6967 3.63604L3.63604 4.6967L4.63428 5.69494C4.88357 5.94423 4.92558 6.33351 4.73521 6.63025C4.3424 7.24254 4.05378 7.92733 3.89383 8.65998C3.81863 9.00443 3.51366 9.25 3.16109 9.25H1.75V10.75H3.16109C3.51366 10.75 3.81863 10.9956 3.89383 11.34C4.05378 12.0727 4.3424 12.7575 4.73521 13.3698C4.92558 13.6665 4.88357 14.0558 4.63428 14.3051L3.63604 15.3033L4.6967 16.364L5.69494 15.3657C5.94423 15.1164 6.33351 15.0744 6.63025 15.2648C7.24254 15.6576 7.92733 15.9462 8.65998 16.1062C9.00443 16.1814 9.25 16.4863 9.25 16.8389V18.25H10.75V16.8389C10.75 16.4863 10.9956 16.1814 11.34 16.1062C12.0727 15.9462 12.7575 15.6576 13.3698 15.2648C13.6665 15.0744 14.0558 15.1164 14.3051 15.3657L15.3033 16.364L16.364 15.3033L15.3657 14.3051C15.1164 14.0558 15.0744 13.6665 15.2648 13.3698C15.6576 12.7575 15.9462 12.0727 16.1062 11.34C16.1814 10.9956 16.4863 10.75 16.8389 10.75H18.25V9.25H16.8389C16.4863 9.25 16.1814 9.00443 16.1062 8.65998C15.9462 7.92733 15.6576 7.24254 15.2648 6.63025C15.0744 6.33351 15.1164 5.94423 15.3657 5.69494L16.364 4.6967L15.3033 3.63604L14.3051 4.63428C14.0558 4.88357 13.6665 4.92558 13.3698 4.73521C12.7575 4.3424 12.0727 4.05378 11.34 3.89383C10.9956 3.81863 10.75 3.51366 10.75 3.16109V1.75H9.25Z" fill="#8A8A8A"/>
  <path fill-rule="evenodd" clip-rule="evenodd" d="M9.82935 12.25C11.072 12.25 12.0793 11.2426 12.0793 10C12.0793 8.75736 11.072 7.75 9.82935 7.75C9.56503 7.75 9.3129 7.79526 9.07928 7.87784C8.68874 8.01587 8.26025 7.81118 8.12222 7.42064C7.98418 7.0301 8.18887 6.60161 8.57941 6.46358C8.97135 6.32505 9.39239 6.25 9.82935 6.25C11.9004 6.25 13.5793 7.92893 13.5793 10C13.5793 12.0711 11.9004 13.75 9.82935 13.75C8.1954 13.75 6.80736 12.7054 6.29292 11.2499C6.15489 10.8594 6.35958 10.4309 6.75012 10.2929C7.14065 10.1548 7.56915 10.3595 7.70718 10.7501C8.01642 11.625 8.85085 12.25 9.82935 12.25Z" fill="#8A8A8A"/>
</svg>