<svg xmlns="http://www.w3.org/2000/svg" width="18" height="18" viewBox="0 0 18 18" fill="none">
  <path fill-rule="evenodd" clip-rule="evenodd" d="M0.666626 0.0416718C1.0118 0.0416718 1.29163 0.321494 1.29163 0.666672V12.3333C1.29163 12.6785 1.0118 12.9583 0.666626 12.9583C0.321448 12.9583 0.041626 12.6785 0.041626 12.3333V0.666672C0.041626 0.321494 0.321448 0.0416718 0.666626 0.0416718ZM0.666626 15.0417C1.0118 15.0417 1.29163 15.3215 1.29163 15.6667C1.29163 16.242 1.758 16.7083 2.33329 16.7083H17.3333C17.6785 16.7083 17.9583 16.9882 17.9583 17.3333C17.9583 17.6785 17.6785 17.9583 17.3333 17.9583H2.33329C1.06764 17.9583 0.041626 16.9323 0.041626 15.6667C0.041626 15.3215 0.321448 15.0417 0.666626 15.0417Z" fill="#50B8E4"/>
  <path fill-rule="evenodd" clip-rule="evenodd" d="M10.875 1.5C10.875 1.15482 11.1548 0.875 11.5 0.875H15.6667C16.0118 0.875 16.2917 1.15482 16.2917 1.5V14.8333C16.2917 15.1785 16.0118 15.4583 15.6667 15.4583H11.5C11.1548 15.4583 10.875 15.1785 10.875 14.8333V1.5ZM12.125 2.125V14.2083H15.0417V2.125H12.125Z" fill="#50B8E4"/>
  <path fill-rule="evenodd" clip-rule="evenodd" d="M6.70825 4.83334C6.70825 4.48817 6.98807 4.20834 7.33325 4.20834H11.4999C11.8451 4.20834 12.1249 4.48817 12.1249 4.83334V14.8333C12.1249 15.1785 11.8451 15.4583 11.4999 15.4583H7.33325C6.98807 15.4583 6.70825 15.1785 6.70825 14.8333V4.83334ZM7.95825 5.45834V14.2083H10.8749V5.45834H7.95825Z" fill="#50B8E4"/>
  <path fill-rule="evenodd" clip-rule="evenodd" d="M2.54163 9C2.54163 8.65482 2.82145 8.375 3.16663 8.375H7.33329C7.67847 8.375 7.95829 8.65482 7.95829 9V14.8333C7.95829 15.1785 7.67847 15.4583 7.33329 15.4583H3.16663C2.82145 15.4583 2.54163 15.1785 2.54163 14.8333V9ZM3.79163 9.625V14.2083H6.70829V9.625H3.79163Z" fill="#50B8E4"/>
</svg>