<svg xmlns="http://www.w3.org/2000/svg" width="12" height="13" viewBox="0 0 12 13" fill="none">
  <g clip-path="url(#clip0_4229_809)">
    <path d="M6.16411 0.301392C6.3263 0.372642 6.50318 0.421704 6.64724 0.519517C6.94599 0.722954 7.09849 1.02295 7.10099 1.38545C7.10349 1.71264 7.11599 2.04327 7.0738 2.36608C7.00411 2.89795 6.55318 3.25483 6.00599 3.25639C5.4513 3.25795 4.99318 2.90327 4.92755 2.36608C4.88286 2.00108 4.88068 1.62483 4.91193 1.25795C4.95099 0.797954 5.29036 0.450454 5.73943 0.334204C5.77224 0.325767 5.8038 0.312642 5.8363 0.301704C5.94568 0.301704 6.05505 0.301704 6.16443 0.301704L6.16411 0.301392Z" fill="#A6B2D3"/>
    <path d="M5.83598 12.3014C5.82254 12.2948 5.80942 12.2851 5.79504 12.282C5.29629 12.1736 4.97785 11.8757 4.92192 11.3732C4.88004 10.997 4.87785 10.6064 4.92754 10.2317C5.0016 9.67418 5.53942 9.29981 6.11098 9.34981C6.65254 9.39699 7.09067 9.86512 7.1016 10.4161C7.10723 10.6967 7.11067 10.9779 7.0991 11.2586C7.07785 11.777 6.73535 12.1711 6.22817 12.2786C6.20629 12.2832 6.18535 12.2936 6.1641 12.3014H5.83598Z" fill="#A6B2D3"/>
    <path d="M6.83593e-05 6.16072C0.00944336 6.12791 0.0206934 6.09572 0.0278809 6.06259C0.123506 5.61666 0.458506 5.27166 0.911006 5.22916C1.28882 5.19353 1.67694 5.18478 2.05288 5.22853C2.61694 5.29447 2.99194 5.81697 2.95413 6.40728C2.92007 6.93853 2.45538 7.38728 1.90851 7.40416C1.61257 7.41322 1.31538 7.41509 1.01944 7.40072C0.513506 7.37634 0.114756 7.01541 0.0228809 6.51791C0.0181934 6.49197 0.00756836 6.46728 -0.000244141 6.44197C-0.000244141 6.34822 -0.000244141 6.25447 -0.000244141 6.16072H6.83593e-05Z" fill="#A6B2D3"/>
    <path d="M11.9999 6.44203C11.9849 6.49766 11.9699 6.55328 11.9549 6.60891C11.8358 7.05703 11.4577 7.37703 10.9902 7.39985C10.6708 7.41547 10.3493 7.41703 10.0299 7.39985C9.52645 7.37297 9.08114 6.9161 9.04583 6.41422C9.00552 5.83797 9.36145 5.30766 9.90739 5.23641C10.3127 5.18328 10.7355 5.19141 11.1424 5.24016C11.5874 5.2936 11.894 5.65078 11.9768 6.09516C11.9824 6.12516 11.9921 6.15453 11.9999 6.18422V6.44203Z" fill="#A6B2D3"/>
    <path d="M4.17663 9.15582C4.17788 9.538 4.05944 9.79175 3.85757 10.0061C3.67038 10.2046 3.48038 10.4027 3.27663 10.5836C2.92163 10.8986 2.51351 10.9589 2.07913 10.7718C1.67038 10.5958 1.41694 10.1793 1.43257 9.733C1.44194 9.46207 1.53569 9.22113 1.72319 9.02394C1.90882 8.82894 2.09538 8.63394 2.29382 8.45238C2.64257 8.13332 3.04538 8.02144 3.49069 8.2205C3.92319 8.41394 4.15226 8.76019 4.17663 9.15613V9.15582Z" fill="#A6B2D3"/>
    <path d="M3.12809 4.47826C2.78184 4.47451 2.53028 4.38201 2.3234 4.18545C2.1284 4.00014 1.9334 3.81326 1.75184 3.61482C1.42903 3.26201 1.32715 2.85764 1.52434 2.40639C1.70653 1.98951 2.13153 1.71951 2.57434 1.73264C2.86059 1.74107 3.10371 1.86014 3.30809 2.05357C3.50621 2.24139 3.70496 2.43014 3.88559 2.63451C4.19559 2.98576 4.26403 3.39264 4.07528 3.82107C3.88559 4.25076 3.53403 4.45889 3.1284 4.47826H3.12809Z" fill="#A6B2D3"/>
    <path d="M7.82373 9.14447C7.84717 8.77009 8.06748 8.43446 8.47436 8.2354C8.87779 8.0379 9.27311 8.09384 9.61248 8.37759C9.86873 8.59196 10.1106 8.8304 10.3256 9.08603C10.6969 9.5279 10.6356 10.1917 10.2147 10.5785C9.78748 10.971 9.14061 10.9738 8.71623 10.5782C8.51936 10.3948 8.32904 10.2035 8.14436 10.0079C7.93936 9.79071 7.81936 9.53353 7.82404 9.14447H7.82373Z" fill="#A6B2D3"/>
    <path d="M7.82324 3.36354C7.82387 3.06698 7.94199 2.81666 8.14074 2.60573C8.33074 2.40416 8.52262 2.2026 8.73043 2.02041C9.08293 1.71135 9.49105 1.64635 9.91762 1.83791C10.3407 2.02791 10.5542 2.37666 10.567 2.83885C10.5742 3.10073 10.4932 3.3451 10.3161 3.53854C10.1001 3.77416 9.87824 4.00729 9.63605 4.21479C9.2923 4.50885 8.89605 4.56823 8.47887 4.3776C8.07824 4.19479 7.82168 3.78854 7.82355 3.36323L7.82324 3.36354Z" fill="#A6B2D3"/>
  </g>
  <defs>
    <clipPath id="clip0_4229_809">
      <rect width="12" height="12" fill="white" transform="translate(0 0.301392)"/>
    </clipPath>
  </defs>
</svg>