<svg xmlns="http://www.w3.org/2000/svg" width="18" height="18" viewBox="0 0 18 18" fill="none">
  <path fill-rule="evenodd" clip-rule="evenodd" d="M5.04163 3.16667C5.04163 1.90101 6.06764 0.875 7.33329 0.875H10.6666C11.9323 0.875 12.9583 1.90101 12.9583 3.16667V4C12.9583 4.34518 12.6785 4.625 12.3333 4.625H5.66663C5.32145 4.625 5.04163 4.34518 5.04163 4V3.16667ZM7.33329 2.125C6.758 2.125 6.29163 2.59137 6.29163 3.16667V3.375H11.7083V3.16667C11.7083 2.59137 11.2419 2.125 10.6666 2.125H7.33329Z" fill="#50B8E4"/>
  <path fill-rule="evenodd" clip-rule="evenodd" d="M0.041626 5.66667C0.041626 4.40101 1.06764 3.375 2.33329 3.375H15.6666C16.9323 3.375 17.9583 4.40101 17.9583 5.66667V14.8333C17.9583 16.099 16.9323 17.125 15.6666 17.125H13.1666C12.8214 17.125 12.5416 16.8452 12.5416 16.5C12.5416 16.1548 12.8214 15.875 13.1666 15.875H15.6666C16.2419 15.875 16.7083 15.4086 16.7083 14.8333V5.66667C16.7083 5.09137 16.2419 4.625 15.6666 4.625H2.33329C1.758 4.625 1.29163 5.09137 1.29163 5.66667V14.8333C1.29163 15.4086 1.758 15.875 2.33329 15.875H8.99996C9.34514 15.875 9.62496 16.1548 9.62496 16.5C9.62496 16.8452 9.34514 17.125 8.99996 17.125H2.33329C1.06764 17.125 0.041626 16.099 0.041626 14.8333V5.66667Z" fill="#50B8E4"/>
  <path fill-rule="evenodd" clip-rule="evenodd" d="M0.041626 5.66667C0.041626 4.40101 1.06764 3.375 2.33329 3.375H15.6666C16.9323 3.375 17.9583 4.40101 17.9583 5.66667V8.16667C17.9583 8.44267 17.7773 8.686 17.5129 8.76531L9.17955 11.2653C9.0624 11.3005 8.93752 11.3005 8.82037 11.2653L0.487034 8.76531C0.222669 8.686 0.041626 8.44267 0.041626 8.16667V5.66667ZM2.33329 4.625C1.758 4.625 1.29163 5.09137 1.29163 5.66667V7.70165L8.99996 10.0141L16.7083 7.70165V5.66667C16.7083 5.09137 16.2419 4.625 15.6666 4.625H2.33329Z" fill="#50B8E4"/>
  <path fill-rule="evenodd" clip-rule="evenodd" d="M9 8.375C9.34518 8.375 9.625 8.65482 9.625 9V12.3333C9.625 12.6785 9.34518 12.9583 9 12.9583C8.65482 12.9583 8.375 12.6785 8.375 12.3333V9C8.375 8.65482 8.65482 8.375 9 8.375Z" fill="#50B8E4"/>
</svg>