<svg xmlns="http://www.w3.org/2000/svg" width="18" height="18" viewBox="0 0 18 18" fill="none">
  <path fill-rule="evenodd" clip-rule="evenodd" d="M8.99996 1.29167C6.81383 1.29167 5.04163 3.06388 5.04163 5.25001C5.04163 7.43613 6.81383 9.20834 8.99996 9.20834C11.1861 9.20834 12.9583 7.43613 12.9583 5.25001C12.9583 3.06388 11.1861 1.29167 8.99996 1.29167ZM3.79163 5.25001C3.79163 2.37352 6.12348 0.0416718 8.99996 0.0416718C11.8764 0.0416718 14.2083 2.37352 14.2083 5.25001C14.2083 8.12649 11.8764 10.4583 8.99996 10.4583C6.12348 10.4583 3.79163 8.12649 3.79163 5.25001Z" fill="#50B8E4"/>
  <path fill-rule="evenodd" clip-rule="evenodd" d="M8.99999 10.4583C5.27881 10.4583 2.23321 12.7977 1.47552 15.8341C1.3777 16.2261 1.70191 16.7083 2.33333 16.7083H8.99999C9.34517 16.7083 9.62499 16.9882 9.62499 17.3333C9.62499 17.6785 9.34517 17.9583 8.99999 17.9583H2.33333C1.12379 17.9583 -0.0851899 16.9257 0.262708 15.5315C1.17594 11.8718 4.77661 9.20834 8.99999 9.20834C13.2234 9.20834 16.824 11.8718 17.7373 15.5315C18.0852 16.9257 16.8762 17.9583 15.6667 17.9583H13.1667C12.8215 17.9583 12.5417 17.6785 12.5417 17.3333C12.5417 16.9882 12.8215 16.7083 13.1667 16.7083H15.6667C16.2981 16.7083 16.6223 16.2261 16.5245 15.8341C15.7668 12.7977 12.7212 10.4583 8.99999 10.4583Z" fill="#50B8E4"/>
</svg>
