<svg xmlns="http://www.w3.org/2000/svg" width="18" height="16" viewBox="0 0 18 16" fill="none">
  <path fill-rule="evenodd" clip-rule="evenodd" d="M6.75 5.41228C6.75 4.35616 7.60616 3.5 8.66228 3.5H11.5C11.9142 3.5 12.25 3.83579 12.25 4.25C12.25 4.66421 11.9142 5 11.5 5H8.66228C8.43458 5 8.25 5.18458 8.25 5.41228C8.25 5.58973 8.36355 5.74728 8.5319 5.8034L9.94244 6.27358C10.7233 6.53386 11.25 7.26462 11.25 8.08772C11.25 9.14384 10.3938 10 9.33772 10H6.5C6.08579 10 5.75 9.66421 5.75 9.25C5.75 8.83579 6.08579 8.5 6.5 8.5H9.33772C9.56542 8.5 9.75 8.31542 9.75 8.08772C9.75 7.91027 9.63645 7.75272 9.4681 7.6966L8.05756 7.22642C7.2767 6.96614 6.75 6.23538 6.75 5.41228Z" fill="#50B8E4"/>
  <path fill-rule="evenodd" clip-rule="evenodd" d="M9 8.5C9.41421 8.5 9.75 8.83579 9.75 9.25V10.6125C9.75 11.0267 9.41421 11.3625 9 11.3625C8.58579 11.3625 8.25 11.0267 8.25 10.6125V9.25C8.25 8.83579 8.58579 8.5 9 8.5Z" fill="#50B8E4"/>
  <path fill-rule="evenodd" clip-rule="evenodd" d="M9 2.18652C9.41421 2.18652 9.75 2.52231 9.75 2.93652V4.24992C9.75 4.66414 9.41421 4.99992 9 4.99992C8.58579 4.99992 8.25 4.66414 8.25 4.24992V2.93652C8.25 2.52231 8.58579 2.18652 9 2.18652Z" fill="#50B8E4"/>
  <path fill-rule="evenodd" clip-rule="evenodd" d="M9 12C11.8995 12 14.25 9.64949 14.25 6.75C14.25 3.8505 11.8995 1.5 9 1.5C8.70104 1.5 8.40846 1.52491 8.12409 1.57262C7.71559 1.64116 7.32887 1.36555 7.26034 0.95705C7.1918 0.548546 7.4674 0.161829 7.87591 0.0932951C8.24196 0.0318842 8.61754 0 9 0C12.7279 0 15.75 3.02208 15.75 6.75C15.75 10.4779 12.7279 13.5 9 13.5C5.27208 13.5 2.25 10.4779 2.25 6.75C2.25 5.28149 2.71982 3.92049 3.51721 2.81202C3.7591 2.47577 4.22777 2.39928 4.56402 2.64117C4.90027 2.88306 4.97677 3.35173 4.73488 3.68798C4.11494 4.54975 3.75 5.60615 3.75 6.75C3.75 9.64949 6.1005 12 9 12Z" fill="#50B8E4"/>
  <path fill-rule="evenodd" clip-rule="evenodd" d="M0.25 15.25C0.25 14.8358 0.585786 14.5 1 14.5H17C17.4142 14.5 17.75 14.8358 17.75 15.25C17.75 15.6642 17.4142 16 17 16H1C0.585786 16 0.25 15.6642 0.25 15.25Z" fill="#50B8E4"/>
</svg>